<?xml version="1.0" standalone="no"?>
<!DOCTYPE svg PUBLIC "-//W3C//DTD SVG 1.1//EN" "http://www.w3.org/Graphics/SVG/1.1/DTD/svg11.dtd" >
<svg>
<metadata>
Created by FontForge 20090622 at Mon Feb 20 08:10:51 2017
 By deploy user
Copyright (c) JT Types Ltd., 1996-2004. All rights reserved.
</metadata>
<defs>
<font id="Bliss2-Bold" horiz-adv-x="542" >
  <font-face 
    font-family="Bliss 2 Bold"
    font-weight="700"
    font-stretch="normal"
    units-per-em="1000"
    panose-1="2 0 5 6 3 0 0 2 0 4"
    ascent="800"
    descent="-200"
    x-height="473"
    cap-height="659"
    bbox="-178 -237 1203 953"
    underline-thickness="50"
    underline-position="-100"
    unicode-range="U+0020-U+FB02"
  />
<missing-glyph horiz-adv-x="550" 
d="M50 0v659h450v-659h-450zM101 48h348v563h-348v-563zM231 222q-29 29 -29 60q0 25 20.5 48.5t44.5 38.5t44.5 37.5t20.5 47.5q0 21 -15.5 34t-39.5 13q-41 0 -85 -39l-27 35q49 51 117 51q48 0 77 -25.5t29 -65.5q0 -31 -20.5 -59t-45.5 -45t-45.5 -35.5t-20.5 -32.5
q0 -16 17 -35zM255 107q-16 0 -27 11t-11 28t11 28.5t27 11.5t26.5 -11.5t10.5 -28.5t-10.5 -28t-26.5 -11z" />
    <glyph glyph-name="fi" unicode="fi" horiz-adv-x="584" 
d="M94 0v380h-70v93h70v66q0 81 43.5 125t117.5 44q54 0 99 -21l-24 -95q-37 13 -58 13q-58 0 -58 -65v-67h123l-29 -93h-94v-380h-120zM405 0v473h120v-473h-120zM465 550q-31 0 -52 20.5t-21 50.5t21 51t52 21q32 0 53 -20.5t21 -51.5q0 -29 -21.5 -50t-52.5 -21z" />
    <glyph glyph-name="fl" unicode="fl" horiz-adv-x="631" 
d="M94 0v380h-70v93h70v66q0 81 43.5 125t117.5 44q54 0 99 -21l-24 -95q-37 13 -58 13q-58 0 -58 -65v-67h123l-29 -93h-94v-380h-120zM407 107v601h119v-569q0 -43 35 -43q15 0 30 6l23 -92q-40 -17 -88 -17q-119 0 -119 114z" />
    <glyph glyph-name=".notdef" horiz-adv-x="550" 
d="M50 0v659h450v-659h-450zM101 48h348v563h-348v-563zM231 222q-29 29 -29 60q0 25 20.5 48.5t44.5 38.5t44.5 37.5t20.5 47.5q0 21 -15.5 34t-39.5 13q-41 0 -85 -39l-27 35q49 51 117 51q48 0 77 -25.5t29 -65.5q0 -31 -20.5 -59t-45.5 -45t-45.5 -35.5t-20.5 -32.5
q0 -16 17 -35zM255 107q-16 0 -27 11t-11 28t11 28.5t27 11.5t26.5 -11.5t10.5 -28.5t-10.5 -28t-26.5 -11z" />
    <glyph glyph-name=".null" horiz-adv-x="0" 
 />
    <glyph glyph-name="nonmarkingreturn" horiz-adv-x="333" 
 />
    <glyph glyph-name="space" unicode=" " horiz-adv-x="216" 
 />
    <glyph glyph-name="space" unicode="&#xa0;" horiz-adv-x="216" 
 />
    <glyph glyph-name="exclam" unicode="!" horiz-adv-x="269" 
d="M99 194q-16 84 -20 157t-4 261v47h119v-48q0 -188 -4.5 -261t-20.5 -156h-70zM134 -9q-28 0 -47 20t-19 49t19 48.5t47 19.5t47.5 -19.5t19.5 -48.5t-19.5 -49t-47.5 -20z" />
    <glyph glyph-name="quotedbl" unicode="&#x22;" horiz-adv-x="395" 
d="M65 474l-13 234h112l-11 -234h-88zM245 474l-12 234h111l-10 -234h-89z" />
    <glyph glyph-name="numbersign" unicode="#" horiz-adv-x="715" 
d="M117 0l36 166h-110v93h130l30 141h-110v93h131l36 166h112l-36 -166h112l36 166h113l-36 -166h110v-93h-130l-31 -141h111v-93h-131l-35 -166h-113l36 166h-113l-35 -166h-113zM285 259h113l30 141h-112z" />
    <glyph glyph-name="dollar" unicode="$" horiz-adv-x="545" 
d="M211 -86v103q-83 9 -150 53l47 89q72 -47 138 -47q101 0 101 70q0 32 -27.5 57t-67 45t-79 43t-67 62.5t-27.5 91.5q0 58 41 105.5t113 58.5v98h87v-96q68 -7 116 -33v-100q-78 40 -149 40q-39 0 -62 -16.5t-23 -47.5t27.5 -55.5t67 -44t78.5 -42t66.5 -62t27.5 -92.5
q0 -69 -46.5 -115.5t-124.5 -60.5v-104h-87z" />
    <glyph glyph-name="percent" unicode="%" horiz-adv-x="889" 
d="M214 312q-71 0 -115.5 45.5t-44.5 131.5q0 85 44.5 130.5t115.5 45.5t115.5 -45.5t44.5 -130.5q0 -86 -44.5 -131.5t-115.5 -45.5zM214 384q32 0 48.5 28.5t16.5 76.5t-16.5 76t-48.5 28t-49 -28t-17 -76t17 -76.5t49 -28.5zM675 -10q-71 0 -115.5 45.5t-44.5 131.5
q0 85 44.5 130.5t115.5 45.5t115.5 -45.5t44.5 -130.5q0 -86 -44.5 -131.5t-115.5 -45.5zM675 62q32 0 48.5 28.5t16.5 76.5t-16.5 76t-48.5 28t-49 -28t-17 -76t17 -76.5t49 -28.5zM187 0l416 659h97l-415 -659h-98z" />
    <glyph glyph-name="ampersand" unicode="&#x26;" horiz-adv-x="763" 
d="M497 66q-97 -76 -223 -76q-98 0 -159 54t-61 138q0 122 137 186q-27 31 -39.5 47t-24 43.5t-11.5 57.5q0 63 52.5 106t140.5 43t140 -42t52 -108q0 -101 -134 -170q60 -66 138 -141q59 63 83 142l101 -25q-37 -112 -107 -184q56 -48 105 -48q13 0 27 4l22 -88
q-28 -11 -68 -11q-83 0 -171 72zM292 86q67 0 125 46q-83 75 -162 165q-78 -41 -78 -107q0 -45 32 -74.5t83 -29.5zM299 416q81 43 81 100q0 26 -18.5 44.5t-53.5 18.5q-34 0 -51.5 -17.5t-17.5 -42.5q0 -43 60 -103z" />
    <glyph glyph-name="quotesingle" unicode="'" horiz-adv-x="215" 
d="M64 474l-12 234h111l-10 -234h-89z" />
    <glyph glyph-name="parenleft" unicode="(" horiz-adv-x="348" 
d="M243 -236q-97 105 -133.5 226t-36.5 278t36.5 278.5t133.5 228.5l80 -60q-68 -87 -96.5 -185t-28.5 -262t28 -262t96 -182z" />
    <glyph glyph-name="parenright" unicode=")" horiz-adv-x="348" 
d="M26 -176q68 84 96 182t28 262t-28 262.5t-97 184.5l80 60q97 -107 133.5 -228.5t36.5 -278.5t-36.5 -278t-133.5 -226z" />
    <glyph glyph-name="asterisk" unicode="*" horiz-adv-x="488" 
d="M201 330q-2 33 10 91.5t13 69.5q-10 -7 -33 -29t-47 -41t-47 -31l-43 74q28 18 86 37.5t65 22.5l-62 21.5t-88 38.5l43 74q30 -15 76.5 -56.5t49.5 -43.5q-1 7 -12.5 66.5t-9.5 93.5h85q2 -33 -10 -92t-13 -68q1 1 49 42.5t79 57.5l42 -75q-28 -18 -86 -37t-65 -22
q7 -3 65 -22.5t86 -37.5l-43 -75q-30 15 -76 56t-52 45q0 -3 12.5 -64.5t10.5 -95.5h-85z" />
    <glyph glyph-name="plus" unicode="+" horiz-adv-x="550" 
d="M219 0v201h-179v99h179v196h111v-196h181v-99h-181v-201h-111z" />
    <glyph glyph-name="comma" unicode="," horiz-adv-x="238" 
d="M27 -122q46 78 46 155q0 31 -6 66l110 19q7 -29 7 -63q0 -113 -88 -210z" />
    <glyph glyph-name="hyphen" unicode="-" horiz-adv-x="366" 
d="M52 198v100h263v-100h-263z" />
    <glyph glyph-name="hyphen" unicode="&#x2010;" horiz-adv-x="366" 
d="M52 198v100h263v-100h-263z" />
    <glyph glyph-name="hyphen" unicode="&#xad;" horiz-adv-x="366" 
d="M52 198v100h263v-100h-263z" />
    <glyph glyph-name="period" unicode="." horiz-adv-x="238" 
d="M117 -9q-28 0 -47.5 20t-19.5 49t19.5 48.5t47.5 19.5q27 0 46.5 -19.5t19.5 -48.5t-19.5 -49t-46.5 -20z" />
    <glyph glyph-name="slash" unicode="/" horiz-adv-x="397" 
d="M13 -35l252 731h119l-252 -731h-119z" />
    <glyph glyph-name="zero" unicode="0" horiz-adv-x="572" 
d="M286 -10q-112 0 -175 87t-63 251q0 163 63 250t175 87t175 -87t63 -250q0 -164 -63 -251t-175 -87zM286 91q59 0 85 59t26 178t-26 177.5t-85 58.5t-85 -58.5t-26 -177.5t26 -178t85 -59z" />
    <glyph glyph-name="one" unicode="1" horiz-adv-x="445" 
d="M223 0v540l-153 -69l-40 93l220 100h91v-664h-118z" />
    <glyph glyph-name="two" unicode="2" horiz-adv-x="537" 
d="M28 0q6 78 33.5 141t63 100t76.5 70.5t74.5 56t56 51.5t22.5 61q0 43 -29 63.5t-73 20.5q-76 0 -170 -45l-32 93q110 53 220 53q103 0 157 -47.5t54 -125.5q0 -52 -27 -95.5t-67.5 -76l-82 -63.5t-77 -72t-46.5 -87h306v-98h-459z" />
    <glyph glyph-name="three" unicode="3" horiz-adv-x="556" 
d="M33 27l34 95q69 -31 147 -31q149 0 149 102q0 65 -69 83q-28 8 -81 8h-87v96h70q147 0 147 96q0 41 -25.5 64.5t-75.5 23.5q-74 0 -159 -45l-32 93q102 53 206 53t158.5 -51t54.5 -126q0 -101 -101 -142v-2q57 -12 89 -51.5t32 -97.5q0 -91 -68 -148t-200 -57
q-106 0 -189 37z" />
    <glyph glyph-name="four" unicode="4" horiz-adv-x="588" 
d="M39 161v80l326 423h86v-405h98v-98h-98v-161h-118v161h-294zM172 257q6 0 38 1t45 1h78v94q0 15 6 129z" />
    <glyph glyph-name="five" unicode="5" horiz-adv-x="529" 
d="M34 26l33 94q63 -29 132 -29q66 0 107 29t41 85q0 69 -61 92q-38 15 -120 15h-82v347h393l-24 -98h-252v-154h26q74 0 126 -20q60 -24 90.5 -70.5t30.5 -104.5q0 -99 -67.5 -160.5t-203.5 -61.5q-99 0 -169 36z" />
    <glyph glyph-name="six" unicode="6" horiz-adv-x="565" 
d="M298 -10q-109 0 -179.5 79t-70.5 233q0 157 81 260t217 103q81 0 147 -31l-31 -93q-53 27 -110 27q-70 0 -119 -48.5t-61 -145.5q71 48 155 48q86 0 143 -55t57 -149q0 -104 -64 -166t-165 -62zM300 87q48 0 74 30t26 84q0 59 -28.5 91t-76.5 32q-30 0 -64 -13t-56 -32
q2 -92 37.5 -142t87.5 -50z" />
    <glyph glyph-name="seven" unicode="7" horiz-adv-x="499" 
d="M77 0q36 176 102.5 319t143.5 242h-278l-29 98h468v-42q-210 -244 -281 -617h-126z" />
    <glyph glyph-name="eight" unicode="8" horiz-adv-x="574" 
d="M283 -10q-111 0 -173 50t-62 133q0 58 31.5 101t83.5 65v2q-96 54 -96 145q0 78 61 128.5t163 50.5q100 0 156.5 -50.5t56.5 -119.5q0 -98 -100 -150v-2q122 -47 122 -159q0 -86 -63.5 -140t-179.5 -54zM290 83q47 0 78.5 24t31.5 67q0 27 -12 47.5t-37.5 34.5
t-43.5 20.5t-51 16.5q-33 -14 -57 -42t-24 -65q0 -49 33 -76t82 -27zM309 386q69 36 69 98q0 38 -25 63t-69 25q-40 0 -65.5 -23t-25.5 -58q0 -43 31 -66t85 -39z" />
    <glyph glyph-name="nine" unicode="9" horiz-adv-x="559" 
d="M213 -10q-87 0 -157 33l30 96q62 -32 125 -32q155 0 174 194h-1q-61 -47 -144 -47q-86 0 -144 51.5t-58 152.5q0 102 64 164.5t164 62.5q112 0 178.5 -77.5t66.5 -233.5q0 -174 -75.5 -269t-222.5 -95zM267 331q70 0 120 56q-1 80 -34.5 130.5t-89.5 50.5
q-46 0 -73.5 -33t-27.5 -87q0 -56 27.5 -86.5t77.5 -30.5z" />
    <glyph glyph-name="colon" unicode=":" horiz-adv-x="238" 
d="M117 314q-28 0 -47.5 20t-19.5 48q0 29 19.5 49t47.5 20q27 0 46.5 -20t19.5 -49q0 -28 -19.5 -48t-46.5 -20zM117 -9q-28 0 -47.5 20t-19.5 49t19.5 48.5t47.5 19.5q27 0 46.5 -19.5t19.5 -48.5t-19.5 -49t-46.5 -20z" />
    <glyph glyph-name="semicolon" unicode=";" horiz-adv-x="238" 
d="M117 314q-28 0 -47.5 20t-19.5 48q0 29 19.5 49t47.5 20q27 0 46.5 -20t19.5 -49q0 -28 -19.5 -48t-46.5 -20zM27 -122q46 78 46 155q0 31 -6 66l110 19q7 -29 7 -63q0 -113 -88 -210z" />
    <glyph glyph-name="less" unicode="&#x3c;" horiz-adv-x="543" 
d="M46 213v94l428 177v-101l-324 -122v-2l324 -122v-101z" />
    <glyph glyph-name="equal" unicode="=" horiz-adv-x="550" 
d="M40 301v99h471v-99h-471zM40 99v99h471v-99h-471z" />
    <glyph glyph-name="greater" unicode="&#x3e;" horiz-adv-x="543" 
d="M69 36v101l324 122v2l-324 122v101l428 -177v-94z" />
    <glyph glyph-name="question" unicode="?" horiz-adv-x="482" 
d="M138 192q-31 37 -31 84q0 33 19 61t46 47.5l53.5 38t45.5 39.5t19 44q0 28 -18.5 43t-50.5 15q-64 0 -127 -56l-54 77q93 80 201 80q87 0 134.5 -41t47.5 -105q0 -38 -20.5 -70.5t-49.5 -54.5t-58 -41.5t-49.5 -40.5t-20.5 -43t14 -40zM194 -9q-28 0 -47 20t-19 49
t19 48.5t47 19.5t47.5 -19.5t19.5 -48.5t-19.5 -49t-47.5 -20z" />
    <glyph glyph-name="at" unicode="@" horiz-adv-x="777" 
d="M486 -46l21 -67q-71 -27 -161 -27q-137 0 -225 91t-88 240q0 171 107 275t264 104q150 0 245 -87t95 -233q0 -108 -46.5 -164.5t-123.5 -56.5q-86 0 -103 82h-1q-15 -31 -53 -56t-87 -25q-54 0 -95 39t-41 120q0 98 61.5 160.5t155.5 62.5q85 0 154 -42l-20 -155
q-5 -35 -5 -55q0 -61 43 -61q38 0 60 38.5t22 105.5q0 112 -67 185t-196 73q-124 0 -206.5 -82.5t-82.5 -221.5q0 -127 68 -197.5t173 -70.5q79 0 132 25zM458 252l9 71q-26 16 -58 16q-50 0 -84.5 -40.5t-34.5 -106.5q0 -89 62 -89q38 0 67.5 36.5t38.5 112.5z" />
    <glyph glyph-name="A" unicode="A" horiz-adv-x="628" 
d="M8 0l255 662h92l264 -662h-127l-64 165h-235l-62 -165h-123zM228 263h163l-46 131q-21 59 -33 102h-2q-7 -26 -34 -103z" />
    <glyph glyph-name="B" unicode="B" horiz-adv-x="567" 
d="M80 0v659h193q100 0 152.5 -48.5t52.5 -118.5q0 -44 -21 -80.5t-59 -55.5v-2q57 -14 90.5 -57.5t33.5 -101.5q0 -82 -61 -138.5t-170 -56.5h-211zM200 99h77q123 0 123 96q0 42 -29.5 66t-80.5 24h-90v-186zM200 384h57q49 0 75.5 24t26.5 64q0 39 -26 63.5t-77 24.5h-56
v-176z" />
    <glyph glyph-name="C" unicode="C" horiz-adv-x="627" 
d="M561 137l33 -95q-95 -52 -209 -52q-158 0 -245.5 91.5t-87.5 240.5q0 146 96 244.5t252 98.5q100 0 173 -32v-112q-81 43 -170 43q-106 0 -164.5 -67.5t-58.5 -170.5q0 -105 59.5 -170t159.5 -65q82 0 162 46z" />
    <glyph glyph-name="D" unicode="D" horiz-adv-x="696" 
d="M80 0v659h205q172 0 266 -88t94 -237q0 -151 -100 -242.5t-271 -91.5h-194zM200 98h76q123 0 181.5 66t58.5 168q0 106 -62 167.5t-180 61.5h-74v-463z" />
    <glyph glyph-name="E" unicode="E" horiz-adv-x="502" 
d="M80 0v659h364l-32 -98h-212v-176h211v-98h-211v-189h245v-98h-365z" />
    <glyph glyph-name="F" unicode="F" horiz-adv-x="480" 
d="M80 0v659h365l-31 -98h-214v-176h210v-98h-210v-287h-120z" />
    <glyph glyph-name="G" unicode="G" horiz-adv-x="708" 
d="M636 320v-277q-106 -53 -240 -53q-159 0 -251.5 91.5t-92.5 236.5q0 152 100 249.5t262 97.5q99 0 191 -33v-112q-88 44 -182 44q-116 0 -179.5 -65t-63.5 -173t60 -171.5t165 -63.5q67 0 110 20v209h121z" />
    <glyph glyph-name="H" unicode="H" horiz-adv-x="721" 
d="M80 0v659h120v-272h320v272h121v-659h-121v285h-320v-285h-120z" />
    <glyph glyph-name="I" unicode="I" horiz-adv-x="280" 
d="M80 0v659h120v-659h-120z" />
    <glyph glyph-name="J" unicode="J" horiz-adv-x="329" 
d="M-31 -169l24 97q24 -12 60 -12q46 0 61 25t15 72v646h120v-662q0 -83 -46 -132.5t-140 -49.5q-52 0 -94 16z" />
    <glyph glyph-name="K" unicode="K" horiz-adv-x="599" 
d="M80 0v659h120v-281h3l225 281h140l-265 -320l280 -339h-147l-233 289h-3v-289h-120z" />
    <glyph glyph-name="L" unicode="L" horiz-adv-x="452" 
d="M80 0v659h120v-561h234v-98h-354z" />
    <glyph glyph-name="M" unicode="M" horiz-adv-x="821" 
d="M80 0v659h109l173 -249q41 -60 55 -85h2q26 46 54 89l158 245h110v-659h-121v372q0 61 2 87h-2q-11 -22 -45 -74l-130 -202h-55l-144 207q-37 54 -45 68h-2q1 -26 1 -83v-375h-120z" />
    <glyph glyph-name="N" unicode="N" horiz-adv-x="754" 
d="M80 0v659h119l281 -360q45 -59 74 -102h2q-2 35 -2 111v351h121v-659h-110l-291 375q-25 31 -74 101h-2q2 -27 2 -102v-374h-120z" />
    <glyph glyph-name="O" unicode="O" horiz-adv-x="768" 
d="M384 -10q-146 0 -239 93t-93 244q0 150 92.5 244t239.5 94q146 0 239 -94.5t93 -243.5q0 -150 -93.5 -243.5t-238.5 -93.5zM384 91q92 0 148 63t56 173q0 109 -55 173t-149 64q-93 0 -148.5 -63t-55.5 -174q0 -110 55.5 -173t148.5 -63z" />
    <glyph glyph-name="P" unicode="P" horiz-adv-x="545" 
d="M80 0v659h159q91 0 148 -28q107 -53 107 -188q0 -63 -30.5 -114.5t-95.5 -78.5q-59 -23 -140 -23h-28v-227h-120zM200 325h36q48 0 77 15q55 27 55 103q0 70 -52 101q-29 17 -82 17h-34v-236z" />
    <glyph glyph-name="Q" unicode="Q" horiz-adv-x="768" 
d="M285 3q-106 28 -169.5 114.5t-63.5 209.5q0 150 92.5 244t239.5 94q146 0 239 -94.5t93 -243.5q0 -136 -76 -225t-201 -106q51 -58 134 -58q37 0 66 11l28 -92q-43 -20 -108 -20q-161 0 -274 166zM384 91q92 0 148 63t56 173q0 109 -55 173t-149 64q-93 0 -148.5 -63
t-55.5 -174q0 -110 55.5 -173t148.5 -63z" />
    <glyph glyph-name="R" unicode="R" horiz-adv-x="589" 
d="M80 0v659h180q85 0 141 -27q98 -46 98 -161q0 -64 -35 -107.5t-94 -62.5v-2q29 -16 82 -107l110 -192h-138l-95 167q-45 83 -72 90h-57v-257h-120zM200 355h54q42 0 73 17q46 26 46 87q0 57 -44 83q-28 19 -74 19h-55v-206z" />
    <glyph glyph-name="S" unicode="S" horiz-adv-x="533" 
d="M48 47l47 92q69 -48 149 -48q46 0 78 19t32 59q0 35 -29.5 62t-71 47t-83.5 43.5t-71.5 64.5t-29.5 97q0 76 57.5 129t156.5 53q95 0 161 -33v-110q-81 42 -157 42q-39 0 -64.5 -17t-25.5 -54q0 -33 29.5 -58.5t71.5 -45t83.5 -43.5t71 -66.5t29.5 -100.5
q0 -86 -66 -137.5t-169 -51.5q-118 0 -199 57z" />
    <glyph glyph-name="T" unicode="T" horiz-adv-x="536" 
d="M206 0v561h-192v98h520l-31 -98h-177v-561h-120z" />
    <glyph glyph-name="U" unicode="U" horiz-adv-x="696" 
d="M348 -10q-188 0 -248 128q-25 50 -25 128v413h120v-405q0 -53 18 -89q36 -74 135 -74t135 74q18 36 18 90v404h120v-413q0 -79 -25 -129q-61 -127 -248 -127z" />
    <glyph glyph-name="V" unicode="V" horiz-adv-x="649" 
d="M276 -4l-269 663h131l138 -358l48 -134h2q28 83 49 135l137 357h130l-269 -663h-97z" />
    <glyph glyph-name="W" unicode="W" horiz-adv-x="944" 
d="M240 -4l-233 663h136l121 -379q10 -30 32 -111h2q13 46 34 110l89 265l-41 115h122l127 -373q27 -76 37 -116h3q22 88 30 114l114 375h124l-222 -663h-102l-99 279q-27 76 -36 110h-3q-14 -51 -35 -109l-100 -280h-100z" />
    <glyph glyph-name="X" unicode="X" horiz-adv-x="633" 
d="M11 0l236 331l-217 328h136l156 -237l167 237h132l-231 -325l221 -334h-134l-162 243l-172 -243h-132z" />
    <glyph glyph-name="Y" unicode="Y" horiz-adv-x="586" 
d="M232 0v261l-225 398h132l154 -291h2l153 291h130l-225 -399v-260h-121z" />
    <glyph glyph-name="Z" unicode="Z" horiz-adv-x="570" 
d="M26 0l330 561h-286l-29 98h503l-324 -561h327v-98h-521z" />
    <glyph glyph-name="bracketleft" unicode="[" horiz-adv-x="304" 
d="M68 -235v1008h213v-91h-101v-826h101v-91h-213z" />
    <glyph glyph-name="backslash" unicode="\" horiz-adv-x="401" 
d="M267 -35l-253 731h120l252 -731h-119z" />
    <glyph glyph-name="bracketright" unicode="]" horiz-adv-x="304" 
d="M23 -235v91h101v826h-101v91h214v-1008h-214z" />
    <glyph glyph-name="asciicircum" unicode="^" horiz-adv-x="521" 
d="M58 287l153 372h98l153 -372h-100l-101 268h-2l-100 -268h-101z" />
    <glyph glyph-name="underscore" unicode="_" horiz-adv-x="442" 
d="M0 -130v64h442v-64h-442z" />
    <glyph glyph-name="grave" unicode="`" horiz-adv-x="384" 
d="M161 531l-97 147h130l58 -147h-91z" />
    <glyph glyph-name="grave" unicode="&#x300;" horiz-adv-x="384" 
d="M161 531l-97 147h130l58 -147h-91z" />
    <glyph glyph-name="a" unicode="a" horiz-adv-x="492" 
d="M344 0l-18 45q-60 -55 -136 -55q-68 0 -112.5 42t-44.5 109q0 88 80 129q46 24 122 27l81 3v15q0 79 -91 79q-62 0 -124 -33l-39 77q85 47 183 47q190 0 190 -172v-192q0 -89 9 -121h-100zM316 220l-64 -2q-45 -1 -69 -15q-29 -16 -29 -54q0 -31 19 -48t51 -17
q49 0 92 35v101z" />
    <glyph glyph-name="b" unicode="b" horiz-adv-x="533" 
d="M216 -10q-92 0 -155 33v685h119v-237q47 14 92 14q98 0 162.5 -62t64.5 -171q0 -122 -79.5 -192t-203.5 -70zM235 89q64 0 102.5 43t38.5 113q0 63 -33 102t-91 39q-34 0 -72 -15v-274q25 -8 55 -8z" />
    <glyph glyph-name="c" unicode="c" horiz-adv-x="448" 
d="M274 -10q-112 0 -175.5 68.5t-63.5 174.5q0 109 71.5 180.5t178.5 71.5q77 0 127 -32v-101q-51 37 -115 37q-65 0 -102.5 -43t-37.5 -110q0 -72 36 -111t98 -39q51 0 110 32l35 -82q-67 -46 -162 -46z" />
    <glyph glyph-name="d" unicode="d" horiz-adv-x="538" 
d="M304 -10q-119 0 -194 64t-75 178q0 112 73 182.5t186 70.5q36 0 64 -6v229h120v-683q-72 -35 -174 -35zM302 89q35 0 56 8v283q-32 7 -57 7q-64 0 -104 -41t-40 -112q0 -68 39.5 -106.5t105.5 -38.5z" />
    <glyph glyph-name="e" unicode="e" horiz-adv-x="493" 
d="M277 -10q-122 0 -182 70.5t-60 175.5q0 109 57 179t156 70t154.5 -67.5t55.5 -185.5v-28h-303q2 -55 38 -87.5t95 -32.5q63 0 120 32l36 -82q-71 -44 -167 -44zM154 287h183q-2 45 -24.5 76t-66.5 31q-43 0 -67.5 -31t-24.5 -76z" />
    <glyph glyph-name="f" unicode="f" horiz-adv-x="346" 
d="M94 0v380h-70v93h70v66q0 81 43.5 125t117.5 44q54 0 99 -21l-24 -95q-37 13 -58 13q-58 0 -58 -65v-67h123l-29 -93h-94v-380h-120z" />
    <glyph glyph-name="g" unicode="g" horiz-adv-x="504" 
d="M234 -237q-103 0 -161.5 38t-58.5 101q0 38 23.5 68t61.5 46q-31 19 -31 59q0 50 57 89q-37 22 -58 61t-21 86q0 71 51 122.5t142 51.5q58 0 94 -21q6 -2 12 2q41 41 114 41q18 0 32 -2l-24 -86q-18 5 -35 5q-22 0 -35 -8q42 -45 42 -112q0 -79 -54.5 -127t-141.5 -48
q-32 0 -58 8q-12 -20 -12 -35q0 -20 23 -31t57.5 -14.5t75 -11.5t75 -19t57.5 -38t23 -69q0 -68 -66 -112t-184 -44zM250 -153q54 0 87 16.5t33 42.5q0 30 -36.5 43.5t-95 20.5t-79.5 15q-38 -28 -38 -62q0 -35 35 -55.5t94 -20.5zM242 219q37 0 60.5 23t23.5 64
q0 37 -23.5 63t-61.5 26q-36 0 -59 -23t-23 -65q0 -37 22.5 -62.5t60.5 -25.5z" />
    <glyph glyph-name="h" unicode="h" horiz-adv-x="543" 
d="M61 0v708h119v-287q76 64 157 64q65 0 108 -39.5t43 -132.5v-313h-119v276q0 50 -15.5 77.5t-57.5 27.5q-56 0 -116 -50v-331h-119z" />
    <glyph glyph-name="i" unicode="i" horiz-adv-x="238" 
d="M59 0v473h120v-473h-120zM119 550q-31 0 -52 20.5t-21 50.5t21 51t52 21q32 0 53 -20.5t21 -51.5q0 -29 -21.5 -50t-52.5 -21z" />
    <glyph glyph-name="j" unicode="j" horiz-adv-x="252" 
d="M-61 -220l22 98q23 -11 51 -11q33 0 47 19t14 62v525h120v-543q0 -79 -43.5 -123t-119.5 -44q-52 0 -91 17zM133 550q-31 0 -52 20.5t-21 50.5t21 51t52 21q32 0 53 -20.5t21 -51.5q0 -29 -21.5 -50t-52.5 -21z" />
    <glyph glyph-name="k" unicode="k" horiz-adv-x="493" 
d="M61 0v708h119v-399h2l155 164h136l-194 -206l210 -267h-139l-168 219h-2v-219h-119z" />
    <glyph glyph-name="l" unicode="l" horiz-adv-x="285" 
d="M61 107v601h119v-569q0 -43 35 -43q15 0 30 6l23 -92q-40 -17 -88 -17q-119 0 -119 114z" />
    <glyph glyph-name="m" unicode="m" horiz-adv-x="833" 
d="M55 0v473h100l12 -53q83 65 159 65q90 0 126 -73q87 73 170 73q69 0 113 -41.5t44 -129.5v-314h-119v281q0 48 -15 74t-57 26q-55 0 -112 -47q1 -5 1 -18v-316h-120v280q0 49 -14 75t-56 26q-54 0 -113 -47v-334h-119z" />
    <glyph glyph-name="n" unicode="n" horiz-adv-x="537" 
d="M55 0v473h102l12 -53q83 65 162 65q65 0 108.5 -39.5t43.5 -132.5v-313h-120v276q0 50 -15.5 77.5t-57.5 27.5q-56 0 -116 -50v-331h-119z" />
    <glyph glyph-name="o" unicode="o" 
d="M271 -10q-105 0 -170.5 70t-65.5 178q0 107 65.5 177t170.5 70t171 -70t66 -177t-66 -177.5t-171 -70.5zM271 86q55 0 84.5 42t29.5 110t-29.5 109.5t-84.5 41.5t-84.5 -41.5t-29.5 -109.5t29.5 -110t84.5 -42z" />
    <glyph glyph-name="p" unicode="p" horiz-adv-x="528" 
d="M55 -237v692q87 30 179 30q125 0 192 -66t67 -181q0 -110 -68 -179t-178 -69q-37 0 -73 11v-238h-119zM174 101q31 -12 64 -12q65 0 99 39.5t34 109.5q0 74 -37.5 111.5t-103.5 37.5q-27 0 -56 -8v-278z" />
    <glyph glyph-name="q" unicode="q" horiz-adv-x="534" 
d="M247 -10q-87 0 -149.5 61t-62.5 174q0 121 76.5 190.5t195.5 69.5q101 0 172 -30v-692h-119v256q-48 -29 -113 -29zM277 89q45 0 83 26v263q-32 9 -60 9q-68 0 -105.5 -43t-37.5 -114q0 -64 32.5 -102.5t87.5 -38.5z" />
    <glyph glyph-name="r" unicode="r" horiz-adv-x="364" 
d="M55 0v473h101l13 -53q65 65 130 65q39 0 67 -19l-42 -101q-26 16 -54 16q-42 0 -96 -47v-334h-119z" />
    <glyph glyph-name="s" unicode="s" horiz-adv-x="420" 
d="M21 36l37 87q61 -39 129 -39q83 0 83 50q0 22 -23 37t-55.5 26t-65 26t-55.5 45t-23 74q0 64 48.5 103.5t130.5 39.5q75 0 139 -23v-101q-71 30 -134 30q-67 0 -67 -43q0 -20 23 -34t55.5 -25.5t65 -27t55.5 -47t23 -77.5q0 -74 -54.5 -110.5t-137.5 -36.5q-99 0 -174 46
z" />
    <glyph glyph-name="t" unicode="t" horiz-adv-x="386" 
d="M236 -10q-63 0 -99 34t-36 93v263h-85v93h85v110l119 35v-145h143l-29 -93h-114v-234q0 -32 11 -46t35 -14q38 0 72 23l36 -82q-55 -37 -138 -37z" />
    <glyph glyph-name="u" unicode="u" horiz-adv-x="535" 
d="M213 -10q-42 0 -82 21.5t-60 71.5q-16 38 -16 99v291h119v-279q0 -38 10 -59q18 -43 71 -43q59 0 97 42v339h120v-356q0 -88 8 -117h-102l-18 49q-66 -59 -147 -59z" />
    <glyph glyph-name="v" unicode="v" horiz-adv-x="486" 
d="M198 -3l-193 476h121l117 -322h2l115 322h120l-192 -476h-90z" />
    <glyph glyph-name="w" unicode="w" horiz-adv-x="748" 
d="M178 -3l-171 476h121l100 -321h2l100 321h93l104 -321h2l98 321h118l-175 -476h-88l-104 321h-2l-106 -321h-92z" />
    <glyph glyph-name="x" unicode="x" horiz-adv-x="494" 
d="M7 0l177 238l-171 235h125l111 -154l112 154h124l-173 -235l175 -238h-125l-114 158l-116 -158h-125z" />
    <glyph glyph-name="y" unicode="y" horiz-adv-x="518" 
d="M-12 -215l30 92q36 -18 71 -18q42 0 73.5 33t58.5 111l-213 470h124l143 -336h2l115 336h121l-181 -488q-27 -71 -55.5 -117.5t-60 -68t-58.5 -29t-64 -7.5q-56 0 -106 22z" />
    <glyph glyph-name="z" unicode="z" horiz-adv-x="415" 
d="M15 0l219 380h-181l-24 93h379l-217 -380h213v-93h-389z" />
    <glyph glyph-name="braceleft" unicode="{" horiz-adv-x="362" 
d="M300 -227q-99 5 -139.5 50.5t-40.5 122.5v218q0 39 -17 53.5t-48 15.5v80q31 1 48 15.5t17 53.5v218q0 77 40.5 122.5t139.5 50.5l21 -105q-46 -5 -66.5 -26t-20.5 -64v-181q0 -113 -77 -123v-2q77 -10 77 -123v-181q0 -43 20.5 -64t66.5 -26z" />
    <glyph glyph-name="bar" unicode="|" horiz-adv-x="282" 
d="M83 -236v1016h117v-1016h-117z" />
    <glyph glyph-name="braceright" unicode="}" horiz-adv-x="362" 
d="M42 -122q46 5 66.5 26t20.5 64v181q0 113 77 123v2q-77 10 -77 123v181q0 43 -20.5 64t-66.5 26l21 105q99 -5 139.5 -50.5t40.5 -122.5v-218q0 -39 17 -53.5t48 -15.5v-80q-31 -1 -48 -15.5t-17 -53.5v-218q0 -77 -40.5 -122.5t-139.5 -50.5z" />
    <glyph glyph-name="asciitilde" unicode="~" horiz-adv-x="550" 
d="M81 198l-57 76q71 71 152 71q40 0 105 -28.5t97 -28.5q45 0 91 42l58 -76q-71 -71 -153 -71q-40 0 -105 28.5t-97 28.5q-25 0 -45 -9.5t-46 -32.5z" />
    <glyph glyph-name="exclamdown" unicode="&#xa1;" horiz-adv-x="269" 
d="M134 347q-28 0 -47 20t-19 49t19 49t47 20t47.5 -20t19.5 -49t-19.5 -49t-47.5 -20zM75 -183v49q0 187 4 259.5t20 156.5h70q16 -83 20.5 -156t4.5 -261v-48h-119z" />
    <glyph glyph-name="cent" unicode="&#xa2;" horiz-adv-x="545" 
d="M243 0v106q-80 18 -123.5 78.5t-43.5 142.5q0 81 47 144t123 81v107h86v-97q64 -1 107 -29v-94q-48 33 -115 33q-57 0 -94.5 -38t-37.5 -102q0 -63 35 -100.5t94 -37.5q57 0 110 28l30 -86q-59 -31 -132 -34v-102h-86z" />
    <glyph glyph-name="sterling" unicode="&#xa3;" horiz-adv-x="545" 
d="M60 0v76q91 28 91 211h-71v98h71v60q0 52 14.5 92.5t37 64t52.5 38.5t56.5 20t54.5 5q67 0 134 -26l-26 -96q-40 21 -91 21q-52 0 -83 -33t-31 -100v-46h188l-31 -98h-157q-2 -149 -59 -198v-2q64 11 123 11h163v-98h-436z" />
    <glyph glyph-name="currency" unicode="&#xa4;" horiz-adv-x="545" 
d="M458 68l-66 67q-55 -34 -120 -34t-119 34l-68 -69l-71 72l69 67q-37 56 -37 122q0 65 35 119l-68 67l71 72l67 -69q56 37 121 37q66 0 122 -37l65 67l71 -71l-67 -66q35 -54 35 -119q0 -67 -36 -122l68 -66zM272 183q58 0 98.5 42t40.5 102q0 59 -40.5 101t-98.5 42
t-98.5 -42t-40.5 -101q0 -60 40.5 -102t98.5 -42z" />
    <glyph glyph-name="yen" unicode="&#xa5;" horiz-adv-x="545" 
d="M213 0v112h-156v75h156v74h-156v75h120l-153 323h128l120 -290h1l119 290h129l-154 -323h121v-75h-156v-74h156v-75h-156v-112h-119z" />
    <glyph glyph-name="brokenbar" unicode="&#xa6;" horiz-adv-x="282" 
d="M83 416v364h117v-364h-117zM83 -236v364h117v-364h-117z" />
    <glyph glyph-name="section" unicode="&#xa7;" horiz-adv-x="558" 
d="M64 -109l46 85q72 -44 144 -44q107 0 107 72q0 33 -30 57t-72.5 41t-85.5 38t-73 58.5t-30 90.5q0 92 78 143q-54 49 -54 121q0 77 53 124t140 47q100 0 170 -36l-2 -103q-79 42 -156 42q-38 0 -63 -17t-25 -48q0 -34 30.5 -58t74.5 -42t87.5 -39t74 -60t30.5 -95
q0 -45 -22.5 -82.5t-60.5 -59.5q54 -47 54 -113q0 -89 -62.5 -133t-161.5 -44q-117 0 -191 55zM362 169q42 29 42 75q0 21 -10.5 39t-33.5 33.5t-42.5 25.5t-54.5 26t-53 25q-38 -28 -38 -74q0 -22 10.5 -40.5t33.5 -34t42.5 -25.5t53 -25.5t50.5 -24.5z" />
    <glyph glyph-name="dieresis" unicode="&#xa8;" horiz-adv-x="384" 
d="M96 544q-25 0 -43 18t-18 43q0 26 18 44t43 18q26 0 44 -18t18 -44q0 -25 -18 -43t-44 -18zM287 544q-25 0 -43 18t-18 43q0 26 17.5 44t43.5 18q25 0 43 -18t18 -44q0 -25 -18 -43t-43 -18z" />
    <glyph glyph-name="dieresis" unicode="&#x308;" horiz-adv-x="384" 
d="M96 544q-25 0 -43 18t-18 43q0 26 18 44t43 18q26 0 44 -18t18 -44q0 -25 -18 -43t-44 -18zM287 544q-25 0 -43 18t-18 43q0 26 17.5 44t43.5 18q25 0 43 -18t18 -44q0 -25 -18 -43t-43 -18z" />
    <glyph glyph-name="copyright" unicode="&#xa9;" horiz-adv-x="770" 
d="M385 -10q-146 0 -239 96t-93 241t93 241t239 96q145 0 238 -96t93 -241t-93 -241t-238 -96zM385 51q114 0 188 77.5t74 198.5t-74 198.5t-188 77.5t-188.5 -77.5t-74.5 -198.5t74.5 -198.5t188.5 -77.5zM486 213l24 -56q-58 -32 -118 -32q-84 0 -135 55.5t-51 142.5
q0 86 53.5 145t139.5 59q59 0 99 -22v-68q-46 26 -97 26q-55 0 -88.5 -38t-33.5 -99q0 -63 32 -100.5t86 -37.5q48 0 89 25z" />
    <glyph glyph-name="ordfeminine" unicode="&#xaa;" horiz-adv-x="368" 
d="M250 270l-12 29q-41 -36 -94 -36q-49 0 -81 29.5t-32 79.5q0 52 38.5 80t108.5 30l50 2v8q0 22 -16.5 33.5t-42.5 11.5q-47 0 -89 -22l-32 60q57 36 134 36q137 0 137 -125v-131q0 -58 8 -85h-77zM228 359v60l-41 -1q-63 -2 -63 -41q0 -18 12.5 -29t34.5 -11q30 0 57 22z
" />
    <glyph glyph-name="guillemotleft" unicode="&#xab;" horiz-adv-x="605" 
d="M207 12l-170 229l170 231l96 -51l-134 -180l134 -178zM454 12l-170 229l170 231l96 -51l-134 -180l134 -178z" />
    <glyph glyph-name="logicalnot" unicode="&#xac;" horiz-adv-x="550" 
d="M399 45v200h-359v99h471v-299h-112z" />
    <glyph glyph-name="registered" unicode="&#xae;" horiz-adv-x="574" 
d="M285 180q-104 0 -171 69.5t-67 173.5t67 173t171 69q103 0 172 -69.5t69 -172.5t-69.5 -173t-171.5 -70zM285 227q81 0 133.5 56.5t52.5 139.5t-52.5 139t-133.5 56t-133 -56t-52 -139t52 -139.5t133 -56.5zM202 296v261h78q25 0 43 -5q49 -16 49 -66q0 -28 -17.5 -46
t-44.5 -24v-2q17 -8 78 -118h-57q-3 6 -10 18q-47 85 -58 88h-11v-106h-50zM252 441h14q53 0 53 40q0 27 -21 33q-11 4 -31 4h-15v-77z" />
    <glyph glyph-name="macron" unicode="&#xaf;" horiz-adv-x="384" 
d="M49 569v90h285v-90h-285z" />
    <glyph glyph-name="macron" unicode="&#x304;" horiz-adv-x="384" 
d="M49 569v90h285v-90h-285z" />
    <glyph glyph-name="macron" unicode="&#x2c9;" horiz-adv-x="384" 
d="M49 569v90h285v-90h-285z" />
    <glyph glyph-name="degree" unicode="&#xb0;" horiz-adv-x="370" 
d="M184 353q-68 0 -111.5 43.5t-43.5 109.5t44.5 109.5t111.5 43.5t111.5 -43.5t44.5 -109.5t-44.5 -109.5t-112.5 -43.5zM185 427q32 0 53 22t21 56t-21 56.5t-53 22.5t-53 -22.5t-21 -56.5t21 -56t53 -22z" />
    <glyph glyph-name="plusminus" unicode="&#xb1;" horiz-adv-x="550" 
d="M219 148v137h-179v99h179v137h111v-137h181v-99h-181v-137h-111zM40 0v99h471v-99h-471z" />
    <glyph glyph-name="twosuperior" unicode="&#xb2;" horiz-adv-x="349" 
d="M22 402q2 51 21.5 92t46.5 66t54 45t45.5 38.5t18.5 35.5q0 38 -49 38q-36 0 -101 -29l-24 73q78 37 147 37q63 0 96 -29t33 -78q0 -30 -15 -55t-37.5 -43t-45.5 -34t-42.5 -35.5t-25.5 -40.5h169v-81h-291z" />
    <glyph glyph-name="threesuperior" unicode="&#xb3;" horiz-adv-x="348" 
d="M15 422l25 71q43 -20 91 -20q70 0 70 48q0 28 -29 38q-16 6 -51 6h-49v69h38q30 0 49 7q29 12 29 40q0 39 -50 39q-37 0 -90 -22l-23 71q73 29 136 29q61 0 95 -28t34 -72q0 -64 -66 -91v-2q38 -7 59 -30.5t21 -60.5q0 -52 -43.5 -85t-124.5 -33q-67 0 -121 26z" />
    <glyph glyph-name="acute" unicode="&#xb4;" horiz-adv-x="384" 
d="M131 531l58 147h130l-97 -147h-91z" />
    <glyph glyph-name="acute" unicode="&#x301;" horiz-adv-x="384" 
d="M131 531l58 147h130l-97 -147h-91z" />
    <glyph glyph-name="mu" unicode="&#xb5;" horiz-adv-x="573" 
d="M55 -237v710h119v-286q0 -44 23 -69.5t63 -25.5q36 0 64 25.5t28 74.5v281h120v-319q0 -33 7.5 -44t24.5 -11q14 0 29 6l23 -95q-37 -17 -79 -17q-39 0 -66.5 20t-34.5 55h-2q-19 -39 -52 -58.5t-67 -19.5q-55 0 -83 34h-2q4 -42 4 -129v-132h-119z" />
    <glyph glyph-name="mu" unicode="&#x3bc;" horiz-adv-x="573" 
d="M55 -237v710h119v-286q0 -44 23 -69.5t63 -25.5q36 0 64 25.5t28 74.5v281h120v-319q0 -33 7.5 -44t24.5 -11q14 0 29 6l23 -95q-37 -17 -79 -17q-39 0 -66.5 20t-34.5 55h-2q-19 -39 -52 -58.5t-67 -19.5q-55 0 -83 34h-2q4 -42 4 -129v-132h-119z" />
    <glyph glyph-name="paragraph" unicode="&#xb6;" horiz-adv-x="632" 
d="M266 -160v364q-96 8 -154.5 70t-58.5 157q0 98 65 163t171 65h262v-819h-96v742h-93v-742h-96z" />
    <glyph glyph-name="periodcentered" unicode="&#xb7;" horiz-adv-x="238" 
d="M117 182q-28 0 -47.5 20t-19.5 49t19.5 48.5t47.5 19.5q27 0 46.5 -19.5t19.5 -48.5t-19.5 -49t-46.5 -20z" />
    <glyph glyph-name="periodcentered" unicode="&#x2219;" horiz-adv-x="238" 
d="M117 182q-28 0 -47.5 20t-19.5 49t19.5 48.5t47.5 19.5q27 0 46.5 -19.5t19.5 -48.5t-19.5 -49t-46.5 -20z" />
    <glyph glyph-name="cedilla" unicode="&#xb8;" horiz-adv-x="384" 
d="M84 -201l17 55q24 -8 48 -8q48 0 48 32q0 20 -20 27t-61 7l27 88h88l-15 -49q84 -7 84 -74q0 -40 -36 -64.5t-105 -24.5q-40 0 -75 11z" />
    <glyph glyph-name="cedilla" unicode="&#x327;" horiz-adv-x="384" 
d="M84 -201l17 55q24 -8 48 -8q48 0 48 32q0 20 -20 27t-61 7l27 88h88l-15 -49q84 -7 84 -74q0 -40 -36 -64.5t-105 -24.5q-40 0 -75 11z" />
    <glyph glyph-name="onesuperior" unicode="&#xb9;" horiz-adv-x="349" 
d="M176 402v297l-116 -43l-31 75l165 65h75v-394h-93z" />
    <glyph glyph-name="ordmasculine" unicode="&#xba;" horiz-adv-x="392" 
d="M196 263q-75 0 -122 49t-47 125t47 125t122 49t122 -49t47 -125t-47 -125t-122 -49zM196 339q35 0 55.5 27.5t20.5 70.5t-20.5 70.5t-55.5 27.5t-55.5 -27.5t-20.5 -70.5t20.5 -70.5t55.5 -27.5z" />
    <glyph glyph-name="guillemotright" unicode="&#xbb;" horiz-adv-x="605" 
d="M55 63l133 178l-133 180l95 51l170 -231l-170 -229zM302 63l133 178l-133 180l95 51l170 -231l-170 -229z" />
    <glyph glyph-name="onequarter" unicode="&#xbc;" horiz-adv-x="944" 
d="M205 0l415 659h98l-416 -659h-97zM207 270v297l-116 -43l-31 75l165 65h75v-394h-93zM521 84v57l193 253h89v-240h53v-70h-53v-84h-93v84h-189zM620 153q17 1 66 1h24v27q0 47 3 96z" />
    <glyph glyph-name="onehalf" unicode="&#xbd;" horiz-adv-x="943" 
d="M187 0l415 659h98l-416 -659h-97zM192 270v297l-116 -43l-31 75l165 65h75v-394h-93zM575 0q2 51 21.5 92t46.5 66t54 45t45.5 38.5t18.5 35.5q0 38 -49 38q-36 0 -101 -29l-24 73q78 37 147 37q63 0 96 -29t33 -78q0 -30 -15 -55t-37.5 -43t-45.5 -34t-42.5 -35.5
t-25.5 -40.5h169v-81h-291z" />
    <glyph glyph-name="threequarters" unicode="&#xbe;" horiz-adv-x="944" 
d="M228 0l415 659h98l-416 -659h-97zM66 290l25 71q43 -20 91 -20q70 0 70 48q0 28 -29 38q-16 6 -51 6h-49v69h38q30 0 49 7q29 12 29 40q0 39 -50 39q-37 0 -90 -22l-23 71q73 29 136 29q61 0 95 -28t34 -72q0 -64 -66 -91v-2q38 -7 59 -30.5t21 -60.5q0 -52 -43.5 -85
t-124.5 -33q-67 0 -121 26zM536 84v57l193 253h89v-240h53v-70h-53v-84h-93v84h-189zM635 153q17 1 66 1h24v27q0 47 3 96z" />
    <glyph glyph-name="questiondown" unicode="&#xbf;" horiz-adv-x="473" 
d="M268 347q-27 0 -46.5 20t-19.5 49t19.5 49t46.5 20q28 0 47.5 -20t19.5 -49t-19.5 -49t-47.5 -20zM369 -32l54 -77q-93 -80 -201 -80q-87 0 -134.5 41t-47.5 105q0 47 31 86t67.5 61t67.5 49.5t31 53.5q0 21 -13 40l101 37q31 -37 31 -84q0 -40 -29 -74t-63 -54t-63 -47
t-29 -55t18.5 -43t50.5 -15q63 0 128 56z" />
    <glyph glyph-name="Agrave" unicode="&#xc0;" horiz-adv-x="628" 
d="M8 0l255 662h92l264 -662h-127l-64 165h-235l-62 -165h-123zM228 263h163l-46 131q-21 59 -33 102h-2q-7 -26 -34 -103zM279 696l-97 147h130l58 -147h-91z" />
    <glyph glyph-name="Aacute" unicode="&#xc1;" horiz-adv-x="628" 
d="M8 0l255 662h92l264 -662h-127l-64 165h-235l-62 -165h-123zM228 263h163l-46 131q-21 59 -33 102h-2q-7 -26 -34 -103zM249 696l58 147h130l-97 -147h-91z" />
    <glyph glyph-name="Acircumflex" unicode="&#xc2;" horiz-adv-x="628" 
d="M8 0l255 662h92l264 -662h-127l-64 165h-235l-62 -165h-123zM228 263h163l-46 131q-21 59 -33 102h-2q-7 -26 -34 -103zM161 696l100 147h96l101 -147h-94l-55 79l-54 -79h-94z" />
    <glyph glyph-name="Atilde" unicode="&#xc3;" horiz-adv-x="628" 
d="M8 0l255 662h92l264 -662h-127l-64 165h-235l-62 -165h-123zM228 263h163l-46 131q-21 59 -33 102h-2q-7 -26 -34 -103zM153 720v39q0 39 23 61t59 22q32 0 75.5 -22t55.5 -22q14 0 18 8.5t4 29.5h78v-40q0 -39 -23 -60.5t-59 -21.5q-31 0 -75 21.5t-56 21.5
q-14 0 -18 -8.5t-4 -28.5h-78z" />
    <glyph glyph-name="Adieresis" unicode="&#xc4;" horiz-adv-x="628" 
d="M8 0l255 662h92l264 -662h-127l-64 165h-235l-62 -165h-123zM228 263h163l-46 131q-21 59 -33 102h-2q-7 -26 -34 -103zM214 701q-25 0 -43 18t-18 43t18 43.5t43 18.5q26 0 44 -18t18 -44q0 -25 -18 -43t-44 -18zM405 701q-25 0 -43 17.5t-18 43.5t18 44t43 18t43 -18.5
t18 -43.5t-18 -43t-43 -18z" />
    <glyph glyph-name="Aring" unicode="&#xc5;" horiz-adv-x="628" 
d="M8 0l252 653q-32 10 -50.5 34t-18.5 57q0 44 32.5 70.5t84.5 26.5t84.5 -26.5t32.5 -70.5q0 -68 -67 -90l261 -654h-127l-64 165h-235l-62 -165h-123zM228 263h163l-46 132q-24 66 -33 103h-2q-8 -31 -34 -104zM308 698q19 0 30 12t11 34q0 45 -41 45q-18 0 -29.5 -12
t-11.5 -33t11.5 -33.5t29.5 -12.5z" />
    <glyph glyph-name="AE" unicode="&#xc6;" horiz-adv-x="837" 
d="M7 0l356 659h415l-31 -98h-253l29 -176h223v-98h-206l32 -189h208v-98h-314l-28 165h-218l-89 -165h-124zM274 263h148l-23 154q-7 44 -11 77h-2q-14 -38 -38 -83z" />
    <glyph glyph-name="Ccedilla" unicode="&#xc7;" horiz-adv-x="627" 
d="M246 -201l17 55q24 -8 47 -8q49 0 49 32q0 20 -20 27t-61 7l26 86q-121 21 -186.5 108.5t-65.5 215.5q0 146 96 244.5t252 98.5q100 0 173 -32v-112q-81 43 -170 43q-106 0 -164.5 -67.5t-58.5 -170.5q0 -105 59.5 -170t159.5 -65q82 0 162 46l33 -95q-91 -50 -204 -52
l-13 -39q84 -7 84 -74q0 -40 -35.5 -64.5t-104.5 -24.5q-42 0 -75 11z" />
    <glyph glyph-name="Egrave" unicode="&#xc8;" horiz-adv-x="502" 
d="M80 0v659h364l-32 -98h-212v-176h211v-98h-211v-189h245v-98h-365zM216 696l-97 147h130l58 -147h-91z" />
    <glyph glyph-name="Eacute" unicode="&#xc9;" horiz-adv-x="502" 
d="M80 0v659h364l-32 -98h-212v-176h211v-98h-211v-189h245v-98h-365zM196 696l58 147h130l-97 -147h-91z" />
    <glyph glyph-name="Ecircumflex" unicode="&#xca;" horiz-adv-x="502" 
d="M80 0v659h364l-32 -98h-212v-176h211v-98h-211v-189h245v-98h-365zM107 696l100 147h96l101 -147h-94l-55 79l-54 -79h-94z" />
    <glyph glyph-name="Edieresis" unicode="&#xcb;" horiz-adv-x="502" 
d="M81 0v659h364l-32 -98h-212v-176h211v-98h-211v-189h245v-98h-365zM164 701q-25 0 -43 18t-18 43t18 43.5t43 18.5q26 0 44 -18t18 -44q0 -25 -18 -43t-44 -18zM355 701q-25 0 -43 17.5t-18 43.5t18 44t43 18t43 -18.5t18 -43.5t-18 -43t-43 -18z" />
    <glyph glyph-name="Igrave" unicode="&#xcc;" horiz-adv-x="280" 
d="M80 0v659h120v-659h-120zM109 696l-97 147h130l58 -147h-91z" />
    <glyph glyph-name="Iacute" unicode="&#xcd;" horiz-adv-x="280" 
d="M80 0v659h120v-659h-120zM76 696l58 147h130l-97 -147h-91z" />
    <glyph glyph-name="Icircumflex" unicode="&#xce;" horiz-adv-x="280" 
d="M80 0v659h120v-659h-120zM-9 696l100 147h96l101 -147h-94l-55 79l-54 -79h-94z" />
    <glyph glyph-name="Idieresis" unicode="&#xcf;" horiz-adv-x="280" 
d="M80 0v659h120v-659h-120zM44 701q-25 0 -43 18t-18 43t18 43.5t43 18.5q26 0 44 -18t18 -44q0 -25 -18 -43t-44 -18zM235 701q-25 0 -43 17.5t-18 43.5t18 44t43 18t43 -18.5t18 -43.5t-18 -43t-43 -18z" />
    <glyph glyph-name="Eth" unicode="&#xd0;" horiz-adv-x="696" 
d="M80 0v285h-72v98h72v276h205q172 0 266 -88t94 -237q0 -151 -100 -242.5t-271 -91.5h-194zM200 98h76q123 0 181.5 66t58.5 168q0 106 -62 167.5t-180 61.5h-74v-178h151v-98h-151v-187z" />
    <glyph glyph-name="Ntilde" unicode="&#xd1;" horiz-adv-x="754" 
d="M80 0v659h119l281 -360q45 -59 74 -102h2q-2 35 -2 111v351h121v-659h-110l-291 375q-25 31 -74 101h-2q2 -27 2 -102v-374h-120zM218 720v39q0 39 23 61t59 22q32 0 75.5 -22t55.5 -22q14 0 18 8.5t4 29.5h78v-40q0 -39 -23 -60.5t-59 -21.5q-31 0 -75 21.5t-56 21.5
q-14 0 -18 -8.5t-4 -28.5h-78z" />
    <glyph glyph-name="Ograve" unicode="&#xd2;" horiz-adv-x="768" 
d="M384 -10q-146 0 -239 93t-93 244q0 150 92.5 244t239.5 94q146 0 239 -94.5t93 -243.5q0 -150 -93.5 -243.5t-238.5 -93.5zM384 91q92 0 148 63t56 173q0 109 -55 173t-149 64q-93 0 -148.5 -63t-55.5 -174q0 -110 55.5 -173t148.5 -63zM345 696l-97 147h130l58 -147h-91
z" />
    <glyph glyph-name="Oacute" unicode="&#xd3;" horiz-adv-x="768" 
d="M384 -10q-146 0 -239 93t-93 244q0 150 92.5 244t239.5 94q146 0 239 -94.5t93 -243.5q0 -150 -93.5 -243.5t-238.5 -93.5zM384 91q92 0 148 63t56 173q0 109 -55 173t-149 64q-93 0 -148.5 -63t-55.5 -174q0 -110 55.5 -173t148.5 -63zM336 696l58 147h130l-97 -147h-91
z" />
    <glyph glyph-name="Ocircumflex" unicode="&#xd4;" horiz-adv-x="768" 
d="M384 -10q-146 0 -239 93t-93 244q0 150 92.5 244t239.5 94q146 0 239 -94.5t93 -243.5q0 -150 -93.5 -243.5t-238.5 -93.5zM384 91q92 0 148 63t56 173q0 109 -55 173t-149 64q-93 0 -148.5 -63t-55.5 -174q0 -110 55.5 -173t148.5 -63zM236 696l100 147h96l101 -147h-94
l-55 79l-54 -79h-94z" />
    <glyph glyph-name="Otilde" unicode="&#xd5;" horiz-adv-x="768" 
d="M384 -10q-146 0 -239 93t-93 244q0 150 92.5 244t239.5 94q146 0 239 -94.5t93 -243.5q0 -150 -93.5 -243.5t-238.5 -93.5zM384 91q92 0 148 63t56 173q0 109 -55 173t-149 64q-93 0 -148.5 -63t-55.5 -174q0 -110 55.5 -173t148.5 -63zM229 720v39q0 39 23 61t59 22
q32 0 75.5 -22t55.5 -22q14 0 18 8.5t4 29.5h78v-40q0 -39 -23 -60.5t-59 -21.5q-31 0 -75 21.5t-56 21.5q-14 0 -18 -8.5t-4 -28.5h-78z" />
    <glyph glyph-name="Odieresis" unicode="&#xd6;" horiz-adv-x="768" 
d="M384 -10q-146 0 -239 93t-93 244q0 150 92.5 244t239.5 94q146 0 239 -94.5t93 -243.5q0 -150 -93.5 -243.5t-238.5 -93.5zM384 91q92 0 148 63t56 173q0 109 -55 173t-149 64q-93 0 -148.5 -63t-55.5 -174q0 -110 55.5 -173t148.5 -63zM291 701q-25 0 -43 18t-18 43
t18 43.5t43 18.5t43.5 -18t18.5 -44q0 -25 -18 -43t-44 -18zM482 701q-26 0 -43.5 17.5t-17.5 43.5t18 44t43 18t43 -18.5t18 -43.5t-18 -43t-43 -18z" />
    <glyph glyph-name="multiply" unicode="&#xd7;" horiz-adv-x="595" 
d="M117 -5l-71 71l181 182l-182 182l71 71l182 -182l181 181l71 -71l-180 -181l180 -180l-71 -72l-181 181z" />
    <glyph glyph-name="Oslash" unicode="&#xd8;" horiz-adv-x="775" 
d="M152 -33l-75 56l59 72q-81 94 -81 232q0 150 93 244t239 94q97 0 172 -47l59 73l74 -56l-59 -73q87 -93 87 -235q0 -150 -93.5 -243.5t-239.5 -93.5q-101 0 -178 48zM559 468l-283 -345q46 -33 111 -33q93 0 150 63.5t57 173.5q0 83 -35 141zM212 192l282 342
q-46 31 -107 31q-92 0 -149 -63.5t-57 -174.5q0 -79 31 -135z" />
    <glyph glyph-name="Ugrave" unicode="&#xd9;" horiz-adv-x="696" 
d="M348 -10q-188 0 -248 128q-25 50 -25 128v413h120v-405q0 -53 18 -89q36 -74 135 -74t135 74q18 36 18 90v404h120v-413q0 -79 -25 -129q-61 -127 -248 -127zM312 696l-97 147h130l58 -147h-91z" />
    <glyph glyph-name="Uacute" unicode="&#xda;" horiz-adv-x="696" 
d="M348 -10q-188 0 -248 128q-25 50 -25 128v413h120v-405q0 -53 18 -89q36 -74 135 -74t135 74q18 36 18 90v404h120v-413q0 -79 -25 -129q-61 -127 -248 -127zM296 696l58 147h130l-97 -147h-91z" />
    <glyph glyph-name="Ucircumflex" unicode="&#xdb;" horiz-adv-x="696" 
d="M348 -10q-188 0 -248 128q-25 50 -25 128v413h120v-405q0 -53 18 -89q36 -74 135 -74t135 74q18 36 18 90v404h120v-413q0 -79 -25 -129q-61 -127 -248 -127zM202 696l100 147h96l101 -147h-94l-55 79l-54 -79h-94z" />
    <glyph glyph-name="Udieresis" unicode="&#xdc;" horiz-adv-x="696" 
d="M348 -10q-188 0 -248 128q-25 50 -25 128v413h120v-405q0 -53 18 -89q36 -74 135 -74t135 74q18 36 18 90v404h120v-413q0 -79 -25 -129q-61 -127 -248 -127zM256 701q-25 0 -43 18t-18 43t18 43.5t43 18.5q26 0 44 -18t18 -44q0 -25 -18 -43t-44 -18zM447 701
q-25 0 -43 17.5t-18 43.5t18 44t43 18t43 -18.5t18 -43.5t-18 -43t-43 -18z" />
    <glyph glyph-name="Yacute" unicode="&#xdd;" horiz-adv-x="586" 
d="M232 0v261l-225 398h132l154 -291h2l153 291h130l-225 -399v-260h-121zM234 696l58 147h130l-97 -147h-91z" />
    <glyph glyph-name="Thorn" unicode="&#xde;" horiz-adv-x="545" 
d="M80 0v659h120v-107h39q91 0 148 -28q107 -54 107 -188q0 -63 -30.5 -114.5t-95.5 -78.5q-55 -23 -140 -23h-28v-120h-120zM200 218h36q47 0 77 14q55 28 55 104q0 70 -52 100q-29 18 -82 18h-34v-236z" />
    <glyph glyph-name="germandbls" unicode="&#xdf;" horiz-adv-x="614" 
d="M55 -141v616q0 68 21 116.5t56.5 72.5t71 34t74.5 10q97 0 161.5 -57.5t64.5 -174.5q0 -17 -1 -25q-93 -21 -93 -71q0 -21 17.5 -39.5t40.5 -31.5t50.5 -35.5t42.5 -48.5q20 -37 20 -80q0 -78 -55.5 -116.5t-135.5 -38.5q-92 0 -158 42l37 87q58 -35 116 -35q79 0 79 56
q0 28 -27 51t-66.5 49.5t-57.5 54.5q-20 32 -20 68q0 90 94 130q-1 53 -28 86t-79 33q-48 0 -77 -29.5t-29 -93.5v-630h-119z" />
    <glyph glyph-name="agrave" unicode="&#xe0;" horiz-adv-x="492" 
d="M344 0l-18 45q-60 -55 -136 -55q-68 0 -112.5 42t-44.5 109q0 88 80 129q46 24 122 27l81 3v15q0 79 -91 79q-62 0 -124 -33l-39 77q85 47 183 47q190 0 190 -172v-192q0 -89 9 -121h-100zM316 220l-64 -2q-45 -1 -69 -15q-29 -16 -29 -54q0 -31 19 -48t51 -17
q49 0 92 35v101zM216 531l-97 147h130l58 -147h-91z" />
    <glyph glyph-name="aacute" unicode="&#xe1;" horiz-adv-x="492" 
d="M344 0l-18 45q-60 -55 -136 -55q-68 0 -112.5 42t-44.5 109q0 88 80 129q46 24 122 27l81 3v15q0 79 -91 79q-62 0 -124 -33l-39 77q85 47 183 47q190 0 190 -172v-192q0 -89 9 -121h-100zM316 220l-64 -2q-45 -1 -69 -15q-29 -16 -29 -54q0 -31 19 -48t51 -17
q49 0 92 35v101zM186 531l58 147h130l-97 -147h-91z" />
    <glyph glyph-name="acircumflex" unicode="&#xe2;" horiz-adv-x="492" 
d="M344 0l-18 45q-60 -55 -136 -55q-68 0 -112.5 42t-44.5 109q0 88 80 129q46 24 122 27l81 3v15q0 79 -91 79q-62 0 -124 -33l-39 77q85 47 183 47q190 0 190 -172v-192q0 -89 9 -121h-100zM316 220l-64 -2q-45 -1 -69 -15q-29 -16 -29 -54q0 -31 19 -48t51 -17
q49 0 92 35v101zM98 531l100 147h96l101 -147h-94l-55 79l-54 -79h-94z" />
    <glyph glyph-name="atilde" unicode="&#xe3;" horiz-adv-x="495" 
d="M344 0l-18 45q-60 -55 -136 -55q-68 0 -112.5 42t-44.5 109q0 88 80 129q46 24 122 27l81 3v15q0 79 -91 79q-62 0 -124 -33l-39 77q85 47 183 47q190 0 190 -172v-192q0 -89 9 -121h-100zM316 220l-64 -2q-45 -1 -69 -15q-29 -16 -29 -54q0 -31 19 -48t51 -17
q49 0 92 35v101zM90 547v39q0 39 23 61t59 22q32 0 75.5 -22t55.5 -22q14 0 18 8.5t4 29.5h78v-39q0 -39 -23 -61t-59 -22q-31 0 -75 22t-56 22q-14 0 -18 -8.5t-4 -29.5h-78z" />
    <glyph glyph-name="adieresis" unicode="&#xe4;" horiz-adv-x="492" 
d="M344 0l-18 45q-60 -55 -136 -55q-68 0 -112.5 42t-44.5 109q0 88 80 129q46 24 122 27l81 3v15q0 79 -91 79q-62 0 -124 -33l-39 77q85 47 183 47q190 0 190 -172v-192q0 -89 9 -121h-100zM316 220l-64 -2q-45 -1 -69 -15q-29 -16 -29 -54q0 -31 19 -48t51 -17
q49 0 92 35v101zM151 544q-25 0 -43 18t-18 43q0 26 18 44t43 18q26 0 44 -18t18 -44q0 -25 -18 -43t-44 -18zM342 544q-26 0 -43.5 18t-17.5 43q0 26 17.5 44t43.5 18q25 0 43 -18t18 -44q0 -25 -18 -43t-43 -18z" />
    <glyph glyph-name="aring" unicode="&#xe5;" horiz-adv-x="492" 
d="M344 0l-18 45q-60 -55 -136 -55q-68 0 -112.5 42t-44.5 109q0 88 80 129q46 24 122 27l81 3v15q0 79 -91 79q-62 0 -124 -33l-39 77q85 47 183 47q190 0 190 -172v-192q0 -89 9 -121h-100zM316 220l-64 -2q-45 -1 -69 -15q-29 -16 -29 -54q0 -31 19 -48t51 -17
q49 0 92 35v101zM247 523q-52 0 -84.5 26t-32.5 71t32.5 71t84.5 26t84.5 -26t32.5 -71t-32.5 -71t-84.5 -26zM247 574q18 0 29.5 12.5t11.5 33.5t-11.5 33.5t-29.5 12.5q-19 0 -30 -12t-11 -34t11 -34t30 -12z" />
    <glyph glyph-name="ae" unicode="&#xe6;" horiz-adv-x="778" 
d="M199 -10q-74 0 -120 41t-46 110q0 78 56.5 114t144.5 36h89v24q0 40 -26 59.5t-70 19.5q-65 0 -126 -34l-39 78q85 47 181 47q108 0 147 -71h2q53 71 148 71q94 0 148 -66.5t54 -186.5v-24h-300q1 -58 36 -91t95 -33q63 0 120 32l35 -82q-71 -44 -166 -44q-122 0 -185 78
q-69 -78 -178 -78zM225 84q66 0 114 52q-11 31 -13 72h-84q-88 0 -88 -61q0 -30 19.5 -46.5t51.5 -16.5zM441 291h180q-2 43 -24 73t-65 30q-42 0 -65.5 -29.5t-25.5 -73.5z" />
    <glyph glyph-name="ccedilla" unicode="&#xe7;" horiz-adv-x="448" 
d="M144 -201l17 55q24 -8 47 -8q49 0 49 32q0 15 -12 22.5t-26.5 9t-42.5 2.5l26 86q-80 21 -123.5 84t-43.5 151q0 109 71.5 180.5t178.5 71.5q77 0 127 -32v-101q-51 37 -115 37q-65 0 -102.5 -43t-37.5 -110q0 -72 36 -111t98 -39q51 0 110 32l35 -82q-27 -19 -69 -32
t-78 -13h-1l-13 -40q84 -7 84 -74q0 -40 -35.5 -64.5t-104.5 -24.5q-42 0 -75 11z" />
    <glyph glyph-name="egrave" unicode="&#xe8;" horiz-adv-x="493" 
d="M277 -10q-122 0 -182 70.5t-60 175.5q0 109 57 179t156 70t154.5 -67.5t55.5 -185.5v-28h-303q2 -55 38 -87.5t95 -32.5q63 0 120 32l36 -82q-71 -44 -167 -44zM154 287h183q-2 45 -24.5 76t-66.5 31q-43 0 -67.5 -31t-24.5 -76zM221 531l-97 147h130l58 -147h-91z" />
    <glyph glyph-name="eacute" unicode="&#xe9;" horiz-adv-x="493" 
d="M277 -10q-122 0 -182 70.5t-60 175.5q0 109 57 179t156 70t154.5 -67.5t55.5 -185.5v-28h-303q2 -55 38 -87.5t95 -32.5q63 0 120 32l36 -82q-71 -44 -167 -44zM154 287h183q-2 45 -24.5 76t-66.5 31q-43 0 -67.5 -31t-24.5 -76zM191 531l58 147h130l-97 -147h-91z" />
    <glyph glyph-name="ecircumflex" unicode="&#xea;" horiz-adv-x="493" 
d="M277 -10q-122 0 -182 70.5t-60 175.5q0 109 57 179t156 70t154.5 -67.5t55.5 -185.5v-28h-303q2 -55 38 -87.5t95 -32.5q63 0 120 32l36 -82q-71 -44 -167 -44zM154 287h183q-2 45 -24.5 76t-66.5 31q-43 0 -67.5 -31t-24.5 -76zM103 531l100 147h96l101 -147h-94l-55 79
l-54 -79h-94z" />
    <glyph glyph-name="edieresis" unicode="&#xeb;" horiz-adv-x="493" 
d="M277 -10q-122 0 -182 70.5t-60 175.5q0 109 57 179t156 70t154.5 -67.5t55.5 -185.5v-28h-303q2 -55 38 -87.5t95 -32.5q63 0 120 32l36 -82q-71 -44 -167 -44zM154 287h183q-2 45 -24.5 76t-66.5 31q-43 0 -67.5 -31t-24.5 -76zM156 544q-25 0 -43 18t-18 43q0 26 18 44
t43 18q26 0 44 -18t18 -44q0 -25 -18 -43t-44 -18zM347 544q-25 0 -43 18t-18 43q0 26 17.5 44t43.5 18q25 0 43 -18t18 -44q0 -25 -18 -43t-43 -18z" />
    <glyph glyph-name="igrave" unicode="&#xec;" horiz-adv-x="238" 
d="M59 0v473h120v-473h-120zM89 531l-97 147h130l58 -147h-91z" />
    <glyph glyph-name="iacute" unicode="&#xed;" horiz-adv-x="238" 
d="M59 0v473h120v-473h-120zM59 531l58 147h130l-97 -147h-91z" />
    <glyph glyph-name="icircumflex" unicode="&#xee;" horiz-adv-x="238" 
d="M59 0v473h120v-473h-120zM-29 531l100 147h96l101 -147h-94l-55 79l-54 -79h-94z" />
    <glyph glyph-name="idieresis" unicode="&#xef;" horiz-adv-x="238" 
d="M59 0v473h120v-473h-120zM24 544q-25 0 -43 18t-18 43q0 26 18 44t43 18q26 0 44 -18t18 -44q0 -25 -18 -43t-44 -18zM215 544q-25 0 -43 18t-18 43q0 26 17.5 44t43.5 18q25 0 43 -18t18 -44q0 -25 -18 -43t-43 -18z" />
    <glyph glyph-name="eth" unicode="&#xf0;" horiz-adv-x="553" 
d="M477 654l-91 -41q121 -107 121 -320q0 -157 -66.5 -230t-172.5 -73q-103 0 -168 67.5t-65 173.5q0 110 57.5 178t157.5 68q48 0 89 -20t66 -51h2q-25 108 -114 160l-137 -63l-25 54l86 37q-42 16 -121 18l22 96q131 -4 215 -56l118 56zM272 85q55 0 84 40t29 109
q0 68 -31 108t-85 40q-55 0 -83.5 -41t-28.5 -109t30.5 -107.5t84.5 -39.5z" />
    <glyph glyph-name="ntilde" unicode="&#xf1;" horiz-adv-x="537" 
d="M55 0v473h102l12 -53q83 65 162 65q65 0 108.5 -39.5t43.5 -132.5v-313h-120v276q0 50 -15.5 77.5t-57.5 27.5q-56 0 -116 -50v-331h-119zM101 547v39q0 39 23 61t59 22q32 0 75.5 -22t55.5 -22q14 0 18 8.5t4 29.5h78v-39q0 -39 -23 -61t-59 -22q-31 0 -75 22t-56 22
q-14 0 -18 -8.5t-4 -29.5h-78z" />
    <glyph glyph-name="ograve" unicode="&#xf2;" 
d="M271 -10q-105 0 -170.5 70t-65.5 178q0 107 65.5 177t170.5 70t171 -70t66 -177t-66 -177.5t-171 -70.5zM271 86q55 0 84.5 42t29.5 110t-29.5 109.5t-84.5 41.5t-84.5 -41.5t-29.5 -109.5t29.5 -110t84.5 -42zM238 531l-97 147h130l58 -147h-91z" />
    <glyph glyph-name="oacute" unicode="&#xf3;" 
d="M271 -10q-105 0 -170.5 70t-65.5 178q0 107 65.5 177t170.5 70t171 -70t66 -177t-66 -177.5t-171 -70.5zM271 86q55 0 84.5 42t29.5 110t-29.5 109.5t-84.5 41.5t-84.5 -41.5t-29.5 -109.5t29.5 -110t84.5 -42zM214 531l58 147h130l-97 -147h-91z" />
    <glyph glyph-name="ocircumflex" unicode="&#xf4;" 
d="M271 -10q-105 0 -170.5 70t-65.5 178q0 107 65.5 177t170.5 70t171 -70t66 -177t-66 -177.5t-171 -70.5zM271 86q55 0 84.5 42t29.5 110t-29.5 109.5t-84.5 41.5t-84.5 -41.5t-29.5 -109.5t29.5 -110t84.5 -42zM122 531l100 147h96l101 -147h-94l-55 79l-54 -79h-94z" />
    <glyph glyph-name="otilde" unicode="&#xf5;" 
d="M271 -10q-105 0 -170.5 70t-65.5 178q0 107 65.5 177t170.5 70t171 -70t66 -177t-66 -177.5t-171 -70.5zM271 86q55 0 84.5 42t29.5 110t-29.5 109.5t-84.5 41.5t-84.5 -41.5t-29.5 -109.5t29.5 -110t84.5 -42zM114 547v39q0 39 23 61t59 22q32 0 75.5 -22t55.5 -22
q14 0 18 8.5t4 29.5h78v-39q0 -39 -23 -61t-59 -22q-31 0 -75 22t-56 22q-14 0 -18 -8.5t-4 -29.5h-78z" />
    <glyph glyph-name="odieresis" unicode="&#xf6;" 
d="M271 -10q-105 0 -170.5 70t-65.5 178q0 107 65.5 177t170.5 70t171 -70t66 -177t-66 -177.5t-171 -70.5zM271 86q55 0 84.5 42t29.5 110t-29.5 109.5t-84.5 41.5t-84.5 -41.5t-29.5 -109.5t29.5 -110t84.5 -42zM175 544q-25 0 -43 18t-18 43q0 26 18 44t43 18
q26 0 44 -18t18 -44q0 -25 -18 -43t-44 -18zM366 544q-26 0 -43.5 18t-17.5 43q0 26 17.5 44t43.5 18q25 0 43 -18t18 -44q0 -25 -18 -43t-43 -18z" />
    <glyph glyph-name="divide" unicode="&#xf7;" horiz-adv-x="550" 
d="M278 360q-25 0 -43 18t-18 44t18 44t43 18q26 0 43.5 -18t17.5 -44t-17.5 -44t-43.5 -18zM40 201v99h471v-99h-471zM278 16q-25 0 -43 18t-18 44t18 44t43 18q26 0 43.5 -18t17.5 -44t-17.5 -44t-43.5 -18z" />
    <glyph glyph-name="oslash" unicode="&#xf8;" 
d="M106 -27l-50 39l41 52q-62 70 -62 174q0 107 65.5 177t170.5 70q68 0 124 -35l37 48l51 -39l-38 -48q63 -71 63 -173q0 -107 -66 -177.5t-171 -70.5q-69 0 -125 35zM208 105q26 -21 63 -21q55 0 86 43t31 111q0 44 -14 80zM169 158l165 212q-27 21 -63 21q-55 0 -86 -43
t-31 -110q0 -47 15 -80z" />
    <glyph glyph-name="ugrave" unicode="&#xf9;" horiz-adv-x="535" 
d="M213 -10q-42 0 -82 21.5t-60 71.5q-16 38 -16 99v291h119v-279q0 -38 10 -59q18 -43 71 -43q59 0 97 42v339h120v-356q0 -88 8 -117h-102l-18 49q-66 -59 -147 -59zM233 531l-97 147h130l58 -147h-91z" />
    <glyph glyph-name="uacute" unicode="&#xfa;" horiz-adv-x="535" 
d="M213 -10q-42 0 -82 21.5t-60 71.5q-16 38 -16 99v291h119v-279q0 -38 10 -59q18 -43 71 -43q59 0 97 42v339h120v-356q0 -88 8 -117h-102l-18 49q-66 -59 -147 -59zM207 531l58 147h130l-97 -147h-91z" />
    <glyph glyph-name="ucircumflex" unicode="&#xfb;" horiz-adv-x="535" 
d="M213 -10q-42 0 -82 21.5t-60 71.5q-16 38 -16 99v291h119v-279q0 -38 10 -59q18 -43 71 -43q59 0 97 42v339h120v-356q0 -88 8 -117h-102l-18 49q-66 -59 -147 -59zM118 531l100 147h96l101 -147h-94l-55 79l-54 -79h-94z" />
    <glyph glyph-name="udieresis" unicode="&#xfc;" horiz-adv-x="535" 
d="M213 -10q-42 0 -82 21.5t-60 71.5q-16 38 -16 99v291h119v-279q0 -38 10 -59q18 -43 71 -43q59 0 97 42v339h120v-356q0 -88 8 -117h-102l-18 49q-66 -59 -147 -59zM171 544q-25 0 -43 18t-18 43q0 26 18 44t43 18q26 0 44 -18t18 -44q0 -25 -18 -43t-44 -18zM362 544
q-26 0 -43.5 18t-17.5 43q0 26 17.5 44t43.5 18q25 0 43 -18t18 -44q0 -25 -18 -43t-43 -18z" />
    <glyph glyph-name="yacute" unicode="&#xfd;" horiz-adv-x="518" 
d="M-12 -215l30 92q36 -18 71 -18q42 0 73.5 33t58.5 111l-213 470h124l143 -336h2l115 336h121l-181 -488q-27 -71 -55.5 -117.5t-60 -68t-58.5 -29t-64 -7.5q-56 0 -106 22zM207 531l58 147h130l-97 -147h-91z" />
    <glyph glyph-name="thorn" unicode="&#xfe;" horiz-adv-x="533" 
d="M61 -237v945h119v-231q32 8 75 8q116 0 180 -65.5t64 -175.5q0 -111 -67.5 -182.5t-180.5 -71.5q-35 0 -71 11v-238h-119zM180 101q28 -12 64 -12q64 0 98 40.5t34 110.5q0 72 -37.5 109.5t-101.5 37.5q-31 0 -57 -9v-277z" />
    <glyph glyph-name="ydieresis" unicode="&#xff;" horiz-adv-x="518" 
d="M-12 -215l30 92q36 -18 71 -18q42 0 73.5 33t58.5 111l-213 470h124l143 -336h2l115 336h121l-181 -488q-27 -71 -55.5 -117.5t-60 -68t-58.5 -29t-64 -7.5q-56 0 -106 22zM172 544q-25 0 -43 18t-18 43q0 26 18 44t43 18q26 0 44 -18t18 -44q0 -25 -18 -43t-44 -18z
M363 544q-25 0 -43 18t-18 43q0 26 17.5 44t43.5 18q25 0 43 -18t18 -44q0 -25 -18 -43t-43 -18z" />
    <glyph glyph-name="Amacron" unicode="&#x100;" horiz-adv-x="628" 
d="M8 0l255 662h92l264 -662h-127l-64 165h-235l-62 -165h-123zM228 263h163l-46 131q-21 59 -33 102h-2q-7 -26 -34 -103zM167 704v91h285v-91h-285z" />
    <glyph glyph-name="amacron" unicode="&#x101;" horiz-adv-x="492" 
d="M344 0l-18 45q-60 -55 -136 -55q-68 0 -112.5 42t-44.5 109q0 88 80 129q46 24 122 27l81 3v15q0 79 -91 79q-62 0 -124 -33l-39 77q85 47 183 47q190 0 190 -172v-192q0 -89 9 -121h-100zM316 220l-64 -2q-45 -1 -69 -15q-29 -16 -29 -54q0 -31 19 -48t51 -17
q49 0 92 35v101zM104 569v90h285v-90h-285z" />
    <glyph glyph-name="Abreve" unicode="&#x102;" horiz-adv-x="628" 
d="M8 0l255 662h92l264 -662h-127l-64 165h-235l-62 -165h-123zM228 263h163l-46 131q-21 59 -33 102h-2q-7 -26 -34 -103zM374 833h82q-4 -65 -44 -102.5t-103 -37.5t-102.5 37.5t-43.5 102.5h83q3 -30 19.5 -48t44.5 -18t44.5 18t19.5 48z" />
    <glyph glyph-name="abreve" unicode="&#x103;" horiz-adv-x="492" 
d="M344 0l-18 45q-60 -55 -136 -55q-68 0 -112.5 42t-44.5 109q0 88 80 129q46 24 122 27l81 3v15q0 79 -91 79q-62 0 -124 -33l-39 77q85 47 183 47q190 0 190 -172v-192q0 -89 9 -121h-100zM316 220l-64 -2q-45 -1 -69 -15q-29 -16 -29 -54q0 -31 19 -48t51 -17
q49 0 92 35v101zM311 680h82q-4 -65 -43.5 -102t-103.5 -37q-63 0 -102.5 37t-43.5 102h83q3 -30 19.5 -47.5t44.5 -17.5t44.5 17.5t19.5 47.5z" />
    <glyph glyph-name="Aogonek" unicode="&#x104;" horiz-adv-x="628" 
d="M355 662l264 -662q-56 -16 -88.5 -46.5t-32.5 -62.5q0 -35 34 -35q16 0 37 6l13 -64q-40 -12 -79 -12q-49 0 -76.5 23t-27.5 62q0 69 92 132l-63 162h-235l-62 -165h-123l255 662h92zM228 263h163l-46 131q-13 37 -34 102h-1q-7 -26 -34 -103z" />
    <glyph glyph-name="aogonek" unicode="&#x105;" horiz-adv-x="492" 
d="M444 -1q-97 -47 -97 -108q0 -35 35 -35q15 0 36 6l14 -64q-42 -12 -79 -12q-50 0 -77.5 23t-27.5 62q0 70 94 133l-16 41q-60 -55 -136 -55q-68 0 -112.5 42t-44.5 109q0 88 80 129q46 24 122 27l81 3v15q0 79 -91 79q-62 0 -124 -33l-39 77q85 47 183 47q190 0 190 -172
v-196q0 -86 9 -118zM224 84q49 0 92 35v101l-64 -2q-45 -1 -69 -15q-29 -16 -29 -54q0 -31 19 -48t51 -17z" />
    <glyph glyph-name="Cacute" unicode="&#x106;" horiz-adv-x="627" 
d="M561 137l33 -95q-95 -52 -209 -52q-158 0 -245.5 91.5t-87.5 240.5q0 146 96 244.5t252 98.5q100 0 173 -32v-112q-81 43 -170 43q-106 0 -164.5 -67.5t-58.5 -170.5q0 -105 59.5 -170t159.5 -65q82 0 162 46zM291 696l58 147h130l-97 -147h-91z" />
    <glyph glyph-name="cacute" unicode="&#x107;" horiz-adv-x="448" 
d="M274 -10q-112 0 -175.5 68.5t-63.5 174.5q0 109 71.5 180.5t178.5 71.5q77 0 127 -32v-101q-51 37 -115 37q-65 0 -102.5 -43t-37.5 -110q0 -72 36 -111t98 -39q51 0 110 32l35 -82q-67 -46 -162 -46zM193 531l58 147h130l-97 -147h-91z" />
    <glyph glyph-name="Ccircumflex" unicode="&#x108;" horiz-adv-x="627" 
d="M561 137l33 -95q-95 -52 -209 -52q-158 0 -245.5 91.5t-87.5 240.5q0 146 96 244.5t252 98.5q100 0 173 -32v-112q-81 43 -170 43q-106 0 -164.5 -67.5t-58.5 -170.5q0 -105 59.5 -170t159.5 -65q82 0 162 46zM205 696l100 147h96l101 -147h-94l-55 79l-54 -79h-94z" />
    <glyph glyph-name="ccircumflex" unicode="&#x109;" horiz-adv-x="448" 
d="M274 -10q-112 0 -175.5 68.5t-63.5 174.5q0 109 71.5 180.5t178.5 71.5q77 0 127 -32v-101q-51 37 -115 37q-65 0 -102.5 -43t-37.5 -110q0 -72 36 -111t98 -39q51 0 110 32l35 -82q-67 -46 -162 -46zM105 531l100 147h96l101 -147h-94l-55 79l-54 -79h-94z" />
    <glyph glyph-name="Cdotaccent" unicode="&#x10a;" horiz-adv-x="627" 
d="M561 137l33 -95q-95 -52 -209 -52q-158 0 -245.5 91.5t-87.5 240.5q0 146 96 244.5t252 98.5q100 0 173 -32v-112q-81 43 -170 43q-106 0 -164.5 -67.5t-58.5 -170.5q0 -105 59.5 -170t159.5 -65q82 0 162 46zM354 701q-31 0 -52.5 20.5t-21.5 50.5t21.5 51t52.5 21
t52 -20.5t21 -51.5q0 -30 -21 -50.5t-52 -20.5z" />
    <glyph glyph-name="cdotaccent" unicode="&#x10b;" horiz-adv-x="448" 
d="M274 -10q-112 0 -175.5 68.5t-63.5 174.5q0 109 71.5 180.5t178.5 71.5q77 0 127 -32v-101q-51 37 -115 37q-65 0 -102.5 -43t-37.5 -110q0 -72 36 -111t98 -39q51 0 110 32l35 -82q-67 -46 -162 -46zM254 550q-31 0 -52.5 20.5t-21.5 50.5t21.5 51t52.5 21t52 -20.5
t21 -51.5q0 -30 -21 -50.5t-52 -20.5z" />
    <glyph glyph-name="Ccaron" unicode="&#x10c;" horiz-adv-x="627" 
d="M561 137l33 -95q-95 -52 -209 -52q-158 0 -245.5 91.5t-87.5 240.5q0 146 96 244.5t252 98.5q100 0 173 -32v-112q-81 43 -170 43q-106 0 -164.5 -67.5t-58.5 -170.5q0 -105 59.5 -170t159.5 -65q82 0 162 46zM306 696l-101 147h95l55 -79l54 79h93l-100 -147h-96z" />
    <glyph glyph-name="ccaron" unicode="&#x10d;" horiz-adv-x="448" 
d="M274 -10q-112 0 -175.5 68.5t-63.5 174.5q0 109 71.5 180.5t178.5 71.5q77 0 127 -32v-101q-51 37 -115 37q-65 0 -102.5 -43t-37.5 -110q0 -72 36 -111t98 -39q51 0 110 32l35 -82q-67 -46 -162 -46zM206 531l-101 147h95l55 -78l54 78h93l-100 -147h-96z" />
    <glyph glyph-name="Dcaron" unicode="&#x10e;" horiz-adv-x="696" 
d="M80 0v659h205q172 0 266 -88t94 -237q0 -151 -100 -242.5t-271 -91.5h-194zM200 98h76q123 0 181.5 66t58.5 168q0 106 -62 167.5t-180 61.5h-74v-463zM253 696l-101 147h95l55 -79l54 79h93l-100 -147h-96z" />
    <glyph glyph-name="dcaron" unicode="&#x10f;" horiz-adv-x="545" 
d="M304 -10q-119 0 -194 64t-75 178q0 112 73 182.5t186 70.5q36 0 64 -6v229h120v-683q-72 -35 -174 -35zM302 89q35 0 56 8v283q-32 7 -57 7q-64 0 -104 -41t-40 -112q0 -68 39.5 -106.5t105.5 -38.5zM552 497l-45 75q40 21 40 66q0 32 -19 70h104q23 -39 23 -79
q0 -92 -103 -132z" />
    <glyph glyph-name="Dcroat" unicode="&#x110;" horiz-adv-x="696" 
d="M80 0v285h-72v98h72v276h205q172 0 266 -88t94 -237q0 -151 -100 -242.5t-271 -91.5h-194zM200 98h76q123 0 181.5 66t58.5 168q0 106 -62 167.5t-180 61.5h-74v-178h151v-98h-151v-187z" />
    <glyph glyph-name="dcroat" unicode="&#x111;" horiz-adv-x="545" 
d="M292 -10q-111 0 -184 64t-73 179q0 112 73.5 181.5t188.5 69.5q36 0 61 -5v72h-134v88h134v69h120v-69h56v-88h-56v-523q-74 -38 -186 -38zM300 89q32 0 58 8v286q-25 7 -57 7q-66 0 -106.5 -40t-40.5 -111q0 -66 40.5 -108t105.5 -42z" />
    <glyph glyph-name="Emacron" unicode="&#x112;" horiz-adv-x="502" 
d="M80 0v659h364l-32 -98h-212v-176h211v-98h-211v-189h245v-98h-365zM114 704v91h285v-91h-285z" />
    <glyph glyph-name="emacron" unicode="&#x113;" horiz-adv-x="493" 
d="M277 -10q-122 0 -182 70.5t-60 175.5q0 109 57 179t156 70t154.5 -67.5t55.5 -185.5v-28h-303q2 -55 38 -87.5t95 -32.5q63 0 120 32l36 -82q-71 -44 -167 -44zM154 287h183q-2 45 -24.5 76t-66.5 31q-43 0 -67.5 -31t-24.5 -76zM109 569v90h285v-90h-285z" />
    <glyph glyph-name="Ebreve" unicode="&#x114;" horiz-adv-x="502" 
d="M80 0v659h364l-32 -98h-212v-176h211v-98h-211v-189h245v-98h-365zM317 833h82q-4 -65 -44 -102.5t-103 -37.5t-102.5 37.5t-43.5 102.5h83q3 -30 19.5 -48t44.5 -18t44.5 18t19.5 48z" />
    <glyph glyph-name="ebreve" unicode="&#x115;" horiz-adv-x="493" 
d="M277 -10q-122 0 -182 70.5t-60 175.5q0 109 57 179t156 70t154.5 -67.5t55.5 -185.5v-28h-303q2 -55 38 -87.5t95 -32.5q63 0 120 32l36 -82q-71 -44 -167 -44zM154 287h183q-2 45 -24.5 76t-66.5 31q-43 0 -67.5 -31t-24.5 -76zM316 680h82q-4 -65 -43.5 -102
t-103.5 -37q-63 0 -102.5 37t-43.5 102h83q3 -30 19.5 -47.5t44.5 -17.5t44.5 17.5t19.5 47.5z" />
    <glyph glyph-name="Edotaccent" unicode="&#x116;" horiz-adv-x="502" 
d="M80 0v659h364l-32 -98h-212v-176h211v-98h-211v-189h245v-98h-365zM252 701q-31 0 -52.5 20.5t-21.5 50.5t21.5 51t52.5 21t52 -20.5t21 -51.5q0 -30 -21 -50.5t-52 -20.5z" />
    <glyph glyph-name="edotaccent" unicode="&#x117;" horiz-adv-x="493" 
d="M277 -10q-122 0 -182 70.5t-60 175.5q0 109 57 179t156 70t154.5 -67.5t55.5 -185.5v-28h-303q2 -55 38 -87.5t95 -32.5q63 0 120 32l36 -82q-71 -44 -167 -44zM154 287h183q-2 45 -24.5 76t-66.5 31q-43 0 -67.5 -31t-24.5 -76zM252 550q-31 0 -52.5 20.5t-21.5 50.5
t21.5 51t52.5 21t52 -20.5t21 -51.5q0 -30 -21 -50.5t-52 -20.5z" />
    <glyph glyph-name="Eogonek" unicode="&#x118;" horiz-adv-x="502" 
d="M80 0v659h364l-32 -98h-212v-176h211v-98h-211v-189h245v-98h-20q-46 -22 -73.5 -50.5t-27.5 -58.5q0 -35 35 -35q15 0 37 6l13 -64q-42 -12 -79 -12q-50 0 -77.5 23t-27.5 62q0 68 88 129h-233z" />
    <glyph glyph-name="eogonek" unicode="&#x119;" horiz-adv-x="493" 
d="M205 -129q0 66 73 118v2q-4 -1 -14 -1q-115 4 -172 73.5t-57 172.5q0 109 57 179t156 70t154.5 -67.5t55.5 -185.5v-28h-303q2 -55 38 -87.5t95 -32.5q63 0 120 32l36 -82q-57 -30 -99 -67.5t-42 -75.5q0 -35 35 -35q16 0 37 6l13 -64q-41 -12 -79 -12q-49 0 -76.5 23
t-27.5 62zM154 287h183q-2 45 -24.5 76t-66.5 31q-43 0 -67.5 -31t-24.5 -76z" />
    <glyph glyph-name="Ecaron" unicode="&#x11a;" horiz-adv-x="502" 
d="M80 0v659h364l-32 -98h-212v-176h211v-98h-211v-189h245v-98h-365zM209 696l-101 147h95l55 -79l54 79h93l-100 -147h-96z" />
    <glyph glyph-name="ecaron" unicode="&#x11b;" horiz-adv-x="493" 
d="M277 -10q-122 0 -182 70.5t-60 175.5q0 109 57 179t156 70t154.5 -67.5t55.5 -185.5v-28h-303q2 -55 38 -87.5t95 -32.5q63 0 120 32l36 -82q-71 -44 -167 -44zM154 287h183q-2 45 -24.5 76t-66.5 31q-43 0 -67.5 -31t-24.5 -76zM204 531l-101 147h95l55 -78l54 78h93
l-100 -147h-96z" />
    <glyph glyph-name="Gcircumflex" unicode="&#x11c;" horiz-adv-x="708" 
d="M636 320v-277q-106 -53 -240 -53q-159 0 -251.5 91.5t-92.5 236.5q0 152 100 249.5t262 97.5q99 0 191 -33v-112q-88 44 -182 44q-116 0 -179.5 -65t-63.5 -173t60 -171.5t165 -63.5q67 0 110 20v209h121zM227 696l100 147h96l101 -147h-94l-55 79l-54 -79h-94z" />
    <glyph glyph-name="gcircumflex" unicode="&#x11d;" horiz-adv-x="504" 
d="M234 -237q-103 0 -161.5 38t-58.5 101q0 38 23.5 68t61.5 46q-31 19 -31 59q0 50 57 89q-37 22 -58 61t-21 86q0 71 51 122.5t142 51.5q58 0 94 -21q6 -2 12 2q41 41 114 41q18 0 32 -2l-24 -86q-18 5 -35 5q-22 0 -35 -8q42 -45 42 -112q0 -79 -54.5 -127t-141.5 -48
q-32 0 -58 8q-12 -20 -12 -35q0 -20 23 -31t57.5 -14.5t75 -11.5t75 -19t57.5 -38t23 -69q0 -68 -66 -112t-184 -44zM250 -153q54 0 87 16.5t33 42.5q0 30 -36.5 43.5t-95 20.5t-79.5 15q-38 -28 -38 -62q0 -35 35 -55.5t94 -20.5zM242 219q37 0 60.5 23t23.5 64
q0 37 -23.5 63t-61.5 26q-36 0 -59 -23t-23 -65q0 -37 22.5 -62.5t60.5 -25.5zM95 531l100 147h96l101 -147h-94l-55 79l-54 -79h-94z" />
    <glyph glyph-name="Gbreve" unicode="&#x11e;" horiz-adv-x="708" 
d="M636 320v-277q-106 -53 -240 -53q-159 0 -251.5 91.5t-92.5 236.5q0 152 100 249.5t262 97.5q99 0 191 -33v-112q-88 44 -182 44q-116 0 -179.5 -65t-63.5 -173t60 -171.5t165 -63.5q67 0 110 20v209h121zM433 833h82q-4 -65 -44 -102.5t-103 -37.5t-102.5 37.5
t-43.5 102.5h83q3 -30 19.5 -48t44.5 -18t44.5 18t19.5 48z" />
    <glyph glyph-name="gbreve" unicode="&#x11f;" horiz-adv-x="504" 
d="M234 -237q-103 0 -161.5 38t-58.5 101q0 38 23.5 68t61.5 46q-31 19 -31 59q0 50 57 89q-37 22 -58 61t-21 86q0 71 51 122.5t142 51.5q58 0 94 -21q6 -2 12 2q41 41 114 41q18 0 32 -2l-24 -86q-18 5 -35 5q-22 0 -35 -8q42 -45 42 -112q0 -79 -54.5 -127t-141.5 -48
q-32 0 -58 8q-12 -20 -12 -35q0 -20 23 -31t57.5 -14.5t75 -11.5t75 -19t57.5 -38t23 -69q0 -68 -66 -112t-184 -44zM250 -153q54 0 87 16.5t33 42.5q0 30 -36.5 43.5t-95 20.5t-79.5 15q-38 -28 -38 -62q0 -35 35 -55.5t94 -20.5zM242 219q37 0 60.5 23t23.5 64
q0 37 -23.5 63t-61.5 26q-36 0 -59 -23t-23 -65q0 -37 22.5 -62.5t60.5 -25.5zM308 680h82q-4 -65 -43.5 -102t-103.5 -37q-63 0 -102.5 37t-43.5 102h83q3 -30 19.5 -47.5t44.5 -17.5t44.5 17.5t19.5 47.5z" />
    <glyph glyph-name="Gdotaccent" unicode="&#x120;" horiz-adv-x="708" 
d="M636 320v-277q-106 -53 -240 -53q-159 0 -251.5 91.5t-92.5 236.5q0 152 100 249.5t262 97.5q99 0 191 -33v-112q-88 44 -182 44q-116 0 -179.5 -65t-63.5 -173t60 -171.5t165 -63.5q67 0 110 20v209h121zM375 701q-31 0 -52.5 20.5t-21.5 50.5t21.5 51t52.5 21t52 -20.5
t21 -51.5q0 -30 -21 -50.5t-52 -20.5z" />
    <glyph glyph-name="gdotaccent" unicode="&#x121;" horiz-adv-x="504" 
d="M234 -237q-103 0 -161.5 38t-58.5 101q0 38 23.5 68t61.5 46q-31 19 -31 59q0 50 57 89q-37 22 -58 61t-21 86q0 71 51 122.5t142 51.5q58 0 94 -21q6 -2 12 2q41 41 114 41q18 0 32 -2l-24 -86q-18 5 -35 5q-22 0 -35 -8q42 -45 42 -112q0 -79 -54.5 -127t-141.5 -48
q-32 0 -58 8q-12 -20 -12 -35q0 -20 23 -31t57.5 -14.5t75 -11.5t75 -19t57.5 -38t23 -69q0 -68 -66 -112t-184 -44zM250 -153q54 0 87 16.5t33 42.5q0 30 -36.5 43.5t-95 20.5t-79.5 15q-38 -28 -38 -62q0 -35 35 -55.5t94 -20.5zM242 219q37 0 60.5 23t23.5 64
q0 37 -23.5 63t-61.5 26q-36 0 -59 -23t-23 -65q0 -37 22.5 -62.5t60.5 -25.5zM244 550q-31 0 -52.5 20.5t-21.5 50.5t21.5 51t52.5 21t52 -20.5t21 -51.5q0 -30 -21 -50.5t-52 -20.5z" />
    <glyph glyph-name="Gcommaaccent" unicode="&#x122;" horiz-adv-x="705" 
d="M298 -237l-29 72q74 15 74 61q0 25 -20 52h102q23 -34 23 -72q0 -95 -150 -113zM633 320v-277q-106 -53 -240 -53q-159 0 -251.5 91.5t-92.5 236.5q0 152 100 249.5t262 97.5q99 0 191 -33v-112q-88 44 -182 44q-116 0 -179.5 -65t-63.5 -173t60 -171.5t165 -63.5
q67 0 110 20v209h121z" />
    <glyph glyph-name="gcommaaccent" unicode="&#x123;" horiz-adv-x="504" 
d="M291 531h-102q-23 34 -23 72q0 95 150 113l28 -72q-73 -15 -73 -61q0 -25 20 -52zM234 -237q-103 0 -161.5 38t-58.5 101q0 38 23.5 68t61.5 46q-31 19 -31 59q0 50 57 89q-37 22 -58 61t-21 86q0 71 51 122.5t142 51.5q58 0 94 -21q6 -2 12 2q41 41 114 41q18 0 32 -2
l-24 -86q-18 5 -35 5q-22 0 -35 -8q42 -45 42 -112q0 -79 -54.5 -127t-141.5 -48q-32 0 -58 8q-12 -20 -12 -35q0 -20 23 -31t57.5 -14.5t75 -11.5t75 -19t57.5 -38t23 -69q0 -68 -66 -112t-184 -44zM250 -153q54 0 87 16.5t33 42.5q0 30 -36.5 43.5t-95 20.5t-79.5 15
q-38 -28 -38 -62q0 -35 35 -55.5t94 -20.5zM242 219q37 0 60.5 23t23.5 64q0 37 -23.5 63t-61.5 26q-36 0 -59 -23t-23 -65q0 -37 22.5 -62.5t60.5 -25.5z" />
    <glyph glyph-name="Hcircumflex" unicode="&#x124;" horiz-adv-x="721" 
d="M80 0v659h120v-272h320v272h121v-659h-121v285h-320v-285h-120zM213 696l100 147h96l101 -147h-94l-55 79l-54 -79h-94z" />
    <glyph glyph-name="hcircumflex" unicode="&#x125;" horiz-adv-x="543" 
d="M62 0v708h119v-287q76 64 157 64q65 0 108 -39.5t43 -132.5v-313h-119v276q0 50 -15.5 77.5t-57.5 27.5q-56 0 -116 -50v-331h-119zM-27 726l100 147h96l101 -147h-94l-55 79l-54 -79h-94z" />
    <glyph glyph-name="Hbar" unicode="&#x126;" horiz-adv-x="721" 
d="M80 0v477h-66v92h66v90h120v-90h320v90h121v-90h65v-92h-65v-477h-121v285h-320v-285h-120zM200 387h320v90h-320v-90z" />
    <glyph glyph-name="hbar" unicode="&#x127;" horiz-adv-x="537" 
d="M55 0v544h-57v91h57v73h119v-73h126v-91h-126v-123q78 64 157 64q65 0 108.5 -39.5t43.5 -132.5v-313h-120v276q0 50 -15.5 77.5t-57.5 27.5q-56 0 -116 -50v-331h-119z" />
    <glyph glyph-name="Itilde" unicode="&#x128;" horiz-adv-x="280" 
d="M80 0v659h120v-659h-120zM-17 720v39q0 39 23 61t59 22q32 0 75.5 -22t55.5 -22q14 0 18 8.5t4 29.5h78v-40q0 -39 -23 -60.5t-59 -21.5q-31 0 -75 21.5t-56 21.5q-14 0 -18 -8.5t-4 -28.5h-78z" />
    <glyph glyph-name="itilde" unicode="&#x129;" horiz-adv-x="238" 
d="M59 0v473h120v-473h-120zM-37 547v39q0 39 23 61t59 22q32 0 75.5 -22t55.5 -22q14 0 18 8.5t4 29.5h78v-39q0 -39 -23 -61t-59 -22q-31 0 -75 22t-56 22q-14 0 -18 -8.5t-4 -29.5h-78z" />
    <glyph glyph-name="Imacron" unicode="&#x12a;" horiz-adv-x="280" 
d="M80 0v659h120v-659h-120zM-4 704v91h285v-91h-285z" />
    <glyph glyph-name="imacron" unicode="&#x12b;" horiz-adv-x="238" 
d="M59 0v473h120v-473h-120zM-23 569v90h285v-90h-285z" />
    <glyph glyph-name="Ibreve" unicode="&#x12c;" horiz-adv-x="280" 
d="M80 0v659h120v-659h-120zM203 833h82q-4 -65 -44 -102.5t-103 -37.5t-102.5 37.5t-43.5 102.5h83q3 -30 19.5 -48t44.5 -18t44.5 18t19.5 48z" />
    <glyph glyph-name="ibreve" unicode="&#x12d;" horiz-adv-x="238" 
d="M59 0v473h120v-473h-120zM184 680h82q-4 -65 -43.5 -102t-103.5 -37q-63 0 -102.5 37t-43.5 102h83q3 -30 19.5 -47.5t44.5 -17.5t44.5 17.5t19.5 47.5z" />
    <glyph glyph-name="Iogonek" unicode="&#x12e;" horiz-adv-x="280" 
d="M80 3v656h120v-659q-87 -45 -87 -107q0 -37 36 -37q15 0 36 6l13 -64q-39 -12 -76 -12q-51 0 -79 24t-28 68q0 69 65 125z" />
    <glyph glyph-name="iogonek" unicode="&#x12f;" horiz-adv-x="238" 
d="M-6 -122q0 67 65 125v470h120v-473q-41 -22 -63.5 -50t-22.5 -57q0 -37 35 -37q16 0 37 6l13 -64q-39 -12 -77 -12q-51 0 -79 24t-28 68zM119 550q-31 0 -52 20.5t-21 50.5t21 51t52 21q32 0 53 -20.5t21 -51.5q0 -29 -21.5 -50t-52.5 -21z" />
    <glyph glyph-name="Idotaccent" unicode="&#x130;" horiz-adv-x="280" 
d="M80 0v659h120v-659h-120zM141 701q-31 0 -52.5 20.5t-21.5 50.5t21.5 51t52.5 21t52 -20.5t21 -51.5q0 -30 -21 -50.5t-52 -20.5z" />
    <glyph glyph-name="dotlessi" unicode="&#x131;" horiz-adv-x="238" 
d="M59 0v473h120v-473h-120z" />
    <glyph glyph-name="IJ" unicode="&#x132;" horiz-adv-x="606" 
d="M80 0v659h120v-659h-120zM246 -169l24 97q24 -12 60 -12q46 0 61 25t15 72v646h120v-662q0 -83 -46 -132.5t-140 -49.5q-52 0 -94 16z" />
    <glyph glyph-name="ij" unicode="&#x133;" horiz-adv-x="490" 
d="M59 0v473h120v-473h-120zM119 550q-31 0 -52 20.5t-21 50.5t21 51t52 21q32 0 53 -20.5t21 -51.5q0 -29 -21.5 -50t-52.5 -21zM158 -220l22 98q23 -11 51 -11q33 0 47 19t14 62v525h120v-543q0 -79 -43.5 -123t-119.5 -44q-52 0 -91 17zM352 550q-31 0 -52 20.5t-21 50.5
t21 51t52 21q32 0 53 -20.5t21 -51.5q0 -29 -21.5 -50t-52.5 -21z" />
    <glyph glyph-name="Jcircumflex" unicode="&#x134;" horiz-adv-x="329" 
d="M-31 -169l24 97q24 -12 60 -12q46 0 61 25t15 72v646h120v-662q0 -83 -46 -132.5t-140 -49.5q-52 0 -94 16zM38 696l100 147h96l101 -147h-94l-55 79l-54 -79h-94z" />
    <glyph glyph-name="jcircumflex" unicode="&#x135;" horiz-adv-x="252" 
d="M-61 -215l22 85q34 -12 53 -12q35 0 47 22.5t12 66.5v526h120v-537q0 -86 -45.5 -129t-107.5 -43q-53 0 -101 21zM-22 531l99 147h96l101 -147h-94l-55 79l-54 -79h-93z" />
    <glyph glyph-name="Kcommaaccent" unicode="&#x136;" horiz-adv-x="599" 
d="M80 0v659h120v-281h3l225 281h140l-265 -320l280 -339h-147l-233 289h-3v-289h-120zM212 -237l-29 72q74 15 74 61q0 25 -20 52h102q23 -34 23 -72q0 -95 -150 -113z" />
    <glyph glyph-name="kcommaaccent" unicode="&#x137;" horiz-adv-x="493" 
d="M61 0v708h119v-399h2l155 164h136l-194 -206l210 -267h-139l-168 219h-2v-219h-119zM165 -237l-29 72q74 15 74 61q0 25 -20 52h102q23 -34 23 -72q0 -95 -150 -113z" />
    <glyph glyph-name="Lacute" unicode="&#x139;" horiz-adv-x="452" 
d="M80 0v659h120v-561h234v-98h-354zM86 696l58 147h130l-97 -147h-91z" />
    <glyph glyph-name="lacute" unicode="&#x13a;" horiz-adv-x="285" 
d="M64 732l50 127h125l-83 -127h-92zM61 107v601h119v-569q0 -43 35 -43q15 0 30 6l23 -92q-40 -17 -88 -17q-119 0 -119 114z" />
    <glyph glyph-name="Lcommaaccent" unicode="&#x13b;" horiz-adv-x="452" 
d="M80 0v659h120v-561h234v-98h-354zM170 -237l-29 72q74 15 74 61q0 25 -20 52h102q23 -34 23 -72q0 -95 -150 -113z" />
    <glyph glyph-name="lcommaaccent" unicode="&#x13c;" horiz-adv-x="285" 
d="M56 107v601h119v-569q0 -43 35 -43q15 0 30 6l23 -92q-40 -17 -88 -17q-119 0 -119 114zM76 -237l-29 72q74 15 74 61q0 25 -20 52h102q23 -34 23 -72q0 -95 -150 -113z" />
    <glyph glyph-name="Lcaron" unicode="&#x13d;" horiz-adv-x="452" 
d="M80 0v659h120v-561h234v-98h-354zM303 497l-45 75q40 21 40 66q0 32 -19 70h104q23 -39 23 -79q0 -92 -103 -132z" />
    <glyph glyph-name="lcaron" unicode="&#x13e;" horiz-adv-x="285" 
d="M61 107v601h119v-569q0 -43 35 -43q15 0 30 6l23 -92q-40 -17 -88 -17q-119 0 -119 114zM257 497l-45 75q40 21 40 66q0 32 -19 70h104q23 -39 23 -79q0 -92 -103 -132z" />
    <glyph glyph-name="Ldot" unicode="&#x13f;" horiz-adv-x="452" 
d="M80 0v659h120v-561h234v-98h-354zM348 283q-28 0 -47.5 20t-19.5 49t19.5 48.5t47.5 19.5q27 0 46.5 -19.5t19.5 -48.5t-19.5 -49t-46.5 -20z" />
    <glyph glyph-name="ldot" unicode="&#x140;" horiz-adv-x="332" 
d="M61 107v601h119v-569q0 -43 35 -43q15 0 30 6l23 -92q-40 -17 -88 -17q-119 0 -119 114zM283 182q-28 0 -47.5 20t-19.5 49t19.5 48.5t47.5 19.5q27 0 46.5 -19.5t19.5 -48.5t-19.5 -49t-46.5 -20z" />
    <glyph glyph-name="Lslash" unicode="&#x141;" horiz-adv-x="453" 
d="M20 184v111l60 36v328h121v-258l138 83v-111l-138 -83v-192h234v-98h-355v219z" />
    <glyph glyph-name="lslash" unicode="&#x142;" horiz-adv-x="313" 
d="M26 224v112l62 38v334h120v-263l69 39v-111l-69 -41v-193q0 -24 8.5 -33t26.5 -9q15 0 29 6l24 -93q-40 -17 -89 -17q-119 0 -119 114v154z" />
    <glyph glyph-name="Nacute" unicode="&#x143;" horiz-adv-x="754" 
d="M80 0v659h119l281 -360q45 -59 74 -102h2q-2 35 -2 111v351h121v-659h-110l-291 375q-25 31 -74 101h-2q2 -27 2 -102v-374h-120zM319 696l58 147h130l-97 -147h-91z" />
    <glyph glyph-name="nacute" unicode="&#x144;" horiz-adv-x="537" 
d="M55 0v473h102l12 -53q83 65 162 65q65 0 108.5 -39.5t43.5 -132.5v-313h-120v276q0 50 -15.5 77.5t-57.5 27.5q-56 0 -116 -50v-331h-119zM197 531l58 147h130l-97 -147h-91z" />
    <glyph glyph-name="Ncommaaccent" unicode="&#x145;" horiz-adv-x="754" 
d="M80 0v659h119l281 -360q45 -59 74 -102h2q-2 35 -2 111v351h121v-659h-110l-291 375q-25 31 -74 101h-2q2 -27 2 -102v-374h-120zM301 -237l-29 72q74 15 74 61q0 25 -20 52h102q23 -34 23 -72q0 -95 -150 -113z" />
    <glyph glyph-name="ncommaaccent" unicode="&#x146;" horiz-adv-x="537" 
d="M55 0v473h102l12 -53q83 65 162 65q65 0 108.5 -39.5t43.5 -132.5v-313h-120v276q0 50 -15.5 77.5t-57.5 27.5q-56 0 -116 -50v-331h-119zM182 -237l-29 72q74 15 74 61q0 25 -20 52h102q23 -34 23 -72q0 -95 -150 -113z" />
    <glyph glyph-name="Ncaron" unicode="&#x147;" horiz-adv-x="754" 
d="M80 0v659h119l281 -360q45 -59 74 -102h2q-2 35 -2 111v351h121v-659h-110l-291 375q-25 31 -74 101h-2q2 -27 2 -102v-374h-120zM329 696l-101 147h95l55 -79l54 79h93l-100 -147h-96z" />
    <glyph glyph-name="ncaron" unicode="&#x148;" horiz-adv-x="540" 
d="M55 0v473h102l12 -53q83 65 162 65q65 0 108.5 -39.5t43.5 -132.5v-313h-120v276q0 50 -15.5 77.5t-57.5 27.5q-56 0 -116 -50v-331h-119zM209 531l-101 147h95l55 -78l54 78h93l-100 -147h-96z" />
    <glyph glyph-name="Eng" unicode="&#x14a;" horiz-adv-x="754" 
d="M80 0v659h119l281 -360q45 -59 74 -102h2q-2 35 -2 111v351h121v-678q0 -85 -46 -133t-132 -48q-55 0 -98 17l25 97q25 -13 60 -13q42 0 56 24t14 70v20l-280 360q-25 31 -74 101h-2q2 -27 2 -102v-374h-120z" />
    <glyph glyph-name="eng" unicode="&#x14b;" horiz-adv-x="537" 
d="M229 -178l22 98q23 -11 51 -11q33 0 47 19t14 62v286q0 50 -15.5 77.5t-57.5 27.5q-56 0 -116 -50v-331h-119v473h102l12 -53q83 65 162 65q65 0 108.5 -39.5t43.5 -132.5v-341q0 -79 -43.5 -123t-119.5 -44q-52 0 -91 17z" />
    <glyph glyph-name="Omacron" unicode="&#x14c;" horiz-adv-x="768" 
d="M384 -10q-146 0 -239 93t-93 244q0 150 92.5 244t239.5 94q146 0 239 -94.5t93 -243.5q0 -150 -93.5 -243.5t-238.5 -93.5zM384 91q92 0 148 63t56 173q0 109 -55 173t-149 64q-93 0 -148.5 -63t-55.5 -174q0 -110 55.5 -173t148.5 -63zM244 704v91h285v-91h-285z" />
    <glyph glyph-name="omacron" unicode="&#x14d;" 
d="M271 -10q-105 0 -170.5 70t-65.5 178q0 107 65.5 177t170.5 70t171 -70t66 -177t-66 -177.5t-171 -70.5zM271 86q55 0 84.5 42t29.5 110t-29.5 109.5t-84.5 41.5t-84.5 -41.5t-29.5 -109.5t29.5 -110t84.5 -42zM128 569v90h285v-90h-285z" />
    <glyph glyph-name="Obreve" unicode="&#x14e;" horiz-adv-x="768" 
d="M384 -10q-146 0 -239 93t-93 244q0 150 92.5 244t239.5 94q146 0 239 -94.5t93 -243.5q0 -150 -93.5 -243.5t-238.5 -93.5zM384 91q92 0 148 63t56 173q0 109 -55 173t-149 64q-93 0 -148.5 -63t-55.5 -174q0 -110 55.5 -173t148.5 -63zM450 833h82q-4 -65 -44 -102.5
t-103 -37.5t-102.5 37.5t-43.5 102.5h83q3 -30 19.5 -48t44.5 -18t44.5 18t19.5 48z" />
    <glyph glyph-name="obreve" unicode="&#x14f;" 
d="M271 -10q-105 0 -170.5 70t-65.5 178q0 107 65.5 177t170.5 70t171 -70t66 -177t-66 -177.5t-171 -70.5zM271 86q55 0 84.5 42t29.5 110t-29.5 109.5t-84.5 41.5t-84.5 -41.5t-29.5 -109.5t29.5 -110t84.5 -42zM335 680h82q-4 -65 -43.5 -102t-103.5 -37q-63 0 -102.5 37
t-43.5 102h83q3 -30 19.5 -47.5t44.5 -17.5t44.5 17.5t19.5 47.5z" />
    <glyph glyph-name="Ohungarumlaut" unicode="&#x150;" horiz-adv-x="768" 
d="M384 -10q-146 0 -239 93t-93 244q0 150 92.5 244t239.5 94q146 0 239 -94.5t93 -243.5q0 -150 -93.5 -243.5t-238.5 -93.5zM384 91q92 0 148 63t56 173q0 109 -55 173t-149 64q-93 0 -148.5 -63t-55.5 -174q0 -110 55.5 -173t148.5 -63zM258 696l58 147h130l-97 -147h-91
zM431 696l58 147h130l-97 -147h-91z" />
    <glyph glyph-name="ohungarumlaut" unicode="&#x151;" 
d="M271 -10q-105 0 -170.5 70t-65.5 178q0 107 65.5 177t170.5 70t171 -70t66 -177t-66 -177.5t-171 -70.5zM271 86q55 0 84.5 42t29.5 110t-29.5 109.5t-84.5 41.5t-84.5 -41.5t-29.5 -109.5t29.5 -110t84.5 -42zM149 531l58 147h130l-97 -147h-91zM322 531l58 147h130
l-97 -147h-91z" />
    <glyph glyph-name="OE" unicode="&#x152;" horiz-adv-x="916" 
d="M387 -10q-127 0 -210 64q-122 89 -122 270q0 89 34 161.5t97 118.5q84 61 208 61q24 0 95 -3t130 -3h238l-31 -98h-212v-176h211v-98h-211v-189h244v-98h-247q-51 0 -124.5 -5t-99.5 -5zM396 91q56 0 97 11v449q-46 13 -103 13q-83 0 -133 -48q-74 -63 -74 -189
q0 -136 83 -196q52 -40 130 -40z" />
    <glyph glyph-name="oe" unicode="&#x153;" horiz-adv-x="844" 
d="M268 -10q-103 0 -168 70.5t-65 177.5t64.5 177t165.5 70q118 0 175 -90h2q53 90 159 90q94 0 151 -68t57 -185v-28h-303q2 -55 38.5 -87.5t95.5 -32.5q63 0 120 32l35 -82q-71 -44 -166 -44q-124 0 -186 91h-2q-58 -91 -173 -91zM271 85q54 0 83.5 42t29.5 111
q0 68 -29.5 110t-83.5 42q-55 0 -84.5 -42t-29.5 -110t29.5 -110.5t84.5 -42.5zM505 287h183q-1 45 -23.5 76t-67.5 31q-42 0 -66.5 -31t-25.5 -76z" />
    <glyph glyph-name="Racute" unicode="&#x154;" horiz-adv-x="589" 
d="M80 0v659h180q85 0 141 -27q98 -46 98 -161q0 -64 -35 -107.5t-94 -62.5v-2q29 -16 82 -107l110 -192h-138l-95 167q-45 83 -72 90h-57v-257h-120zM200 355h54q42 0 73 17q46 26 46 87q0 57 -44 83q-28 19 -74 19h-55v-206zM202 696l58 147h130l-97 -147h-91z" />
    <glyph glyph-name="racute" unicode="&#x155;" horiz-adv-x="364" 
d="M55 0v473h101l13 -53q65 65 130 65q39 0 67 -19l-42 -101q-26 16 -54 16q-42 0 -96 -47v-334h-119zM134 531l58 147h130l-97 -147h-91z" />
    <glyph glyph-name="Rcommaaccent" unicode="&#x156;" horiz-adv-x="589" 
d="M80 0v659h180q85 0 141 -27q98 -46 98 -161q0 -64 -35 -107.5t-94 -62.5v-2q29 -16 82 -107l110 -192h-138l-95 167q-45 83 -72 90h-57v-257h-120zM200 355h54q42 0 73 17q46 26 46 87q0 57 -44 83q-28 19 -74 19h-55v-206zM217 -237l-29 72q74 15 74 61q0 25 -20 52h102
q23 -34 23 -72q0 -95 -150 -113z" />
    <glyph glyph-name="rcommaaccent" unicode="&#x157;" horiz-adv-x="364" 
d="M55 0v473h101l13 -53q65 65 130 65q39 0 67 -19l-42 -101q-26 16 -54 16q-42 0 -96 -47v-334h-119zM48 -237l-29 72q74 15 74 61q0 25 -20 52h102q23 -34 23 -72q0 -95 -150 -113z" />
    <glyph glyph-name="Rcaron" unicode="&#x158;" horiz-adv-x="589" 
d="M80 0v659h180q85 0 141 -27q98 -46 98 -161q0 -64 -35 -107.5t-94 -62.5v-2q29 -16 82 -107l110 -192h-138l-95 167q-45 83 -72 90h-57v-257h-120zM200 355h54q42 0 73 17q46 26 46 87q0 57 -44 83q-28 19 -74 19h-55v-206zM214 696l-101 147h95l55 -79l54 79h93
l-100 -147h-96z" />
    <glyph glyph-name="rcaron" unicode="&#x159;" horiz-adv-x="364" 
d="M56 0v473h101l13 -53q65 65 130 65q39 0 67 -19l-42 -101q-26 16 -54 16q-42 0 -96 -47v-334h-119zM144 531l-101 147h95l55 -78l54 78h93l-100 -147h-96z" />
    <glyph glyph-name="Sacute" unicode="&#x15a;" horiz-adv-x="530" 
d="M48 47l47 92q69 -48 149 -48q46 0 78 19t32 59q0 35 -29.5 62t-71 47t-83.5 43.5t-71.5 64.5t-29.5 97q0 76 57.5 129t156.5 53q95 0 161 -33v-110q-81 42 -157 42q-39 0 -64.5 -17t-25.5 -54q0 -33 29.5 -58.5t71.5 -45t83.5 -43.5t71 -66.5t29.5 -100.5
q0 -86 -66 -137.5t-169 -51.5q-118 0 -199 57zM210 696l58 147h130l-97 -147h-91z" />
    <glyph glyph-name="sacute" unicode="&#x15b;" horiz-adv-x="420" 
d="M21 36l37 87q61 -39 129 -39q83 0 83 50q0 22 -23 37t-55.5 26t-65 26t-55.5 45t-23 74q0 64 48.5 103.5t130.5 39.5q75 0 139 -23v-101q-71 30 -134 30q-67 0 -67 -43q0 -20 23 -34t55.5 -25.5t65 -27t55.5 -47t23 -77.5q0 -74 -54.5 -110.5t-137.5 -36.5q-99 0 -174 46
zM163 531l58 147h130l-97 -147h-91z" />
    <glyph glyph-name="Scircumflex" unicode="&#x15c;" horiz-adv-x="530" 
d="M48 47l47 92q69 -48 149 -48q46 0 78 19t32 59q0 35 -29.5 62t-71 47t-83.5 43.5t-71.5 64.5t-29.5 97q0 76 57.5 129t156.5 53q95 0 161 -33v-110q-81 42 -157 42q-39 0 -64.5 -17t-25.5 -54q0 -33 29.5 -58.5t71.5 -45t83.5 -43.5t71 -66.5t29.5 -100.5
q0 -86 -66 -137.5t-169 -51.5q-118 0 -199 57zM120 696l100 147h96l101 -147h-94l-55 79l-54 -79h-94z" />
    <glyph glyph-name="scircumflex" unicode="&#x15d;" horiz-adv-x="420" 
d="M21 36l37 87q61 -39 129 -39q83 0 83 50q0 22 -23 37t-55.5 26t-65 26t-55.5 45t-23 74q0 64 48.5 103.5t130.5 39.5q75 0 139 -23v-101q-71 30 -134 30q-67 0 -67 -43q0 -20 23 -34t55.5 -25.5t65 -27t55.5 -47t23 -77.5q0 -74 -54.5 -110.5t-137.5 -36.5q-99 0 -174 46
zM65 531l100 147h96l101 -147h-94l-55 79l-54 -79h-94z" />
    <glyph glyph-name="Scedilla" unicode="&#x15e;" horiz-adv-x="526" 
d="M146 -201l17 55q24 -8 47 -8q49 0 49 32q0 20 -20 27t-61 7l25 80q-89 9 -155 55l47 92q69 -48 149 -48q46 0 78 19t32 59q0 35 -29.5 62t-71 47t-83.5 43.5t-71.5 64.5t-29.5 97q0 76 57.5 129t156.5 53q95 0 161 -33v-110q-81 42 -157 42q-39 0 -64.5 -17t-25.5 -54
q0 -33 29.5 -58.5t71.5 -45t83.5 -43.5t71 -66.5t29.5 -100.5q0 -77 -53 -126.5t-139 -59.5l-13 -42q85 -7 85 -74q0 -40 -36 -64.5t-105 -24.5q-40 0 -75 11z" />
    <glyph glyph-name="Scedilla" unicode="&#xf6c1;" horiz-adv-x="526" 
d="M146 -201l17 55q24 -8 47 -8q49 0 49 32q0 20 -20 27t-61 7l25 80q-89 9 -155 55l47 92q69 -48 149 -48q46 0 78 19t32 59q0 35 -29.5 62t-71 47t-83.5 43.5t-71.5 64.5t-29.5 97q0 76 57.5 129t156.5 53q95 0 161 -33v-110q-81 42 -157 42q-39 0 -64.5 -17t-25.5 -54
q0 -33 29.5 -58.5t71.5 -45t83.5 -43.5t71 -66.5t29.5 -100.5q0 -77 -53 -126.5t-139 -59.5l-13 -42q85 -7 85 -74q0 -40 -36 -64.5t-105 -24.5q-40 0 -75 11z" />
    <glyph glyph-name="scedilla" unicode="&#x15f;" horiz-adv-x="420" 
d="M91 -201l17 55q24 -8 47 -8q49 0 49 32q0 15 -12 22.5t-27 9t-43 2.5l25 81q-71 8 -126 43l37 87q61 -39 129 -39q83 0 83 50q0 22 -23 37t-55.5 26t-65 26t-55.5 45t-23 74q0 64 48.5 103.5t130.5 39.5q75 0 139 -23v-101q-71 30 -134 30q-67 0 -67 -43q0 -20 23 -34
t55.5 -25.5t65 -27t55.5 -47t23 -77.5q0 -65 -42 -101t-110 -43l-13 -42q84 -7 84 -74q0 -40 -35.5 -64.5t-104.5 -24.5q-42 0 -75 11z" />
    <glyph glyph-name="scedilla" unicode="&#xf6c2;" horiz-adv-x="420" 
d="M91 -201l17 55q24 -8 47 -8q49 0 49 32q0 15 -12 22.5t-27 9t-43 2.5l25 81q-71 8 -126 43l37 87q61 -39 129 -39q83 0 83 50q0 22 -23 37t-55.5 26t-65 26t-55.5 45t-23 74q0 64 48.5 103.5t130.5 39.5q75 0 139 -23v-101q-71 30 -134 30q-67 0 -67 -43q0 -20 23 -34
t55.5 -25.5t65 -27t55.5 -47t23 -77.5q0 -65 -42 -101t-110 -43l-13 -42q84 -7 84 -74q0 -40 -35.5 -64.5t-104.5 -24.5q-42 0 -75 11z" />
    <glyph glyph-name="Scaron" unicode="&#x160;" horiz-adv-x="530" 
d="M48 47l47 92q69 -48 149 -48q46 0 78 19t32 59q0 35 -29.5 62t-71 47t-83.5 43.5t-71.5 64.5t-29.5 97q0 76 57.5 129t156.5 53q95 0 161 -33v-110q-81 42 -157 42q-39 0 -64.5 -17t-25.5 -54q0 -33 29.5 -58.5t71.5 -45t83.5 -43.5t71 -66.5t29.5 -100.5
q0 -86 -66 -137.5t-169 -51.5q-118 0 -199 57zM215 696l-101 147h95l55 -79l54 79h93l-100 -147h-96z" />
    <glyph glyph-name="scaron" unicode="&#x161;" horiz-adv-x="420" 
d="M21 36l37 87q61 -39 129 -39q83 0 83 50q0 22 -23 37t-55.5 26t-65 26t-55.5 45t-23 74q0 64 48.5 103.5t130.5 39.5q75 0 139 -23v-101q-71 30 -134 30q-67 0 -67 -43q0 -20 23 -34t55.5 -25.5t65 -27t55.5 -47t23 -77.5q0 -74 -54.5 -110.5t-137.5 -36.5q-99 0 -174 46
zM165 531l-101 147h95l55 -78l54 78h93l-100 -147h-96z" />
    <glyph glyph-name="Tcommaaccent" unicode="&#x162;" horiz-adv-x="536" 
d="M191 -237l-29 72q74 15 74 61q0 25 -20 52h102q23 -34 23 -72q0 -95 -150 -113zM206 0v561h-192v98h520l-31 -98h-177v-561h-120z" />
    <glyph glyph-name="Tcommaaccent" unicode="&#x21a;" horiz-adv-x="536" 
d="M191 -237l-29 72q74 15 74 61q0 25 -20 52h102q23 -34 23 -72q0 -95 -150 -113zM206 0v561h-192v98h520l-31 -98h-177v-561h-120z" />
    <glyph glyph-name="tcommaaccent" unicode="&#x163;" horiz-adv-x="386" 
d="M236 -10q-63 0 -99 34t-36 93v263h-85v93h85v110l119 35v-145h143l-29 -93h-114v-234q0 -32 11 -46t35 -14q38 0 72 23l36 -82q-55 -37 -138 -37zM120 -237l-29 72q74 15 74 61q0 25 -20 52h102q23 -34 23 -72q0 -95 -150 -113z" />
    <glyph glyph-name="tcommaaccent" unicode="&#x21b;" horiz-adv-x="386" 
d="M236 -10q-63 0 -99 34t-36 93v263h-85v93h85v110l119 35v-145h143l-29 -93h-114v-234q0 -32 11 -46t35 -14q38 0 72 23l36 -82q-55 -37 -138 -37zM120 -237l-29 72q74 15 74 61q0 25 -20 52h102q23 -34 23 -72q0 -95 -150 -113z" />
    <glyph glyph-name="Tcaron" unicode="&#x164;" horiz-adv-x="536" 
d="M206 0v561h-192v98h520l-31 -98h-177v-561h-120zM220 696l-101 147h95l55 -79l54 79h93l-100 -147h-96z" />
    <glyph glyph-name="tcaron" unicode="&#x165;" horiz-adv-x="386" 
d="M236 -10q-63 0 -99 34t-36 93v263h-85v93h85v110l119 35v-145h143l-29 -93h-114v-234q0 -32 11 -46t35 -14q38 0 72 23l36 -82q-55 -37 -138 -37zM306 497l-45 75q40 21 40 66q0 32 -19 70h104q23 -39 23 -79q0 -92 -103 -132z" />
    <glyph glyph-name="Tbar" unicode="&#x166;" horiz-adv-x="536" 
d="M206 0v260h-118v98h118v203h-192v98h520l-31 -98h-177v-203h118v-98h-118v-260h-120z" />
    <glyph glyph-name="tbar" unicode="&#x167;" horiz-adv-x="386" 
d="M16 202v91h85v87h-85v93h85v110l119 35v-145h143l-29 -93h-114v-87h93v-91h-93v-56q0 -32 11 -46t35 -14q37 0 73 24l35 -81q-56 -39 -138 -39q-63 0 -99 34t-36 93v85h-85z" />
    <glyph glyph-name="Utilde" unicode="&#x168;" horiz-adv-x="696" 
d="M348 -10q-188 0 -248 128q-25 50 -25 128v413h120v-405q0 -53 18 -89q36 -74 135 -74t135 74q18 36 18 90v404h120v-413q0 -79 -25 -129q-61 -127 -248 -127zM193 720v39q0 39 23 61t59 22q32 0 75.5 -22t55.5 -22q14 0 18 8.5t4 29.5h78v-40q0 -39 -23 -60.5t-59 -21.5
q-31 0 -75 21.5t-56 21.5q-14 0 -18 -8.5t-4 -28.5h-78z" />
    <glyph glyph-name="utilde" unicode="&#x169;" horiz-adv-x="535" 
d="M213 -10q-42 0 -82 21.5t-60 71.5q-16 38 -16 99v291h119v-279q0 -38 10 -59q18 -43 71 -43q59 0 97 42v339h120v-356q0 -88 8 -117h-102l-18 49q-66 -59 -147 -59zM110 547v39q0 39 23 61t59 22q32 0 75.5 -22t55.5 -22q14 0 18 8.5t4 29.5h78v-39q0 -39 -23 -61
t-59 -22q-31 0 -75 22t-56 22q-14 0 -18 -8.5t-4 -29.5h-78z" />
    <glyph glyph-name="Umacron" unicode="&#x16a;" horiz-adv-x="696" 
d="M348 -10q-188 0 -248 128q-25 50 -25 128v413h120v-405q0 -53 18 -89q36 -74 135 -74t135 74q18 36 18 90v404h120v-413q0 -79 -25 -129q-61 -127 -248 -127zM208 704v91h285v-91h-285z" />
    <glyph glyph-name="umacron" unicode="&#x16b;" horiz-adv-x="535" 
d="M213 -10q-42 0 -82 21.5t-60 71.5q-16 38 -16 99v291h119v-279q0 -38 10 -59q18 -43 71 -43q59 0 97 42v339h120v-356q0 -88 8 -117h-102l-18 49q-66 -59 -147 -59zM124 569v90h285v-90h-285z" />
    <glyph glyph-name="Ubreve" unicode="&#x16c;" horiz-adv-x="696" 
d="M348 -10q-188 0 -248 128q-25 50 -25 128v413h120v-405q0 -53 18 -89q36 -74 135 -74t135 74q18 36 18 90v404h120v-413q0 -79 -25 -129q-61 -127 -248 -127zM414 833h82q-4 -65 -44 -102.5t-103 -37.5t-102.5 37.5t-43.5 102.5h83q3 -30 19.5 -48t44.5 -18t44.5 18
t19.5 48z" />
    <glyph glyph-name="ubreve" unicode="&#x16d;" horiz-adv-x="535" 
d="M213 -10q-42 0 -82 21.5t-60 71.5q-16 38 -16 99v291h119v-279q0 -38 10 -59q18 -43 71 -43q59 0 97 42v339h120v-356q0 -88 8 -117h-102l-18 49q-66 -59 -147 -59zM330 680h82q-4 -65 -43.5 -102t-103.5 -37q-63 0 -102.5 37t-43.5 102h83q3 -30 19.5 -47.5t44.5 -17.5
t44.5 17.5t19.5 47.5z" />
    <glyph glyph-name="Uring" unicode="&#x16e;" horiz-adv-x="696" 
d="M348 -10q-188 0 -248 128q-25 50 -25 128v413h120v-405q0 -53 18 -89q36 -74 135 -74t135 74q18 36 18 90v404h120v-413q0 -79 -25 -129q-61 -127 -248 -127zM351 653q-52 0 -84.5 26.5t-32.5 70.5q0 45 32.5 71.5t84.5 26.5t84.5 -26.5t32.5 -71.5q0 -44 -32.5 -70.5
t-84.5 -26.5zM351 705q18 0 29.5 12t11.5 33t-11.5 33.5t-29.5 12.5q-19 0 -30 -12t-11 -34q0 -45 41 -45z" />
    <glyph glyph-name="uring" unicode="&#x16f;" horiz-adv-x="535" 
d="M213 -10q-42 0 -82 21.5t-60 71.5q-16 38 -16 99v291h119v-279q0 -38 10 -59q18 -43 71 -43q59 0 97 42v339h120v-356q0 -88 8 -117h-102l-18 49q-66 -59 -147 -59zM267 523q-52 0 -84.5 26t-32.5 71t32.5 71t84.5 26t84.5 -26t32.5 -71t-32.5 -71t-84.5 -26zM267 574
q18 0 29.5 12.5t11.5 33.5t-11.5 33.5t-29.5 12.5q-19 0 -30 -12t-11 -34t11 -34t30 -12z" />
    <glyph glyph-name="Uhungarumlaut" unicode="&#x170;" horiz-adv-x="696" 
d="M348 -10q-188 0 -248 128q-25 50 -25 128v413h120v-405q0 -53 18 -89q36 -74 135 -74t135 74q18 36 18 90v404h120v-413q0 -79 -25 -129q-61 -127 -248 -127zM211 696l58 147h130l-97 -147h-91zM384 696l58 147h130l-97 -147h-91z" />
    <glyph glyph-name="uhungarumlaut" unicode="&#x171;" horiz-adv-x="535" 
d="M213 -10q-42 0 -82 21.5t-60 71.5q-16 38 -16 99v291h119v-279q0 -38 10 -59q18 -43 71 -43q59 0 97 42v339h120v-356q0 -88 8 -117h-102l-18 49q-66 -59 -147 -59zM129 531l58 147h130l-97 -147h-91zM302 531l58 147h130l-97 -147h-91z" />
    <glyph glyph-name="Uogonek" unicode="&#x172;" horiz-adv-x="696" 
d="M444 -138l13 -64q-41 -12 -79 -12q-49 0 -76.5 23t-27.5 62q0 63 73 117v2q-188 0 -247 128q-25 50 -25 128v413h120v-405q0 -53 18 -89q36 -74 135 -74t135 74q18 36 18 90v404h120v-413q0 -79 -25 -129q-30 -67 -107 -103q-45 -21 -80.5 -55.5t-35.5 -67.5
q0 -35 34 -35q16 0 37 6z" />
    <glyph glyph-name="uogonek" unicode="&#x173;" horiz-adv-x="535" 
d="M377 4l-17 45q-66 -59 -147 -59q-42 0 -82 21.5t-60 71.5q-16 38 -16 99v291h119v-279q0 -38 10 -59q18 -43 71 -43q59 0 97 42v339h120v-343q0 -102 8 -131q-46 -22 -73 -50t-27 -58q0 -35 35 -35q16 0 37 6l13 -64q-42 -12 -79 -12q-49 0 -76.5 23t-27.5 62
q0 70 95 133z" />
    <glyph glyph-name="Wcircumflex" unicode="&#x174;" horiz-adv-x="944" 
d="M240 -4l-233 663h136l121 -379q10 -30 32 -111h2q13 46 34 110l89 265l-41 115h122l127 -373q27 -76 37 -116h3q22 88 30 114l114 375h124l-222 -663h-102l-99 279q-27 76 -36 110h-3q-14 -51 -35 -109l-100 -280h-100zM328 696l100 147h96l101 -147h-94l-55 79l-54 -79
h-94z" />
    <glyph glyph-name="wcircumflex" unicode="&#x175;" horiz-adv-x="748" 
d="M178 -3l-171 476h121l100 -321h2l100 321h93l104 -321h2l98 321h118l-175 -476h-88l-104 321h-2l-106 -321h-92zM228 531l100 147h96l101 -147h-94l-55 79l-54 -79h-94z" />
    <glyph glyph-name="Ycircumflex" unicode="&#x176;" horiz-adv-x="586" 
d="M232 0v261l-225 398h132l154 -291h2l153 291h130l-225 -399v-260h-121zM146 696l100 147h96l101 -147h-94l-55 79l-54 -79h-94z" />
    <glyph glyph-name="ycircumflex" unicode="&#x177;" horiz-adv-x="518" 
d="M-12 -215l30 92q36 -18 71 -18q42 0 73.5 33t58.5 111l-213 470h124l143 -336h2l115 336h121l-181 -488q-27 -71 -55.5 -117.5t-60 -68t-58.5 -29t-64 -7.5q-56 0 -106 22zM119 531l100 147h96l101 -147h-94l-55 79l-54 -79h-94z" />
    <glyph glyph-name="Ydieresis" unicode="&#x178;" horiz-adv-x="586" 
d="M232 0v261l-225 398h132l154 -291h2l153 291h130l-225 -399v-260h-121zM199 701q-25 0 -43 18t-18 43t18 43.5t43 18.5t43.5 -18t18.5 -44q0 -25 -18 -43t-44 -18zM390 701q-26 0 -43.5 17.5t-17.5 43.5t18 44t43 18t43 -18.5t18 -43.5t-18 -43t-43 -18z" />
    <glyph glyph-name="Zacute" unicode="&#x179;" horiz-adv-x="570" 
d="M26 0l330 561h-286l-29 98h503l-324 -561h327v-98h-521zM237 696l58 147h130l-97 -147h-91z" />
    <glyph glyph-name="zacute" unicode="&#x17a;" horiz-adv-x="415" 
d="M15 0l219 380h-181l-24 93h379l-217 -380h213v-93h-389zM157 531l58 147h130l-97 -147h-91z" />
    <glyph glyph-name="Zdotaccent" unicode="&#x17b;" horiz-adv-x="570" 
d="M26 0l330 561h-286l-29 98h503l-324 -561h327v-98h-521zM297 701q-31 0 -52.5 20.5t-21.5 50.5t21.5 51t52.5 21t52 -20.5t21 -51.5q0 -30 -21 -50.5t-52 -20.5z" />
    <glyph glyph-name="zdotaccent" unicode="&#x17c;" horiz-adv-x="415" 
d="M15 0l219 380h-181l-24 93h379l-217 -380h213v-93h-389zM218 550q-31 0 -52.5 20.5t-21.5 50.5t21.5 51t52.5 21t52 -20.5t21 -51.5q0 -30 -21 -50.5t-52 -20.5z" />
    <glyph glyph-name="Zcaron" unicode="&#x17d;" horiz-adv-x="570" 
d="M26 0l330 561h-286l-29 98h503l-324 -561h327v-98h-521zM246 696l-101 147h95l55 -79l54 79h93l-100 -147h-96z" />
    <glyph glyph-name="zcaron" unicode="&#x17e;" horiz-adv-x="415" 
d="M15 0l219 380h-181l-24 93h379l-217 -380h213v-93h-389zM170 531l-101 147h95l55 -78l54 78h93l-100 -147h-96z" />
    <glyph glyph-name="florin" unicode="&#x192;" horiz-adv-x="545" 
d="M310 299l-23 -261q-9 -98 -50 -147q-51 -61 -148 -61q-71 0 -130 30l45 96q35 -20 73 -20q44 0 66 28q19 25 22 69l24 266h-97v94h106l9 107q7 91 46 139q50 69 153 69q71 0 130 -30l-45 -96q-36 20 -74 20q-44 0 -67 -31q-17 -24 -21 -67l-10 -111h126l-28 -94h-107z
" />
    <glyph glyph-name="Aringacute" unicode="&#x1fa;" horiz-adv-x="628" 
d="M8 0l252 653q-32 10 -50.5 34t-18.5 57q0 38 25 63.5t66 31.5l45 114h130l-85 -126q53 -27 53 -83q0 -68 -67 -90l261 -654h-127l-64 165h-235l-62 -165h-123zM228 263h163l-46 132q-24 66 -33 103h-2q-8 -31 -34 -104zM308 698q19 0 30 12t11 34q0 45 -41 45
q-18 0 -29.5 -12t-11.5 -33t11.5 -33.5t29.5 -12.5z" />
    <glyph glyph-name="aringacute" unicode="&#x1fb;" horiz-adv-x="492" 
d="M247 516q-52 0 -84.5 26t-32.5 71q0 37 23 62t62 32l52 135h130l-94 -142q60 -24 60 -87q0 -45 -32 -71t-84 -26zM247 567q18 0 29.5 12.5t11.5 33.5t-11.5 33.5t-29.5 12.5q-19 0 -30 -12t-11 -34t11 -34t30 -12zM190 -10q-68 0 -112.5 42t-44.5 109q0 88 80 129
q46 24 122 27l81 3v15q0 79 -91 79q-62 0 -124 -33l-39 77q85 47 183 47q190 0 190 -172v-196q0 -85 9 -117h-100l-18 45q-60 -55 -136 -55zM224 84q49 0 92 35v101l-64 -2q-45 -1 -69 -15q-29 -16 -29 -54q0 -31 19 -48t51 -17z" />
    <glyph glyph-name="AEacute" unicode="&#x1fc;" horiz-adv-x="837" 
d="M7 0l356 659h415l-31 -98h-253l29 -176h223v-98h-206l32 -189h208v-98h-314l-28 165h-218l-89 -165h-124zM274 263h148l-23 154q-7 44 -11 77h-2q-14 -38 -38 -83zM438 696l58 147h130l-97 -147h-91z" />
    <glyph glyph-name="aeacute" unicode="&#x1fd;" horiz-adv-x="777" 
d="M199 -10q-74 0 -120 41t-46 110q0 78 56.5 114t144.5 36h89v24q0 40 -26 59.5t-70 19.5q-65 0 -126 -34l-39 78q85 47 181 47q108 0 147 -71h2q53 71 148 71q94 0 148 -66.5t54 -186.5v-24h-300q1 -58 36 -91t95 -33q63 0 120 32l35 -82q-71 -44 -166 -44q-122 0 -185 78
q-69 -78 -178 -78zM225 84q66 0 114 52q-11 31 -13 72h-84q-88 0 -88 -61q0 -30 19.5 -46.5t51.5 -16.5zM441 291h180q-2 43 -24 73t-65 30q-42 0 -65.5 -29.5t-25.5 -73.5zM343 531l58 147h130l-97 -147h-91z" />
    <glyph glyph-name="Oslashacute" unicode="&#x1fe;" horiz-adv-x="775" 
d="M152 -33l-75 56l59 72q-81 94 -81 232q0 150 93 244t239 94q97 0 172 -47l59 73l74 -56l-59 -73q87 -93 87 -235q0 -150 -93.5 -243.5t-239.5 -93.5q-101 0 -178 48zM559 468l-283 -345q46 -33 111 -33q93 0 150 63.5t57 173.5q0 83 -35 141zM212 192l282 342
q-46 31 -107 31q-92 0 -149 -63.5t-57 -174.5q0 -79 31 -135zM337 696l58 147h130l-97 -147h-91z" />
    <glyph glyph-name="oslashacute" unicode="&#x1ff;" 
d="M106 -27l-50 39l41 52q-62 70 -62 174q0 107 65.5 177t170.5 70q68 0 124 -35l37 48l51 -39l-38 -48q63 -71 63 -173q0 -107 -66 -177.5t-171 -70.5q-69 0 -125 35zM208 105q26 -21 63 -21q55 0 86 43t31 111q0 44 -14 80zM169 158l165 212q-27 21 -63 21q-55 0 -86 -43
t-31 -110q0 -47 15 -80zM214 531l58 147h130l-97 -147h-91z" />
    <glyph glyph-name="Scommaaccent" unicode="&#x218;" horiz-adv-x="530" 
d="M48 47l47 92q69 -48 149 -48q46 0 78 19t32 59q0 35 -29.5 62t-71 47t-83.5 43.5t-71.5 64.5t-29.5 97q0 76 57.5 129t156.5 53q95 0 161 -33v-110q-81 42 -157 42q-39 0 -64.5 -17t-25.5 -54q0 -33 29.5 -58.5t71.5 -45t83.5 -43.5t71 -66.5t29.5 -100.5
q0 -86 -66 -137.5t-169 -51.5q-118 0 -199 57zM177 -237l-29 72q74 15 74 61q0 25 -20 52h102q23 -34 23 -72q0 -95 -150 -113z" />
    <glyph glyph-name="scommaaccent" unicode="&#x219;" horiz-adv-x="420" 
d="M21 36l37 87q61 -39 129 -39q83 0 83 50q0 22 -23 37t-55.5 26t-65 26t-55.5 45t-23 74q0 64 48.5 103.5t130.5 39.5q75 0 139 -23v-101q-71 30 -134 30q-67 0 -67 -43q0 -20 23 -34t55.5 -25.5t65 -27t55.5 -47t23 -77.5q0 -74 -54.5 -110.5t-137.5 -36.5q-99 0 -174 46
zM129 -237l-29 72q74 15 74 61q0 25 -20 52h102q23 -34 23 -72q0 -95 -150 -113z" />
    <glyph glyph-name="circumflex" unicode="&#x2c6;" horiz-adv-x="384" 
d="M43 531l100 147h96l101 -147h-94l-55 79l-54 -79h-94z" />
    <glyph glyph-name="circumflex" unicode="&#x302;" horiz-adv-x="384" 
d="M43 531l100 147h96l101 -147h-94l-55 79l-54 -79h-94z" />
    <glyph glyph-name="caron" unicode="&#x2c7;" horiz-adv-x="384" 
d="M144 531l-101 147h95l55 -78l54 78h93l-100 -147h-96z" />
    <glyph glyph-name="caron" unicode="&#x30c;" horiz-adv-x="384" 
d="M144 531l-101 147h95l55 -78l54 78h93l-100 -147h-96z" />
    <glyph glyph-name="breve" unicode="&#x2d8;" horiz-adv-x="384" 
d="M256 680h82q-4 -65 -43.5 -102t-103.5 -37q-63 0 -102.5 37t-43.5 102h83q3 -30 19.5 -47.5t44.5 -17.5t44.5 17.5t19.5 47.5z" />
    <glyph glyph-name="breve" unicode="&#x306;" horiz-adv-x="384" 
d="M256 680h82q-4 -65 -43.5 -102t-103.5 -37q-63 0 -102.5 37t-43.5 102h83q3 -30 19.5 -47.5t44.5 -17.5t44.5 17.5t19.5 47.5z" />
    <glyph glyph-name="dotaccent" unicode="&#x2d9;" horiz-adv-x="384" 
d="M192 550q-31 0 -52.5 20.5t-21.5 50.5t21.5 51t52.5 21t52 -20.5t21 -51.5q0 -30 -21 -50.5t-52 -20.5z" />
    <glyph glyph-name="dotaccent" unicode="&#x307;" horiz-adv-x="384" 
d="M192 550q-31 0 -52.5 20.5t-21.5 50.5t21.5 51t52.5 21t52 -20.5t21 -51.5q0 -30 -21 -50.5t-52 -20.5z" />
    <glyph glyph-name="ring" unicode="&#x2da;" horiz-adv-x="384" 
d="M192 523q-52 0 -84.5 26t-32.5 71t32.5 71t84.5 26t84.5 -26t32.5 -71t-32.5 -71t-84.5 -26zM192 574q18 0 29.5 12.5t11.5 33.5t-11.5 33.5t-29.5 12.5q-19 0 -30 -12t-11 -34t11 -34t30 -12z" />
    <glyph glyph-name="ring" unicode="&#x30a;" horiz-adv-x="384" 
d="M192 523q-52 0 -84.5 26t-32.5 71t32.5 71t84.5 26t84.5 -26t32.5 -71t-32.5 -71t-84.5 -26zM192 574q18 0 29.5 12.5t11.5 33.5t-11.5 33.5t-29.5 12.5q-19 0 -30 -12t-11 -34t11 -34t30 -12z" />
    <glyph glyph-name="ogonek" unicode="&#x2db;" horiz-adv-x="384" 
d="M262 -138l13 -64q-41 -12 -79 -12q-49 0 -76.5 23t-27.5 62q0 73 107 142l93 -13q-101 -49 -101 -109q0 -35 34 -35q16 0 37 6z" />
    <glyph glyph-name="ogonek" unicode="&#x328;" horiz-adv-x="384" 
d="M262 -138l13 -64q-41 -12 -79 -12q-49 0 -76.5 23t-27.5 62q0 73 107 142l93 -13q-101 -49 -101 -109q0 -35 34 -35q16 0 37 6z" />
    <glyph glyph-name="tilde" unicode="&#x2dc;" horiz-adv-x="384" 
d="M35 547v39q0 39 23 61t59 22q32 0 75.5 -22t55.5 -22q14 0 18 8.5t4 29.5h78v-39q0 -39 -23 -61t-59 -22q-31 0 -75 22t-56 22q-14 0 -18 -8.5t-4 -29.5h-78z" />
    <glyph glyph-name="tilde" unicode="&#x303;" horiz-adv-x="384" 
d="M35 547v39q0 39 23 61t59 22q32 0 75.5 -22t55.5 -22q14 0 18 8.5t4 29.5h78v-39q0 -39 -23 -61t-59 -22q-31 0 -75 22t-56 22q-14 0 -18 -8.5t-4 -29.5h-78z" />
    <glyph glyph-name="hungarumlaut" unicode="&#x2dd;" horiz-adv-x="384" 
d="M72 531l58 147h130l-97 -147h-91zM245 531l58 147h130l-97 -147h-91z" />
    <glyph glyph-name="hungarumlaut" unicode="&#x30b;" horiz-adv-x="384" 
d="M72 531l58 147h130l-97 -147h-91zM245 531l58 147h130l-97 -147h-91z" />
    <glyph glyph-name="caronSlovak" unicode="&#x313;" horiz-adv-x="384" 
d="M163 497l-45 75q40 21 40 66q0 32 -19 70h104q23 -39 23 -79q0 -92 -103 -132z" />
    <glyph glyph-name="caronSlovak" unicode="&#x315;" horiz-adv-x="384" 
d="M163 497l-45 75q40 21 40 66q0 32 -19 70h104q23 -39 23 -79q0 -92 -103 -132z" />
    <glyph glyph-name="commaaccent" unicode="&#x326;" horiz-adv-x="384" 
d="M131 -237l-29 72q74 15 74 61q0 25 -20 52h102q23 -34 23 -72q0 -95 -150 -113z" />
    <glyph glyph-name="commaaccent" unicode="&#xf6c3;" horiz-adv-x="384" 
d="M131 -237l-29 72q74 15 74 61q0 25 -20 52h102q23 -34 23 -72q0 -95 -150 -113z" />
    <glyph glyph-name="Omega" unicode="&#x3a9;" horiz-adv-x="734" 
d="M41 0v98h60q45 0 74 -7v3q-60 46 -95.5 112.5t-35.5 145.5q0 130 86 221.5t237 91.5t237 -91.5t86 -221.5q0 -79 -36 -145.5t-96 -112.5l1 -3q29 7 74 7h59v-98h-269v81q70 56 104 119.5t34 145.5q0 96 -51.5 157t-142.5 61t-143 -61t-52 -157q0 -83 34 -146t105 -119
v-81h-270z" />
    <glyph glyph-name="Omega" unicode="&#x2126;" horiz-adv-x="734" 
d="M41 0v98h60q45 0 74 -7v3q-60 46 -95.5 112.5t-35.5 145.5q0 130 86 221.5t237 91.5t237 -91.5t86 -221.5q0 -79 -36 -145.5t-96 -112.5l1 -3q29 7 74 7h59v-98h-269v81q70 56 104 119.5t34 145.5q0 96 -51.5 157t-142.5 61t-143 -61t-52 -157q0 -83 34 -146t105 -119
v-81h-270z" />
    <glyph glyph-name="pi" unicode="&#x3c0;" horiz-adv-x="639" 
d="M110 0v380h-88v93h596l-29 -93h-89v-240q0 -41 34 -41q12 0 25 5l23 -96q-37 -15 -81 -15q-120 0 -120 119v268h-151v-380h-120z" />
    <glyph glyph-name="Wgrave" unicode="&#x1e80;" horiz-adv-x="944" 
d="M240 -4l-233 663h136l121 -379q10 -30 32 -111h2q13 46 34 110l89 265l-41 115h122l127 -373q27 -76 37 -116h3q22 88 30 114l114 375h124l-222 -663h-102l-99 279q-27 76 -36 110h-3q-14 -51 -35 -109l-100 -280h-100zM430 696l-97 147h130l58 -147h-91z" />
    <glyph glyph-name="wgrave" unicode="&#x1e81;" horiz-adv-x="748" 
d="M178 -3l-171 476h121l100 -321h2l100 321h93l104 -321h2l98 321h118l-175 -476h-88l-104 321h-2l-106 -321h-92zM346 531l-97 147h130l58 -147h-91z" />
    <glyph glyph-name="Wacute" unicode="&#x1e82;" horiz-adv-x="944" 
d="M240 -4l-233 663h136l121 -379q10 -30 32 -111h2q13 46 34 110l89 265l-41 115h122l127 -373q27 -76 37 -116h3q22 88 30 114l114 375h124l-222 -663h-102l-99 279q-27 76 -36 110h-3q-14 -51 -35 -109l-100 -280h-100zM416 696l58 147h130l-97 -147h-91z" />
    <glyph glyph-name="wacute" unicode="&#x1e83;" horiz-adv-x="748" 
d="M178 -3l-171 476h121l100 -321h2l100 321h93l104 -321h2l98 321h118l-175 -476h-88l-104 321h-2l-106 -321h-92zM316 531l58 147h130l-97 -147h-91z" />
    <glyph glyph-name="Wdieresis" unicode="&#x1e84;" horiz-adv-x="944" 
d="M240 -4l-233 663h136l121 -379q10 -30 32 -111h2q13 46 34 110l89 265l-41 115h122l127 -373q27 -76 37 -116h3q22 88 30 114l114 375h124l-222 -663h-102l-99 279q-27 76 -36 110h-3q-14 -51 -35 -109l-100 -280h-100zM381 701q-25 0 -43 18t-18 43t18 43.5t43 18.5
t43.5 -18t18.5 -44q0 -25 -18 -43t-44 -18zM572 701q-26 0 -43.5 17.5t-17.5 43.5t18 44t43 18t43 -18.5t18 -43.5t-18 -43t-43 -18z" />
    <glyph glyph-name="wdieresis" unicode="&#x1e85;" horiz-adv-x="748" 
d="M178 -3l-171 476h121l100 -321h2l100 321h93l104 -321h2l98 321h118l-175 -476h-88l-104 321h-2l-106 -321h-92zM281 544q-25 0 -43 18t-18 43q0 26 18 44t43 18q26 0 44 -18t18 -44q0 -25 -18 -43t-44 -18zM472 544q-26 0 -43.5 18t-17.5 43q0 26 17.5 44t43.5 18
q25 0 43 -18t18 -44q0 -25 -18 -43t-43 -18z" />
    <glyph glyph-name="Ygrave" unicode="&#x1ef2;" horiz-adv-x="586" 
d="M232 0v261l-225 398h132l154 -291h2l153 291h130l-225 -399v-260h-121zM264 696l-97 147h130l58 -147h-91z" />
    <glyph glyph-name="ygrave" unicode="&#x1ef3;" horiz-adv-x="518" 
d="M-12 -215l30 92q36 -18 71 -18q42 0 73.5 33t58.5 111l-213 470h124l143 -336h2l115 336h121l-181 -488q-27 -71 -55.5 -117.5t-60 -68t-58.5 -29t-64 -7.5q-56 0 -106 22zM237 531l-97 147h130l58 -147h-91z" />
    <glyph glyph-name="endash" unicode="&#x2013;" horiz-adv-x="450" 
d="M0 207v88h450v-88h-450z" />
    <glyph glyph-name="emdash" unicode="&#x2014;" horiz-adv-x="800" 
d="M0 207v88h800v-88h-800z" />
    <glyph glyph-name="quoteleft" unicode="&#x2018;" horiz-adv-x="228" 
d="M87 435q-36 66 -36 138t36 147l75 -12q-11 -43 -11 -84q0 -64 36 -139z" />
    <glyph glyph-name="quoteright" unicode="&#x2019;" horiz-adv-x="228" 
d="M31 478q46 78 46 155q0 31 -6 66l110 19q7 -29 7 -63q0 -113 -88 -210z" />
    <glyph glyph-name="quotesinglbase" unicode="&#x201a;" horiz-adv-x="228" 
d="M21 -122q46 78 46 155q0 31 -6 66l110 19q7 -29 7 -63q0 -113 -88 -210z" />
    <glyph glyph-name="quotedblleft" unicode="&#x201c;" horiz-adv-x="417" 
d="M87 435q-36 66 -36 138t36 147l75 -12q-11 -43 -11 -84q0 -64 36 -139zM276 435q-36 66 -36 138t36 147l75 -12q-11 -43 -11 -84q0 -64 36 -139z" />
    <glyph glyph-name="quotedblright" unicode="&#x201d;" horiz-adv-x="417" 
d="M31 478q46 78 46 155q0 31 -6 66l110 19q7 -29 7 -63q0 -113 -88 -210zM220 478q46 78 46 155q0 31 -6 66l110 19q7 -29 7 -63q0 -113 -88 -210z" />
    <glyph glyph-name="quotedblbase" unicode="&#x201e;" horiz-adv-x="417" 
d="M21 -122q46 78 46 155q0 31 -6 66l110 19q7 -29 7 -63q0 -113 -88 -210zM210 -122q46 78 46 155q0 31 -6 66l110 19q7 -29 7 -63q0 -113 -88 -210z" />
    <glyph glyph-name="dagger" unicode="&#x2020;" horiz-adv-x="526" 
d="M206 -49v160q0 79 3.5 165.5t2.5 109.5q-15 0 -71.5 -6.5t-80.5 -6.5v120q24 -1 80.5 -8t72.5 -8q1 21 -5 78.5t-6 80.5h122q0 -23 -6 -80.5t-5 -78.5q16 1 73 8t81 8v-120q-25 0 -81.5 6.5t-71.5 6.5q-1 -23 2.5 -109.5t3.5 -165.5v-160h-114z" />
    <glyph glyph-name="daggerdbl" unicode="&#x2021;" horiz-adv-x="526" 
d="M202 -49q0 22 6 79.5t5 78.5q-14 -1 -71.5 -8t-81.5 -7v120q24 0 80.5 -7t71.5 -7q1 13 -0.5 43t-1.5 48q0 19 1.5 50.5t0.5 44.5q-15 0 -71.5 -6.5t-80.5 -6.5v120q24 -1 80.5 -8t72.5 -8q1 21 -5 78.5t-6 80.5h122q0 -23 -6 -80.5t-5 -78.5q16 1 73 8t81 8v-120
q-25 0 -81.5 6.5t-71.5 6.5q-1 -12 1 -43.5t2 -51.5q0 -19 -2 -49t-1 -42q15 0 71.5 7t81.5 7v-120q-25 0 -82.5 7t-71.5 8q-1 -21 5 -78.5t6 -79.5h-122z" />
    <glyph glyph-name="bullet" unicode="&#x2022;" horiz-adv-x="327" 
d="M163 194q-51 0 -85.5 36t-34.5 87q0 54 34 90t86 36t86.5 -36t34.5 -90q0 -52 -34.5 -87.5t-86.5 -35.5z" />
    <glyph glyph-name="ellipsis" unicode="&#x2026;" horiz-adv-x="902" 
d="M173 -9q-28 0 -47.5 20t-19.5 49t19.5 48.5t47.5 19.5t47.5 -19.5t19.5 -48.5t-19.5 -49t-47.5 -20zM451 -9q-28 0 -47.5 20t-19.5 49t19.5 48.5t47.5 19.5t47.5 -19.5t19.5 -48.5t-19.5 -49t-47.5 -20zM729 -9q-28 0 -47.5 20t-19.5 49t19.5 48.5t47.5 19.5t47.5 -19.5
t19.5 -48.5t-19.5 -49t-47.5 -20z" />
    <glyph glyph-name="perthousand" unicode="&#x2030;" horiz-adv-x="1257" 
d="M214 312q-71 0 -115.5 45.5t-44.5 131.5q0 85 44.5 130.5t115.5 45.5t115.5 -45.5t44.5 -130.5q0 -86 -44.5 -131.5t-115.5 -45.5zM214 384q32 0 48.5 28.5t16.5 76.5t-16.5 76t-48.5 28t-49 -28t-17 -76t17 -76.5t49 -28.5zM675 -10q-71 0 -115.5 45.5t-44.5 131.5
q0 85 44.5 130.5t115.5 45.5t115.5 -45.5t44.5 -130.5q0 -86 -44.5 -131.5t-115.5 -45.5zM675 62q32 0 48.5 28.5t16.5 76.5t-16.5 76t-48.5 28t-49 -28t-17 -76t17 -76.5t49 -28.5zM1043 -10q-71 0 -115.5 45.5t-44.5 131.5q0 85 44.5 130.5t115.5 45.5t115.5 -45.5
t44.5 -130.5q0 -86 -44.5 -131.5t-115.5 -45.5zM1043 62q32 0 48.5 28.5t16.5 76.5t-16.5 76t-48.5 28t-49 -28t-17 -76t17 -76.5t49 -28.5zM187 0l416 659h97l-415 -659h-98z" />
    <glyph glyph-name="guilsinglleft" unicode="&#x2039;" horiz-adv-x="358" 
d="M207 12l-170 229l170 231l96 -51l-134 -180l134 -178z" />
    <glyph glyph-name="guilsinglright" unicode="&#x203a;" horiz-adv-x="358" 
d="M54 63l134 178l-134 180l96 51l170 -231l-170 -229z" />
    <glyph glyph-name="fraction" unicode="&#x2044;" horiz-adv-x="157" 
d="M-178 0l415 659h98l-416 -659h-97z" />
    <glyph glyph-name="fraction" unicode="&#x2215;" horiz-adv-x="157" 
d="M-178 0l415 659h98l-416 -659h-97z" />
    <glyph glyph-name="zerosuperior" unicode="&#x2070;" horiz-adv-x="387" 
d="M193 396q-71 0 -114 52.5t-43 149.5q0 96 43 148t115 52q71 0 114.5 -52.5t43.5 -148.5t-43.5 -148.5t-115.5 -52.5zM194 473q57 0 57 123q0 125 -58 125q-57 0 -57 -122q0 -126 58 -126z" />
    <glyph glyph-name="foursuperior" unicode="&#x2074;" horiz-adv-x="387" 
d="M28 486v57l193 253h89v-240h53v-70h-53v-84h-93v84h-189zM127 555q17 1 66 1h24v27q0 47 3 96z" />
    <glyph glyph-name="fivesuperior" unicode="&#x2075;" horiz-adv-x="356" 
d="M23 422l26 73q49 -22 93 -22q69 0 69 53q0 32 -31 43q-16 6 -56 6h-72v214h262l-19 -79h-150v-65h19q47 0 77 -12q72 -25 72 -107q0 -58 -42 -94t-127 -36q-69 0 -121 26z" />
    <glyph glyph-name="sixsuperior" unicode="&#x2076;" horiz-adv-x="368" 
d="M194 396q-69 0 -113.5 47t-44.5 140t51 154t137 61q53 0 99 -20l-24 -73q-34 16 -69 16q-34 0 -59.5 -21t-32.5 -62h2q34 18 75 18q55 0 90 -33.5t35 -90.5q0 -62 -41.5 -99t-104.5 -37zM196 471q23 0 36 15t13 40t-15 40t-39 15q-27 0 -54 -19q-1 -43 15.5 -67t43.5 -24
z" />
    <glyph glyph-name="sevensuperior" unicode="&#x2077;" horiz-adv-x="333" 
d="M53 402q40 177 142 308h-159l-21 79h303v-52q-65 -74 -100.5 -151.5t-56.5 -183.5h-108z" />
    <glyph glyph-name="eightsuperior" unicode="&#x2078;" horiz-adv-x="387" 
d="M189 396q-72 0 -113 29.5t-41 80.5q0 70 68 97v2q-55 27 -55 83q0 49 39 79.5t104 30.5q69 0 107 -30.5t38 -80.5q0 -58 -53 -80v-2q69 -24 69 -91q0 -54 -44 -86t-119 -32zM192 473q23 0 40.5 11t17.5 32q0 36 -74 55q-17 -5 -29.5 -18.5t-12.5 -33.5q0 -22 16.5 -34
t41.5 -12zM203 635q36 18 36 49q0 17 -13 28t-33 11q-21 0 -33.5 -10t-12.5 -27q0 -35 56 -51z" />
    <glyph glyph-name="ninesuperior" unicode="&#x2079;" horiz-adv-x="368" 
d="M143 396q-57 0 -104 21l24 75q33 -19 77 -19q85 0 95 87h-2q-35 -22 -80 -22q-53 0 -88.5 31t-35.5 91q0 62 40.5 100t104.5 38q72 0 115.5 -47.5t43.5 -142.5q0 -101 -50.5 -156.5t-139.5 -55.5zM177 612q34 0 58 26q-1 85 -60 85q-24 0 -38 -15t-14 -40q0 -26 14.5 -41
t39.5 -15z" />
    <glyph glyph-name="plussuperior" unicode="&#x207a;" horiz-adv-x="399" 
d="M159 434v125h-114v74h114v121h80v-121h115v-74h-115v-125h-80z" />
    <glyph glyph-name="minussuperior" unicode="&#x207b;" horiz-adv-x="399" 
d="M45 559v74h309v-74h-309z" />
    <glyph glyph-name="equalsuperior" unicode="&#x207c;" horiz-adv-x="399" 
d="M45 627v74h309v-74h-309zM45 491v74h309v-74h-309z" />
    <glyph glyph-name="parenleftsuperior" unicode="&#x207d;" horiz-adv-x="229" 
d="M143 357q-103 88 -103 239t103 239l57 -45q-68 -77 -68 -194q0 -119 68 -194z" />
    <glyph glyph-name="parenrightsuperior" unicode="&#x207e;" horiz-adv-x="229" 
d="M29 402q68 75 68 194q0 117 -68 194l57 45q103 -88 103 -239t-103 -239z" />
    <glyph glyph-name="n.superior" unicode="&#x207f;" horiz-adv-x="394" 
d="M45 270v332h78l7 -34q56 43 113 43q46 0 77.5 -29.5t31.5 -92.5v-219h-91v198q0 62 -48 62q-34 0 -77 -30v-230h-91z" />
    <glyph glyph-name="zeroinferior" unicode="&#x2080;" horiz-adv-x="387" 
d="M193 -186q-71 0 -114 52.5t-43 149.5q0 96 43 148t115 52q71 0 114.5 -52.5t43.5 -148.5t-43.5 -148.5t-115.5 -52.5zM194 -109q57 0 57 123q0 125 -58 125q-57 0 -57 -122q0 -126 58 -126z" />
    <glyph glyph-name="oneinferior" unicode="&#x2081;" horiz-adv-x="349" 
d="M176 -180v297l-116 -43l-31 75l165 65h75v-394h-93z" />
    <glyph glyph-name="twoinferior" unicode="&#x2082;" horiz-adv-x="349" 
d="M22 -180q2 51 21.5 92t46.5 66t54 45t45.5 38.5t18.5 35.5q0 38 -49 38q-36 0 -101 -29l-24 73q78 37 147 37q63 0 96 -29t33 -78q0 -30 -15 -55t-37.5 -43t-45.5 -34t-42.5 -35.5t-25.5 -40.5h169v-81h-291z" />
    <glyph glyph-name="threeinferior" unicode="&#x2083;" horiz-adv-x="348" 
d="M15 -160l25 71q43 -20 91 -20q70 0 70 48q0 28 -29 38q-16 6 -51 6h-49v69h38q30 0 49 7q29 12 29 40q0 39 -50 39q-37 0 -90 -22l-23 71q73 29 136 29q61 0 95 -28t34 -72q0 -64 -66 -91v-2q38 -7 59 -30.5t21 -60.5q0 -52 -43.5 -85t-124.5 -33q-67 0 -121 26z" />
    <glyph glyph-name="fourinferior" unicode="&#x2084;" horiz-adv-x="387" 
d="M28 -96v57l193 253h89v-240h53v-70h-53v-84h-93v84h-189zM127 -27q17 1 66 1h24v27q0 47 3 96z" />
    <glyph glyph-name="fiveinferior" unicode="&#x2085;" horiz-adv-x="356" 
d="M23 -160l26 73q49 -22 93 -22q69 0 69 53q0 32 -31 43q-16 6 -56 6h-72v214h262l-19 -79h-150v-65h19q47 0 77 -12q72 -25 72 -107q0 -58 -42 -94t-127 -36q-69 0 -121 26z" />
    <glyph glyph-name="sixinferior" unicode="&#x2086;" horiz-adv-x="368" 
d="M194 -186q-69 0 -113.5 47t-44.5 140t51 154t137 61q53 0 99 -20l-24 -73q-34 16 -69 16q-34 0 -59.5 -21t-32.5 -62h2q34 18 75 18q55 0 90 -33.5t35 -90.5q0 -62 -41.5 -99t-104.5 -37zM196 -111q23 0 36 15t13 40t-15 40t-39 15q-27 0 -54 -19q-1 -43 15.5 -67
t43.5 -24z" />
    <glyph glyph-name="seveninferior" unicode="&#x2087;" horiz-adv-x="333" 
d="M53 -180q40 177 142 308h-159l-21 79h303v-52q-65 -74 -100.5 -151.5t-56.5 -183.5h-108z" />
    <glyph glyph-name="eightinferior" unicode="&#x2088;" horiz-adv-x="387" 
d="M189 -186q-72 0 -113 29.5t-41 80.5q0 70 68 97v2q-55 27 -55 83q0 49 39 79.5t104 30.5q69 0 107 -30.5t38 -80.5q0 -58 -53 -80v-2q69 -24 69 -91q0 -54 -44 -86t-119 -32zM192 -109q23 0 40.5 11t17.5 32q0 36 -74 55q-17 -5 -29.5 -18.5t-12.5 -33.5q0 -22 16.5 -34
t41.5 -12zM203 53q36 18 36 49q0 17 -13 28t-33 11q-21 0 -33.5 -10t-12.5 -27q0 -35 56 -51z" />
    <glyph glyph-name="nineinferior" unicode="&#x2089;" horiz-adv-x="368" 
d="M143 -186q-57 0 -104 21l24 75q33 -19 77 -19q85 0 95 87h-2q-35 -22 -80 -22q-53 0 -88.5 31t-35.5 91q0 62 40.5 100t104.5 38q72 0 115.5 -47.5t43.5 -142.5q0 -101 -50.5 -156.5t-139.5 -55.5zM177 30q34 0 58 26q-1 85 -60 85q-24 0 -38 -15t-14 -40q0 -26 14.5 -41
t39.5 -15z" />
    <glyph glyph-name="plusinferior" unicode="&#x208a;" horiz-adv-x="399" 
d="M159 -148v125h-114v74h114v121h80v-121h115v-74h-115v-125h-80z" />
    <glyph glyph-name="minusinferior" unicode="&#x208b;" horiz-adv-x="399" 
d="M45 -23v74h309v-74h-309z" />
    <glyph glyph-name="equalinferior" unicode="&#x208c;" horiz-adv-x="399" 
d="M45 45v74h309v-74h-309zM45 -91v74h309v-74h-309z" />
    <glyph glyph-name="parenleftinferior" unicode="&#x208d;" horiz-adv-x="229" 
d="M143 -225q-103 88 -103 239t103 239l57 -45q-68 -77 -68 -194q0 -119 68 -194z" />
    <glyph glyph-name="parenrightinferior" unicode="&#x208e;" horiz-adv-x="229" 
d="M29 -180q68 75 68 194q0 117 -68 194l57 45q103 -88 103 -239t-103 -239z" />
    <glyph glyph-name="Euro" unicode="&#x20ac;" horiz-adv-x="545" 
d="M484 129l45 -94q-69 -45 -170 -45q-109 0 -177.5 58.5t-91.5 160.5h-69v75h58q-2 26 -2 39q0 24 3 48h-59v75h73q28 99 98.5 159t171.5 60q79 0 136 -30v-112q-62 38 -123 38q-52 0 -91 -30t-59 -85h243l-25 -75h-236q-3 -18 -3 -45q0 -24 2 -42h230l-26 -75h-188
q40 -115 146 -115q63 0 114 35z" />
    <glyph glyph-name="litre" unicode="&#x2113;" horiz-adv-x="513" 
d="M35 125l-26 103q46 10 94 26v134q0 144 55.5 210.5t141.5 66.5q77 0 116 -42.5t39 -110.5q0 -96 -62 -177.5t-168 -137.5q12 -101 92 -101q57 0 110 41l45 -93q-82 -54 -174 -54q-74 0 -123 40t-64 118q-21 -8 -76 -23zM221 387v-75q114 77 114 200q0 58 -38 58
q-33 0 -54.5 -46t-21.5 -137z" />
    <glyph glyph-name="numero" unicode="&#x2116;" horiz-adv-x="1071" 
d="M66 0v659h119l225 -344q36 -57 64 -108h3q-4 47 -4 113v339h120v-659h-110l-234 359q-36 55 -65 107h-3q5 -41 5 -104v-362h-120zM673 132v71h329v-71h-329zM837 263q-74 0 -121.5 49t-47.5 125t47.5 125t121.5 49q75 0 122.5 -49t47.5 -125t-47.5 -125t-122.5 -49z
M837 339q35 0 56 27.5t21 70.5t-21 70.5t-56 27.5t-55.5 -27.5t-20.5 -70.5t20.5 -70.5t55.5 -27.5z" />
    <glyph glyph-name="published" unicode="&#x2117;" horiz-adv-x="770" 
d="M385 -10q-146 0 -239 96t-93 241t93 241t239 96q145 0 238 -96t93 -241t-93 -241t-238 -96zM385 51q114 0 188 77.5t74 198.5t-74 198.5t-188 77.5t-188.5 -77.5t-74.5 -198.5t74.5 -198.5t188.5 -77.5zM279 130v391h109q73 0 111.5 -35t38.5 -97q0 -59 -38.5 -95
t-110.5 -36h-38v-128h-72zM351 323h41q73 0 73 66q0 29 -15.5 48.5t-51.5 19.5h-47v-134z" />
    <glyph glyph-name="published" unicode="&#x24c5;" horiz-adv-x="770" 
d="M385 -10q-146 0 -239 96t-93 241t93 241t239 96q145 0 238 -96t93 -241t-93 -241t-238 -96zM385 51q114 0 188 77.5t74 198.5t-74 198.5t-188 77.5t-188.5 -77.5t-74.5 -198.5t74.5 -198.5t188.5 -77.5zM279 130v391h109q73 0 111.5 -35t38.5 -97q0 -59 -38.5 -95
t-110.5 -36h-38v-128h-72zM351 323h41q73 0 73 66q0 29 -15.5 48.5t-51.5 19.5h-47v-134z" />
    <glyph glyph-name="trademark" unicode="&#x2122;" horiz-adv-x="868" 
d="M128 264v316h-112v79h334l-19 -79h-106v-316h-97zM376 264v395h84l85 -120q21 -30 44 -70h2q17 31 41 67l84 123h89v-395h-97v176q0 40 3 72h-2q-14 -27 -34 -56l-63 -90h-43l-62 90q-24 35 -35 56h-2q3 -21 3 -72v-176h-97z" />
    <glyph glyph-name="estimated" unicode="&#x212e;" horiz-adv-x="754" 
d="M590 119h90q-103 -129 -304 -129q-146 0 -248.5 84.5t-102.5 226.5q0 143 103 226.5t252 83.5q86 0 154.5 -28t110.5 -74.5t63.5 -104t19.5 -119.5h-556v-160q32 -46 88 -71.5t121 -25.5q134 0 209 91zM172 324h414v152q-68 97 -206 97q-139 0 -208 -97v-152z" />
    <glyph glyph-name="partialdiff" unicode="&#x2202;" horiz-adv-x="534" 
d="M228 -10q-91 0 -144.5 53.5t-53.5 146.5q0 109 67.5 177t169.5 68q54 0 97 -21l2 1q-11 72 -49 113.5t-98 41.5q-65 0 -129 -35l-33 85q79 45 171 45q128 0 197.5 -85t69.5 -227q0 -165 -74 -264t-193 -99zM238 85q53 0 91.5 58.5t42.5 172.5q-40 24 -88 24
q-58 0 -95 -41t-37 -107q0 -51 24 -79t62 -28z" />
    <glyph glyph-name="Delta" unicode="&#x2206;" horiz-adv-x="625" 
d="M8 0l256 662h97l256 -662h-609zM165 99h296l-118 321q-23 62 -29 90h-1q-9 -31 -30 -90z" />
    <glyph glyph-name="product" unicode="&#x220f;" horiz-adv-x="687" 
d="M103 -180v741h-89v98h671l-31 -98h-88v-741h-121v741h-222v-741h-120z" />
    <glyph glyph-name="summation" unicode="&#x2211;" horiz-adv-x="609" 
d="M9 -181l276 429l-260 411h567l-30 -98h-327l192 -311l-207 -333h357v-98h-568z" />
    <glyph glyph-name="minus" unicode="&#x2212;" horiz-adv-x="550" 
d="M40 201v99h471v-99h-471z" />
    <glyph glyph-name="radical" unicode="&#x221a;" horiz-adv-x="694" 
d="M313 -122l-136 416l-98 -35l-32 92l207 76l83 -267q23 -79 36 -142h2q12 69 32 143l173 666h119l-263 -949h-123z" />
    <glyph glyph-name="infinity" unicode="&#x221e;" horiz-adv-x="768" 
d="M205 95q-81 0 -128 51t-47 125q0 75 47 126t128 51q92 0 178 -101q40 47 82.5 74t97.5 27q81 0 128 -51t47 -126q0 -74 -47 -125t-128 -51q-96 0 -180 101q-41 -48 -82.5 -74.5t-95.5 -26.5zM217 201q50 0 107 70q-58 71 -107 71q-30 0 -48.5 -19.5t-18.5 -51.5
q0 -31 19 -50.5t48 -19.5zM551 201q29 0 48 19.5t19 50.5q0 32 -18.5 51.5t-48.5 19.5q-29 0 -54 -18t-54 -53q59 -70 108 -70z" />
    <glyph glyph-name="integral" unicode="&#x222b;" horiz-adv-x="333" 
d="M-51 -216l23 98q33 -13 59 -13q58 0 58 65v605q0 82 43 125.5t117 43.5q56 0 99 -21l-23 -98q-33 13 -59 13q-58 0 -58 -65v-605q0 -82 -43 -125.5t-117 -43.5q-56 0 -99 21z" />
    <glyph glyph-name="approxequal" unicode="&#x2248;" horiz-adv-x="550" 
d="M81 287l-57 76q71 71 152 71q40 0 105 -28.5t97 -28.5q45 0 91 42l58 -76q-72 -71 -153 -71q-40 0 -105 28.5t-97 28.5q-25 0 -45 -9.5t-46 -32.5zM81 77l-57 76q71 71 152 71q40 0 105 -28.5t97 -28.5q45 0 91 42l58 -76q-72 -71 -153 -71q-40 0 -105 28.5t-97 28.5
q-25 0 -45 -9.5t-46 -32.5z" />
    <glyph glyph-name="notequal" unicode="&#x2260;" horiz-adv-x="550" 
d="M101 8l44 91h-105v99h153l50 103h-203v99h251l42 85h119l-41 -85h100v-99h-148l-50 -103h198v-99h-246l-44 -91h-120z" />
    <glyph glyph-name="lessequal" unicode="&#x2264;" horiz-adv-x="550" 
d="M60 283v102l428 142v-99l-312 -93v-2l312 -94v-100zM40 0v99h471v-99h-471z" />
    <glyph glyph-name="greaterequal" unicode="&#x2265;" horiz-adv-x="550" 
d="M63 139v100l311 94v2l-311 93v99l427 -142v-102zM40 0v99h471v-99h-471z" />
    <glyph glyph-name="lozenge" unicode="&#x25ca;" horiz-adv-x="480" 
d="M187 0l-137 289l137 289h106l137 -289l-137 -289h-106zM240 98h2l88 191l-89 191h-2l-88 -191z" />
    <glyph glyph-name="fi.small" unicode="&#xf09c;" horiz-adv-x="693" 
d="M73 0v486h317l-32 -97h-166v-108h168v-90h-168v-191h-119zM500 0v486h119v-486h-119z" />
    <glyph glyph-name="fl.small" unicode="&#xf09d;" horiz-adv-x="806" 
d="M73 0v486h317l-32 -97h-166v-108h168v-90h-168v-191h-119zM500 0v486h119v-393h182v-93h-301z" />
    <glyph glyph-name="CR" horiz-adv-x="216" 
 />
    <glyph glyph-name="fi.cap" horiz-adv-x="760" 
d="M80 0v659h365l-31 -98h-214v-176h210v-98h-210v-287h-120zM560 0v659h120v-659h-120z" />
    <glyph glyph-name="fl.cap" horiz-adv-x="932" 
d="M80 0v659h365l-31 -98h-214v-176h210v-98h-210v-287h-120zM560 0v659h120v-561h234v-98h-354z" />
    <glyph glyph-name="germandbls.cap" horiz-adv-x="1047" 
d="M48 47l47 92q69 -48 149 -48q46 0 78 19t32 59q0 35 -29.5 62t-71 47t-83.5 43.5t-71.5 64.5t-29.5 97q0 76 57.5 129t156.5 53q95 0 161 -33v-110q-81 42 -157 42q-39 0 -64.5 -17t-25.5 -54q0 -33 29.5 -58.5t71.5 -45t83.5 -43.5t71 -66.5t29.5 -100.5
q0 -86 -66 -137.5t-169 -51.5q-118 0 -199 57zM565 47l47 92q69 -48 149 -48q46 0 78 19t32 59q0 26 -15.5 47t-41 36.5t-56 30.5t-60.5 33t-55.5 39.5t-41 54t-15.5 73.5q0 76 57.5 129t156.5 53q95 0 161 -33v-110q-81 42 -157 42q-39 0 -64.5 -17t-25.5 -54
q0 -33 29.5 -58.5t71 -45t83.5 -43.5t71.5 -66.5t29.5 -100.5q0 -86 -66 -137.5t-169 -51.5q-118 0 -199 57z" />
    <glyph glyph-name="A.small" horiz-adv-x="512" 
d="M7 0l203 488h89l206 -488h-123l-41 102h-171l-40 -102h-123zM200 188h110l-33 90q-11 31 -21 63h-2q-10 -32 -21 -63z" />
    <glyph glyph-name="B.small" horiz-adv-x="488" 
d="M73 0v486h188q74 0 116 -38t42 -92q0 -69 -55 -98v-2q41 -9 63 -37.5t22 -70.5q0 -63 -47 -105.5t-144 -42.5h-185zM192 87h58q79 0 79 61q0 58 -72 58h-65v-119zM192 286h50q28 0 44 16t16 41t-16.5 40.5t-47.5 15.5h-46v-113z" />
    <glyph glyph-name="C.small" horiz-adv-x="482" 
d="M426 116l33 -84q-72 -42 -169 -42q-116 0 -184.5 65.5t-68.5 178.5q0 119 74.5 189.5t188.5 70.5q80 0 132 -29v-96q-50 33 -118 33q-73 0 -114 -46.5t-41 -115.5q0 -71 39 -114.5t105 -43.5q68 0 123 34z" />
    <glyph glyph-name="D.small" horiz-adv-x="553" 
d="M73 0v486h163q133 0 206.5 -64t73.5 -175q0 -113 -79 -180t-209 -67h-155zM192 97h45q157 0 157 146t-162 146h-40v-292z" />
    <glyph glyph-name="E.small" horiz-adv-x="434" 
d="M73 0v486h317l-32 -92h-166v-104h168v-90h-168v-108h190v-92h-309z" />
    <glyph glyph-name="F.small" horiz-adv-x="427" 
d="M73 0v486h317l-32 -97h-166v-108h168v-90h-168v-191h-119z" />
    <glyph glyph-name="G.small" 
d="M479 239v-217q-74 -32 -175 -32q-125 0 -196 65t-71 179q0 118 77 189t195 71q80 0 148 -28v-100q-59 36 -134 36q-80 0 -122 -47t-42 -114q0 -73 40 -116t108 -43q32 0 53 7v150h119z" />
    <glyph glyph-name="H.small" horiz-adv-x="597" 
d="M73 0v486h119v-191h213v191h119v-486h-119v198h-213v-198h-119z" />
    <glyph glyph-name="I.small" horiz-adv-x="265" 
d="M73 0v486h119v-486h-119z" />
    <glyph glyph-name="J.small" horiz-adv-x="273" 
d="M-46 -123l27 89q20 -8 44 -8q59 0 59 72v456h119v-475q0 -72 -42 -110t-123 -38q-43 0 -84 14z" />
    <glyph glyph-name="K.small" horiz-adv-x="499" 
d="M73 0v486h119v-205h2l158 205h129l-195 -245l208 -241h-139l-161 194h-2v-194h-119z" />
    <glyph glyph-name="L.small" horiz-adv-x="379" 
d="M73 0v486h119v-393h182v-93h-301z" />
    <glyph glyph-name="M.small" horiz-adv-x="671" 
d="M73 0v486h102l91 -131q47 -66 69 -104h2q16 28 70 104l90 131h101v-486h-119v213q0 52 2 88h-2q-11 -21 -47 -73l-70 -104h-52l-71 104q-33 48 -47 73h-2q2 -19 2 -92v-209h-119z" />
    <glyph glyph-name="N.small" horiz-adv-x="616" 
d="M73 0v486h112l172 -219q49 -61 68 -93h2q-3 44 -3 96v216h119v-486h-107l-180 232q-42 54 -64 87h-2q2 -52 2 -87v-232h-119z" />
    <glyph glyph-name="O.small" horiz-adv-x="574" 
d="M287 -10q-113 0 -181.5 69.5t-68.5 182.5q0 112 68.5 182t181.5 70t181.5 -70t68.5 -182q0 -113 -68.5 -182.5t-181.5 -69.5zM287 82q59 0 93.5 43.5t34.5 116.5t-34.5 116.5t-93.5 43.5t-93.5 -43.5t-34.5 -116.5t34.5 -116.5t93.5 -43.5z" />
    <glyph glyph-name="P.small" horiz-adv-x="458" 
d="M73 0v486h160q90 0 138 -43.5t48 -121.5q0 -74 -49 -119.5t-143 -45.5h-35v-156h-119zM192 247h35q38 0 56.5 20.5t18.5 53.5q0 74 -73 74h-37v-148z" />
    <glyph glyph-name="Q.small" horiz-adv-x="574" 
d="M198 4q-75 23 -118 86.5t-43 151.5q0 112 68.5 182t181.5 70t181.5 -70t68.5 -182q0 -100 -54.5 -167t-146.5 -80q28 -37 91 -37q31 0 52 9l26 -89q-36 -15 -87 -15q-145 0 -220 141zM287 82q59 0 93.5 43.5t34.5 116.5t-34.5 116.5t-93.5 43.5t-93.5 -43.5t-34.5 -116.5
t34.5 -116.5t93.5 -43.5z" />
    <glyph glyph-name="R.small" horiz-adv-x="491" 
d="M73 0v486h177q95 0 138 -41.5t43 -101.5q0 -95 -91 -127v-2q19 -13 53 -69l88 -145h-126l-72 117q-30 50 -47 55h-44v-172h-119zM192 262h50q34 0 53 18t19 49q0 29 -18.5 47.5t-53.5 18.5h-50v-133z" />
    <glyph glyph-name="S.small" horiz-adv-x="420" 
d="M37 31l39 86q61 -35 117 -35q30 0 51.5 12.5t21.5 38.5q0 24 -21.5 41t-52.5 29.5t-62 29t-52.5 47.5t-21.5 75q0 62 45.5 100.5t126.5 38.5q70 0 133 -24v-100q-67 33 -126 33q-60 0 -60 -44q0 -22 21.5 -37.5t52.5 -27.5t62 -28t52.5 -48t21.5 -78q0 -69 -52 -109.5
t-133 -40.5q-87 0 -163 41z" />
    <glyph glyph-name="T.small" horiz-adv-x="434" 
d="M155 0v393h-143v93h422l-27 -93h-133v-393h-119z" />
    <glyph glyph-name="U.small" horiz-adv-x="575" 
d="M506 486v-297q0 -100 -60 -149.5t-160 -49.5q-99 0 -158.5 49.5t-59.5 148.5v298h119v-290q0 -54 26.5 -82t73.5 -28t73.5 28t26.5 82v290h119z" />
    <glyph glyph-name="V.small" horiz-adv-x="523" 
d="M215 -3l-209 489h124l101 -258l10.5 -29.5t11 -33t7.5 -24.5h2q13 45 29 86l101 259h125l-212 -489h-90z" />
    <glyph glyph-name="W.small" horiz-adv-x="729" 
d="M180 -3l-174 489h126l75 -239q21 -62 28 -102h2q5 18 34 105l48 135l-34 101h117l71 -235q21 -74 28 -107h2q5 24 30 106l75 236h115l-175 -489h-97l-55 159q-20 55 -29 93h-2q-8 -30 -34 -97l-58 -155h-93z" />
    <glyph glyph-name="X.small" horiz-adv-x="511" 
d="M6 0l185 246l-178 240h126l118 -160l119 160h125l-179 -241l183 -245h-126l-123 166l-125 -166h-125z" />
    <glyph glyph-name="Y.small" horiz-adv-x="462" 
d="M170 0v187l-164 299h123l62 -123q23 -45 39 -87h2q26 63 38 87l63 123h123l-167 -299v-187h-119z" />
    <glyph glyph-name="Z.small" horiz-adv-x="461" 
d="M26 0l231 393h-197l-29 93h408l-231 -393h224v-93h-406z" />
    <glyph glyph-name="Agrave.small" horiz-adv-x="512" 
d="M7 0l203 488h89l206 -488h-123l-41 102h-171l-40 -102h-123zM200 188h110l-33 90q-11 31 -21 63h-2q-10 -32 -21 -63zM222 540l-97 147h130l58 -147h-91z" />
    <glyph glyph-name="Aacute.small" horiz-adv-x="512" 
d="M7 0l203 488h89l206 -488h-123l-41 102h-171l-40 -102h-123zM200 188h110l-33 90q-11 31 -21 63h-2q-10 -32 -21 -63zM192 540l58 147h130l-97 -147h-91z" />
    <glyph glyph-name="Acircumflex.small" horiz-adv-x="512" 
d="M7 0l203 488h89l206 -488h-123l-41 102h-171l-40 -102h-123zM200 188h110l-33 90q-11 31 -21 63h-2q-10 -32 -21 -63zM104 540l100 147h96l101 -147h-94l-55 79l-54 -79h-94z" />
    <glyph glyph-name="Atilde.small" horiz-adv-x="512" 
d="M7 0l203 488h89l206 -488h-123l-41 102h-171l-40 -102h-123zM200 188h110l-33 90q-11 31 -21 63h-2q-10 -32 -21 -63zM96 556v39q0 39 23 61t59 22q32 0 75.5 -22t55.5 -22q14 0 18 8.5t4 29.5h78v-39q0 -39 -23 -61t-59 -22q-31 0 -75 22t-56 22q-14 0 -18 -8.5
t-4 -29.5h-78z" />
    <glyph glyph-name="Adieresis.small" horiz-adv-x="512" 
d="M7 0l203 488h89l206 -488h-123l-41 102h-171l-40 -102h-123zM200 188h110l-33 90q-11 31 -21 63h-2q-10 -32 -21 -63zM157 553q-25 0 -43 18t-18 43q0 26 18 44t43 18q26 0 44 -18t18 -44q0 -25 -18 -43t-44 -18zM348 553q-26 0 -43.5 17.5t-17.5 43.5t17.5 44t43.5 18
q25 0 43 -18t18 -44q0 -25 -18 -43t-43 -18z" />
    <glyph glyph-name="Amacron.small" horiz-adv-x="512" 
d="M7 0l203 488h89l206 -488h-123l-41 102h-171l-40 -102h-123zM200 188h110l-33 90q-11 31 -21 63h-2q-10 -32 -21 -63zM110 578v90h285v-90h-285z" />
    <glyph glyph-name="Abreve.small" horiz-adv-x="512" 
d="M317 689h82q-4 -65 -43.5 -102t-103.5 -37q-63 0 -102.5 37t-43.5 102h83q3 -30 19.5 -47.5t44.5 -17.5t44.5 17.5t19.5 47.5zM7 0l203 488h89l206 -488h-123l-41 102h-171l-40 -102h-123zM200 188h110l-33 90q-11 31 -21 63h-2q-10 -32 -21 -63z" />
    <glyph glyph-name="Aring.small" horiz-adv-x="512" 
d="M7 0l202 487q-71 20 -71 91q0 44 32.5 70.5t84.5 26.5t84 -26.5t32 -70.5q0 -72 -72 -92l206 -486h-123l-41 102h-171l-40 -102h-123zM200 188h110l-33 90q-11 31 -21 63h-2q-10 -32 -21 -63zM255 532q18 0 29 12t11 34q0 21 -11 33t-29 12q-41 0 -41 -45q0 -22 11 -34
t30 -12z" />
    <glyph glyph-name="Aringacute.small" horiz-adv-x="512" 
d="M7 0l202 487q-71 20 -71 91q0 38 25 63.5t67 31.5l49 125h130l-91 -136q53 -26 53 -84q0 -72 -72 -92l206 -486h-123l-41 102h-171l-40 -102h-123zM200 188h110l-33 90q-11 31 -21 63h-2q-10 -32 -21 -63zM255 532q18 0 29 12t11 34q0 21 -11 33t-29 12q-41 0 -41 -45
q0 -22 11 -34t30 -12z" />
    <glyph glyph-name="Aogonek.small" horiz-adv-x="512" 
d="M200 188h110l-33 90q-11 31 -21 63h-2q-10 -32 -21 -63zM299 488l206 -488q-52 -16 -85 -47t-33 -62q0 -35 34 -35q16 0 37 6l13 -64q-41 -12 -79 -12q-49 0 -76.5 23t-27.5 62q0 69 92 132l-39 99h-171l-40 -102h-123l203 488h89z" />
    <glyph glyph-name="AE.small" horiz-adv-x="687" 
d="M7 0l276 486h360l-32 -92h-217l25 -104h194v-90h-173l26 -108h170v-92h-260l-24 102h-170l-54 -102h-121zM224 188h112l-18 84q-10 45 -14 70h-2q-11 -27 -31 -64z" />
    <glyph glyph-name="AEacute.small" horiz-adv-x="687" 
d="M7 0l276 486h360l-32 -92h-217l25 -104h194v-90h-173l26 -108h170v-92h-260l-24 102h-170l-54 -102h-121zM224 188h112l-18 84q-10 45 -14 70h-2q-11 -27 -31 -64zM346 540l58 147h130l-97 -147h-91z" />
    <glyph glyph-name="Cacute.small" horiz-adv-x="482" 
d="M426 116l33 -84q-72 -42 -169 -42q-116 0 -184.5 65.5t-68.5 178.5q0 119 74.5 189.5t188.5 70.5q80 0 132 -29v-96q-50 33 -118 33q-73 0 -114 -46.5t-41 -115.5q0 -71 39 -114.5t105 -43.5q68 0 123 34zM226 540l58 147h130l-97 -147h-91z" />
    <glyph glyph-name="Ccircumflex.small" horiz-adv-x="482" 
d="M426 116l33 -84q-72 -42 -169 -42q-116 0 -184.5 65.5t-68.5 178.5q0 119 74.5 189.5t188.5 70.5q80 0 132 -29v-96q-50 33 -118 33q-73 0 -114 -46.5t-41 -115.5q0 -71 39 -114.5t105 -43.5q68 0 123 34zM122 540l100 147h96l101 -147h-94l-55 79l-54 -79h-94z" />
    <glyph glyph-name="Ccaron.small" horiz-adv-x="482" 
d="M426 116l33 -84q-72 -42 -169 -42q-116 0 -184.5 65.5t-68.5 178.5q0 119 74.5 189.5t188.5 70.5q80 0 132 -29v-96q-50 33 -118 33q-73 0 -114 -46.5t-41 -115.5q0 -71 39 -114.5t105 -43.5q68 0 123 34zM227 540l-101 147h95l55 -78l54 78h93l-100 -147h-96z" />
    <glyph glyph-name="Cdotaccent.small" horiz-adv-x="482" 
d="M426 116l33 -84q-72 -42 -169 -42q-116 0 -184.5 65.5t-68.5 178.5q0 119 74.5 189.5t188.5 70.5q80 0 132 -29v-96q-50 33 -118 33q-73 0 -114 -46.5t-41 -115.5q0 -71 39 -114.5t105 -43.5q68 0 123 34zM276 559q-31 0 -52.5 20.5t-21.5 50.5t21.5 51t52.5 21t52 -20.5
t21 -51.5q0 -30 -21 -50.5t-52 -20.5z" />
    <glyph glyph-name="Ccedilla.small" horiz-adv-x="482" 
d="M161 -201l16 55q26 -8 47 -8q50 0 50 32q0 21 -20.5 27.5t-61.5 6.5l27 86q-85 17 -133.5 79t-48.5 157q0 119 74.5 189.5t188.5 70.5q80 0 132 -29v-96q-50 33 -118 33q-73 0 -114 -46.5t-41 -115.5q0 -71 39 -114.5t105 -43.5q68 0 123 34l33 -84q-67 -38 -155 -41
l-12 -40q84 -8 84 -74q0 -40 -35.5 -64.5t-105.5 -24.5q-41 0 -74 11z" />
    <glyph glyph-name="Dcaron.small" horiz-adv-x="553" 
d="M73 0v486h163q133 0 206.5 -64t73.5 -175q0 -113 -79 -180t-209 -67h-155zM192 97h45q157 0 157 146t-162 146h-40v-292zM208 540l-101 147h95l55 -78l54 78h93l-100 -147h-96z" />
    <glyph glyph-name="Dcroat.small" horiz-adv-x="553" 
d="M87 0v206h-54v80h54v200h163q133 0 206.5 -64t73.5 -175q0 -113 -79 -180t-209 -67h-155zM206 97h45q157 0 157 146t-162 146h-40v-103h96v-80h-96v-109z" />
    <glyph glyph-name="Egrave.small" horiz-adv-x="434" 
d="M73 0v486h317l-32 -92h-166v-104h168v-90h-168v-108h190v-92h-309zM192 540l-97 147h130l58 -147h-91z" />
    <glyph glyph-name="Eacute.small" horiz-adv-x="434" 
d="M73 0v486h317l-32 -92h-166v-104h168v-90h-168v-108h190v-92h-309zM167 540l58 147h130l-97 -147h-91z" />
    <glyph glyph-name="Ecircumflex.small" horiz-adv-x="434" 
d="M73 0v486h317l-32 -92h-166v-104h168v-90h-168v-108h190v-92h-309zM77 540l100 147h96l101 -147h-94l-55 79l-54 -79h-94z" />
    <glyph glyph-name="Ecaron.small" horiz-adv-x="434" 
d="M73 0v486h317l-32 -92h-166v-104h168v-90h-168v-108h190v-92h-309zM178 540l-101 147h95l55 -78l54 78h93l-100 -147h-96z" />
    <glyph glyph-name="Edieresis.small" horiz-adv-x="434" 
d="M73 0v486h317l-32 -92h-166v-104h168v-90h-168v-108h190v-92h-309zM133 553q-25 0 -43 18t-18 43q0 26 18 44t43 18q26 0 44 -18t18 -44q0 -25 -18 -43t-44 -18zM324 553q-26 0 -43.5 17.5t-17.5 43.5t17.5 44t43.5 18q25 0 43 -18t18 -44q0 -25 -18 -43t-43 -18z" />
    <glyph glyph-name="Emacron.small" horiz-adv-x="434" 
d="M73 0v486h317l-32 -92h-166v-104h168v-90h-168v-108h190v-92h-309zM84 578v90h285v-90h-285z" />
    <glyph glyph-name="Ebreve.small" horiz-adv-x="434" 
d="M73 0v486h317l-32 -92h-166v-104h168v-90h-168v-108h190v-92h-309zM290 689h82q-4 -65 -43.5 -102t-103.5 -37q-63 0 -102.5 37t-43.5 102h83q3 -30 19.5 -47.5t44.5 -17.5t44.5 17.5t19.5 47.5z" />
    <glyph glyph-name="Edotaccent.small" horiz-adv-x="434" 
d="M73 0v486h317l-32 -92h-166v-104h168v-90h-168v-108h190v-92h-309zM226 559q-31 0 -52.5 20.5t-21.5 50.5t21.5 51t52.5 21t52 -20.5t21 -51.5q0 -30 -21 -50.5t-52 -20.5z" />
    <glyph glyph-name="Eogonek.small" horiz-adv-x="434" 
d="M73 0v486h317l-32 -92h-166v-104h168v-90h-168v-108h190v-92h-22q-98 -48 -98 -109q0 -35 34 -35q16 0 37 6l13 -64q-40 -12 -79 -12q-49 0 -76.5 23t-27.5 62q0 68 88 129h-178z" />
    <glyph glyph-name="Gcircumflex.small" 
d="M479 239v-217q-74 -32 -175 -32q-125 0 -196 65t-71 179q0 118 77 189t195 71q80 0 148 -28v-100q-59 36 -134 36q-80 0 -122 -47t-42 -114q0 -73 40 -116t108 -43q32 0 53 7v150h119zM134 540l100 147h96l101 -147h-94l-55 79l-54 -79h-94z" />
    <glyph glyph-name="Gbreve.small" 
d="M347 689h82q-4 -65 -43.5 -102t-103.5 -37q-63 0 -102.5 37t-43.5 102h83q3 -30 19.5 -47.5t44.5 -17.5t44.5 17.5t19.5 47.5zM479 239v-217q-74 -32 -175 -32q-125 0 -196 65t-71 179q0 118 77 189t195 71q80 0 148 -28v-100q-59 36 -134 36q-80 0 -122 -47t-42 -114
q0 -73 40 -116t108 -43q32 0 53 7v150h119z" />
    <glyph glyph-name="Gdotaccent.small" 
d="M479 239v-217q-74 -32 -175 -32q-125 0 -196 65t-71 179q0 118 77 189t195 71q80 0 148 -28v-100q-59 36 -134 36q-80 0 -122 -47t-42 -114q0 -73 40 -116t108 -43q32 0 53 7v150h119zM281 559q-31 0 -52.5 20.5t-21.5 50.5t21.5 51t52.5 21t52 -20.5t21 -51.5
q0 -30 -21 -50.5t-52 -20.5z" />
    <glyph glyph-name="Gcommaaccent.small" 
d="M479 239v-217q-74 -32 -175 -32q-125 0 -196 65t-71 179q0 118 77 189t195 71q80 0 148 -28v-100q-59 36 -134 36q-80 0 -122 -47t-42 -114q0 -73 40 -116t108 -43q32 0 53 7v150h119zM212 -237l-29 72q74 15 74 61q0 25 -20 52h102q23 -34 23 -72q0 -95 -150 -113z" />
    <glyph glyph-name="Hcircumflex.small" horiz-adv-x="597" 
d="M73 0v486h119v-191h213v191h119v-486h-119v198h-213v-198h-119zM151 540l100 147h96l101 -147h-94l-55 79l-54 -79h-94z" />
    <glyph glyph-name="Hbar.small" horiz-adv-x="597" 
d="M73 0v355h-47v73h47v58h119v-58h213v58h119v-58h47v-73h-47v-355h-119v198h-213v-198h-119zM192 295h213v60h-213v-60z" />
    <glyph glyph-name="Igrave.small" horiz-adv-x="265" 
d="M73 0v486h119v-486h-119zM103 540l-97 147h130l58 -147h-91z" />
    <glyph glyph-name="Iacute.small" horiz-adv-x="265" 
d="M73 0v486h119v-486h-119zM70 540l58 147h130l-97 -147h-91z" />
    <glyph glyph-name="Icircumflex.small" horiz-adv-x="265" 
d="M73 0v486h119v-486h-119zM-15 540l100 147h96l101 -147h-94l-55 79l-54 -79h-94z" />
    <glyph glyph-name="Itilde.small" horiz-adv-x="265" 
d="M73 0v486h119v-486h-119zM-23 556v39q0 39 23 61t59 22q32 0 75.5 -22t55.5 -22q14 0 18 8.5t4 29.5h78v-39q0 -39 -23 -61t-59 -22q-31 0 -75 22t-56 22q-14 0 -18 -8.5t-4 -29.5h-78z" />
    <glyph glyph-name="Idieresis.small" horiz-adv-x="265" 
d="M73 0v486h119v-486h-119zM38 553q-25 0 -43 18t-18 43q0 26 18 44t43 18q26 0 44 -18t18 -44q0 -25 -18 -43t-44 -18zM229 553q-25 0 -43 17.5t-18 43.5t17.5 44t43.5 18q25 0 43 -18t18 -44q0 -25 -18 -43t-43 -18z" />
    <glyph glyph-name="Imacron.small" horiz-adv-x="265" 
d="M73 0v486h119v-486h-119zM-9 578v90h285v-90h-285z" />
    <glyph glyph-name="Ibreve.small" horiz-adv-x="265" 
d="M73 0v486h119v-486h-119zM198 689h82q-4 -65 -43.5 -102t-103.5 -37q-63 0 -102.5 37t-43.5 102h83q3 -30 19.5 -47.5t44.5 -17.5t44.5 17.5t19.5 47.5z" />
    <glyph glyph-name="Idotaccent.small" horiz-adv-x="265" 
d="M73 0v486h119v-486h-119zM134 559q-31 0 -52.5 20.5t-21.5 50.5t21.5 51t52.5 21t52 -20.5t21 -51.5q0 -30 -21 -50.5t-52 -20.5z" />
    <glyph glyph-name="Iogonek.small" horiz-adv-x="265" 
d="M73 3v483h119v-486q-85 -46 -85 -107q0 -37 35 -37q15 0 36 6l13 -64q-39 -12 -76 -12q-51 0 -79 24t-28 68q0 67 65 125z" />
    <glyph glyph-name="dotlessi.small" horiz-adv-x="265" 
d="M73 0v486h119v-486h-119z" />
    <glyph glyph-name="IJ.small" horiz-adv-x="539" 
d="M73 0v486h119v-486h-119zM219 -123l27 89q20 -8 44 -8q59 0 59 72v456h119v-475q0 -72 -42 -110t-123 -38q-43 0 -84 14z" />
    <glyph glyph-name="Jcircumflex.small" horiz-adv-x="273" 
d="M-46 -123l27 89q20 -8 44 -8q59 0 59 72v456h119v-475q0 -72 -42 -110t-123 -38q-43 0 -84 14zM-8 540l100 147h96l101 -147h-94l-55 79l-54 -79h-94z" />
    <glyph glyph-name="Kcommaaccent.small" horiz-adv-x="499" 
d="M73 0v486h119v-205h2l158 205h129l-195 -245l208 -241h-139l-161 194h-2v-194h-119zM190 -237l-29 72q74 15 74 61q0 25 -20 52h102q23 -34 23 -72q0 -95 -150 -113z" />
    <glyph glyph-name="Lacute.small" horiz-adv-x="379" 
d="M73 0v486h119v-393h182v-93h-301zM74 540l58 147h130l-97 -147h-91z" />
    <glyph glyph-name="Lcaron.small" horiz-adv-x="382" 
d="M73 0v486h119v-393h182v-93h-301zM275 324l-45 75q40 21 40 66q0 32 -19 70h104q23 -39 23 -79q0 -92 -103 -132z" />
    <glyph glyph-name="Lcommaaccent.small" horiz-adv-x="379" 
d="M73 0v486h119v-393h182v-93h-301zM137 -237l-29 72q74 15 74 61q0 25 -20 52h102q23 -34 23 -72q0 -95 -150 -113z" />
    <glyph glyph-name="Lslash.small" horiz-adv-x="379" 
d="M19 132v107l54 31v216h119v-148l109 63v-107l-109 -63v-138h182v-93h-301v163z" />
    <glyph glyph-name="Ldot.small" horiz-adv-x="379" 
d="M73 0v486h119v-393h182v-93h-301zM322 201q-28 0 -47.5 20t-19.5 49t19.5 48.5t47.5 19.5q27 0 46.5 -19.5t19.5 -48.5t-19.5 -49t-46.5 -20z" />
    <glyph glyph-name="Nacute.small" horiz-adv-x="616" 
d="M73 0v486h112l172 -219q49 -61 68 -93h2q-3 44 -3 96v216h119v-486h-107l-180 232q-42 54 -64 87h-2q2 -52 2 -87v-232h-119zM250 540l58 147h130l-97 -147h-91z" />
    <glyph glyph-name="Ncaron.small" horiz-adv-x="616" 
d="M73 0v486h112l172 -219q49 -61 68 -93h2q-3 44 -3 96v216h119v-486h-107l-180 232q-42 54 -64 87h-2q2 -52 2 -87v-232h-119zM260 540l-101 147h95l55 -78l54 78h93l-100 -147h-96z" />
    <glyph glyph-name="Ntilde.small" horiz-adv-x="616" 
d="M73 0v486h112l172 -219q49 -61 68 -93h2q-3 44 -3 96v216h119v-486h-107l-180 232q-42 54 -64 87h-2q2 -52 2 -87v-232h-119zM154 556v39q0 39 23 61t59 22q32 0 75.5 -22t55.5 -22q14 0 18 8.5t4 29.5h78v-39q0 -39 -23 -61t-59 -22q-31 0 -75 22t-56 22q-14 0 -18 -8.5
t-4 -29.5h-78z" />
    <glyph glyph-name="Ncommaaccent.small" horiz-adv-x="616" 
d="M73 0v486h112l172 -219q49 -61 68 -93h2q-3 44 -3 96v216h119v-486h-107l-180 232q-42 54 -64 87h-2q2 -52 2 -87v-232h-119zM233 -237l-29 72q74 15 74 61q0 25 -20 52h102q23 -34 23 -72q0 -95 -150 -113z" />
    <glyph glyph-name="Ograve.small" horiz-adv-x="574" 
d="M287 -10q-113 0 -181.5 69.5t-68.5 182.5q0 112 68.5 182t181.5 70t181.5 -70t68.5 -182q0 -113 -68.5 -182.5t-181.5 -69.5zM287 82q59 0 93.5 43.5t34.5 116.5t-34.5 116.5t-93.5 43.5t-93.5 -43.5t-34.5 -116.5t34.5 -116.5t93.5 -43.5zM250 540l-97 147h130l58 -147
h-91z" />
    <glyph glyph-name="Oacute.small" horiz-adv-x="574" 
d="M287 -10q-113 0 -181.5 69.5t-68.5 182.5q0 112 68.5 182t181.5 70t181.5 -70t68.5 -182q0 -113 -68.5 -182.5t-181.5 -69.5zM287 82q59 0 93.5 43.5t34.5 116.5t-34.5 116.5t-93.5 43.5t-93.5 -43.5t-34.5 -116.5t34.5 -116.5t93.5 -43.5zM240 540l58 147h130l-97 -147
h-91z" />
    <glyph glyph-name="Ocircumflex.small" horiz-adv-x="574" 
d="M287 -10q-113 0 -181.5 69.5t-68.5 182.5q0 112 68.5 182t181.5 70t181.5 -70t68.5 -182q0 -113 -68.5 -182.5t-181.5 -69.5zM287 82q59 0 93.5 43.5t34.5 116.5t-34.5 116.5t-93.5 43.5t-93.5 -43.5t-34.5 -116.5t34.5 -116.5t93.5 -43.5zM139 540l100 147h96l101 -147
h-94l-55 79l-54 -79h-94z" />
    <glyph glyph-name="Otilde.small" horiz-adv-x="574" 
d="M287 -10q-113 0 -181.5 69.5t-68.5 182.5q0 112 68.5 182t181.5 70t181.5 -70t68.5 -182q0 -113 -68.5 -182.5t-181.5 -69.5zM287 82q59 0 93.5 43.5t34.5 116.5t-34.5 116.5t-93.5 43.5t-93.5 -43.5t-34.5 -116.5t34.5 -116.5t93.5 -43.5zM131 556v39q0 39 23 61t59 22
q32 0 75.5 -22t55.5 -22q14 0 18 8.5t4 29.5h78v-39q0 -39 -23 -61t-59 -22q-31 0 -75 22t-56 22q-14 0 -18 -8.5t-4 -29.5h-78z" />
    <glyph glyph-name="Odieresis.small" horiz-adv-x="574" 
d="M287 -10q-113 0 -181.5 69.5t-68.5 182.5q0 112 68.5 182t181.5 70t181.5 -70t68.5 -182q0 -113 -68.5 -182.5t-181.5 -69.5zM287 82q59 0 93.5 43.5t34.5 116.5t-34.5 116.5t-93.5 43.5t-93.5 -43.5t-34.5 -116.5t34.5 -116.5t93.5 -43.5zM193 553q-25 0 -43 18t-18 43
q0 26 18 44t43 18q26 0 44 -18t18 -44q0 -25 -18 -43t-44 -18zM384 553q-26 0 -43.5 17.5t-17.5 43.5t17.5 44t43.5 18q25 0 43 -18t18 -44q0 -25 -18 -43t-43 -18z" />
    <glyph glyph-name="Omacron.small" horiz-adv-x="574" 
d="M287 -10q-113 0 -181.5 69.5t-68.5 182.5q0 112 68.5 182t181.5 70t181.5 -70t68.5 -182q0 -113 -68.5 -182.5t-181.5 -69.5zM287 82q59 0 93.5 43.5t34.5 116.5t-34.5 116.5t-93.5 43.5t-93.5 -43.5t-34.5 -116.5t34.5 -116.5t93.5 -43.5zM146 578v90h285v-90h-285z" />
    <glyph glyph-name="Obreve.small" horiz-adv-x="574" 
d="M287 -10q-113 0 -181.5 69.5t-68.5 182.5q0 112 68.5 182t181.5 70t181.5 -70t68.5 -182q0 -113 -68.5 -182.5t-181.5 -69.5zM287 82q59 0 93.5 43.5t34.5 116.5t-34.5 116.5t-93.5 43.5t-93.5 -43.5t-34.5 -116.5t34.5 -116.5t93.5 -43.5zM352 689h82q-4 -65 -43.5 -102
t-103.5 -37q-63 0 -102.5 37t-43.5 102h83q3 -30 19.5 -47.5t44.5 -17.5t44.5 17.5t19.5 47.5z" />
    <glyph glyph-name="Ohungarumlaut.small" horiz-adv-x="574" 
d="M287 -10q-113 0 -181.5 69.5t-68.5 182.5q0 112 68.5 182t181.5 70t181.5 -70t68.5 -182q0 -113 -68.5 -182.5t-181.5 -69.5zM287 82q59 0 93.5 43.5t34.5 116.5t-34.5 116.5t-93.5 43.5t-93.5 -43.5t-34.5 -116.5t34.5 -116.5t93.5 -43.5zM159 540l58 147h130l-97 -147
h-91zM332 540l58 147h130l-97 -147h-91z" />
    <glyph glyph-name="Oslash.small" horiz-adv-x="574" 
d="M125 -24l-53 38l35 46q-70 68 -70 182q0 112 68.5 182t181.5 70q68 0 125 -30l34 45l53 -38l-34 -45q72 -69 72 -184q0 -113 -68.5 -182.5t-181.5 -69.5q-70 0 -128 32zM219 101q31 -21 68 -21q59 0 95 44.5t36 117.5q0 54 -22 93zM176 151l177 234q-30 19 -66 19
q-59 0 -95 -44.5t-36 -117.5q0 -54 20 -91z" />
    <glyph glyph-name="Oslashacute.small" horiz-adv-x="574" 
d="M125 -24l-53 38l35 46q-70 68 -70 182q0 112 68.5 182t181.5 70q68 0 125 -30l34 45l53 -38l-34 -45q72 -69 72 -184q0 -113 -68.5 -182.5t-181.5 -69.5q-70 0 -128 32zM219 101q31 -21 68 -21q59 0 95 44.5t36 117.5q0 54 -22 93zM176 151l177 234q-30 19 -66 19
q-59 0 -95 -44.5t-36 -117.5q0 -54 20 -91zM237 540l58 147h130l-97 -147h-91z" />
    <glyph glyph-name="OE.small" horiz-adv-x="731" 
d="M679 0h-210q-39 0 -97 -4t-80 -4q-114 0 -184.5 70.5t-70.5 179.5t71.5 180t187.5 71q17 0 74 -3.5t93 -3.5h224l-32 -92h-166v-104h168v-90h-168v-108h190v-92zM370 95v293q-33 14 -71 14q-65 0 -102.5 -44.5t-37.5 -115.5q0 -72 36.5 -115.5t102.5 -43.5q36 0 72 12z
" />
    <glyph glyph-name="Racute.small" horiz-adv-x="491" 
d="M73 0v486h177q95 0 138 -41.5t43 -101.5q0 -95 -91 -127v-2q19 -13 53 -69l88 -145h-126l-72 117q-30 50 -47 55h-44v-172h-119zM192 262h50q34 0 53 18t19 49q0 29 -18.5 47.5t-53.5 18.5h-50v-133zM175 540l58 147h130l-97 -147h-91z" />
    <glyph glyph-name="Rcaron.small" horiz-adv-x="491" 
d="M73 0v486h177q95 0 138 -41.5t43 -101.5q0 -95 -91 -127v-2q19 -13 53 -69l88 -145h-126l-72 117q-30 50 -47 55h-44v-172h-119zM192 262h50q34 0 53 18t19 49q0 29 -18.5 47.5t-53.5 18.5h-50v-133zM186 540l-101 147h95l55 -78l54 78h93l-100 -147h-96z" />
    <glyph glyph-name="Rcommaaccent.small" horiz-adv-x="491" 
d="M73 0v486h177q95 0 138 -41.5t43 -101.5q0 -95 -91 -127v-2q19 -13 53 -69l88 -145h-126l-72 117q-30 50 -47 55h-44v-172h-119zM192 262h50q34 0 53 18t19 49q0 29 -18.5 47.5t-53.5 18.5h-50v-133zM184 -237l-29 72q74 15 74 61q0 25 -20 52h102q23 -34 23 -72
q0 -95 -150 -113z" />
    <glyph glyph-name="germandbls.small" horiz-adv-x="834" 
d="M37 31l39 86q61 -35 117 -35q30 0 51.5 12.5t21.5 38.5q0 24 -21.5 41t-52.5 29.5t-62 29t-52.5 47.5t-21.5 75q0 62 45.5 100.5t126.5 38.5q70 0 133 -24v-100q-67 33 -126 33q-60 0 -60 -44q0 -22 21.5 -37.5t52.5 -27.5t62 -28t52.5 -48t21.5 -78q0 -69 -52 -109.5
t-133 -40.5q-87 0 -163 41zM451 31l39 86q61 -35 117 -35q30 0 51.5 12.5t21.5 38.5q0 24 -21.5 41t-52.5 29.5t-62 29t-52.5 47.5t-21.5 75q0 62 45.5 100.5t126.5 38.5q70 0 133 -24v-100q-67 33 -126 33q-60 0 -60 -44q0 -22 21.5 -37.5t52.5 -27.5t62 -28t52.5 -48
t21.5 -78q0 -69 -52 -109.5t-133 -40.5q-87 0 -163 41z" />
    <glyph glyph-name="Sacute.small" horiz-adv-x="420" 
d="M37 31l39 86q61 -35 117 -35q30 0 51.5 12.5t21.5 38.5q0 24 -21.5 41t-52.5 29.5t-62 29t-52.5 47.5t-21.5 75q0 62 45.5 100.5t126.5 38.5q70 0 133 -24v-100q-67 33 -126 33q-60 0 -60 -44q0 -22 21.5 -37.5t52.5 -27.5t62 -28t52.5 -48t21.5 -78q0 -69 -52 -109.5
t-133 -40.5q-87 0 -163 41zM165 540l58 147h130l-97 -147h-91z" />
    <glyph glyph-name="Scircumflex.small" horiz-adv-x="420" 
d="M37 31l39 86q61 -35 117 -35q30 0 51.5 12.5t21.5 38.5q0 24 -21.5 41t-52.5 29.5t-62 29t-52.5 47.5t-21.5 75q0 62 45.5 100.5t126.5 38.5q70 0 133 -24v-100q-67 33 -126 33q-60 0 -60 -44q0 -22 21.5 -37.5t52.5 -27.5t62 -28t52.5 -48t21.5 -78q0 -69 -52 -109.5
t-133 -40.5q-87 0 -163 41zM67 540l100 147h96l101 -147h-94l-55 79l-54 -79h-94z" />
    <glyph glyph-name="Scaron.small" horiz-adv-x="420" 
d="M37 31l39 86q61 -35 117 -35q30 0 51.5 12.5t21.5 38.5q0 24 -21.5 41t-52.5 29.5t-62 29t-52.5 47.5t-21.5 75q0 62 45.5 100.5t126.5 38.5q70 0 133 -24v-100q-67 33 -126 33q-60 0 -60 -44q0 -22 21.5 -37.5t52.5 -27.5t62 -28t52.5 -48t21.5 -78q0 -69 -52 -109.5
t-133 -40.5q-87 0 -163 41zM168 540l-101 147h95l55 -78l54 78h93l-100 -147h-96z" />
    <glyph glyph-name="Scedilla.small" horiz-adv-x="420" 
d="M95 -201l16 55q26 -8 47 -8q50 0 50 32q0 21 -20.5 27.5t-61.5 6.5l25 81q-58 7 -114 38l39 86q61 -35 117 -35q30 0 51.5 12.5t21.5 38.5q0 24 -21.5 41t-52.5 29.5t-62 29t-52.5 47.5t-21.5 75q0 62 45.5 100.5t126.5 38.5q70 0 133 -24v-100q-67 33 -126 33
q-60 0 -60 -44q0 -22 21.5 -37.5t52.5 -27.5t62 -28t52.5 -48t21.5 -78q0 -60 -40 -99t-106 -48l-13 -42q84 -8 84 -74q0 -40 -35.5 -64.5t-105.5 -24.5q-41 0 -74 11z" />
    <glyph glyph-name="Scommaaccent.small" horiz-adv-x="420" 
d="M37 31l39 86q61 -35 117 -35q30 0 51.5 12.5t21.5 38.5q0 24 -21.5 41t-52.5 29.5t-62 29t-52.5 47.5t-21.5 75q0 62 45.5 100.5t126.5 38.5q70 0 133 -24v-100q-67 33 -126 33q-60 0 -60 -44q0 -22 21.5 -37.5t52.5 -27.5t62 -28t52.5 -48t21.5 -78q0 -69 -52 -109.5
t-133 -40.5q-87 0 -163 41zM133 -237l-29 72q74 15 74 61q0 25 -20 52h102q23 -34 23 -72q0 -95 -150 -113z" />
    <glyph glyph-name="Tcaron.small" horiz-adv-x="434" 
d="M155 0v393h-143v93h422l-27 -93h-133v-393h-119zM168 540l-101 147h95l55 -78l54 78h93l-100 -147h-96z" />
    <glyph glyph-name="Tcommaaccent.small" horiz-adv-x="434" 
d="M155 0v393h-143v93h422l-27 -93h-133v-393h-119zM139 -237l-29 72q74 15 74 61q0 25 -20 52h102q23 -34 23 -72q0 -95 -150 -113z" />
    <glyph glyph-name="Tbar.small" horiz-adv-x="434" 
d="M155 0v175h-89v80h89v138h-143v93h422l-27 -93h-133v-138h90v-80h-90v-175h-119z" />
    <glyph glyph-name="Ugrave.small" horiz-adv-x="575" 
d="M506 486v-297q0 -100 -60 -149.5t-160 -49.5q-99 0 -158.5 49.5t-59.5 148.5v298h119v-290q0 -54 26.5 -82t73.5 -28t73.5 28t26.5 82v290h119zM249 540l-97 147h130l58 -147h-91z" />
    <glyph glyph-name="Uacute.small" horiz-adv-x="575" 
d="M506 486v-297q0 -100 -60 -149.5t-160 -49.5q-99 0 -158.5 49.5t-59.5 148.5v298h119v-290q0 -54 26.5 -82t73.5 -28t73.5 28t26.5 82v290h119zM235 540l58 147h130l-97 -147h-91z" />
    <glyph glyph-name="Ucircumflex.small" horiz-adv-x="575" 
d="M506 486v-297q0 -100 -60 -149.5t-160 -49.5q-99 0 -158.5 49.5t-59.5 148.5v298h119v-290q0 -54 26.5 -82t73.5 -28t73.5 28t26.5 82v290h119zM140 540l100 147h96l101 -147h-94l-55 79l-54 -79h-94z" />
    <glyph glyph-name="Utilde.small" horiz-adv-x="575" 
d="M506 486v-297q0 -100 -60 -149.5t-160 -49.5q-99 0 -158.5 49.5t-59.5 148.5v298h119v-290q0 -54 26.5 -82t73.5 -28t73.5 28t26.5 82v290h119zM133 556v39q0 39 23 61t59 22q32 0 75.5 -22t55.5 -22q14 0 18 8.5t4 29.5h78v-39q0 -39 -23 -61t-59 -22q-31 0 -75 22
t-56 22q-14 0 -18 -8.5t-4 -29.5h-78z" />
    <glyph glyph-name="Udieresis.small" horiz-adv-x="575" 
d="M506 486v-297q0 -100 -60 -149.5t-160 -49.5q-99 0 -158.5 49.5t-59.5 148.5v298h119v-290q0 -54 26.5 -82t73.5 -28t73.5 28t26.5 82v290h119zM194 553q-25 0 -43 18t-18 43q0 26 18 44t43 18q26 0 44 -18t18 -44q0 -25 -18 -43t-44 -18zM385 553q-25 0 -43 17.5
t-18 43.5t17.5 44t43.5 18q25 0 43 -18t18 -44q0 -25 -18 -43t-43 -18z" />
    <glyph glyph-name="Umacron.small" horiz-adv-x="575" 
d="M506 486v-297q0 -100 -60 -149.5t-160 -49.5q-99 0 -158.5 49.5t-59.5 148.5v298h119v-290q0 -54 26.5 -82t73.5 -28t73.5 28t26.5 82v290h119zM146 578v90h285v-90h-285z" />
    <glyph glyph-name="Ubreve.small" horiz-adv-x="575" 
d="M506 486v-297q0 -100 -60 -149.5t-160 -49.5q-99 0 -158.5 49.5t-59.5 148.5v298h119v-290q0 -54 26.5 -82t73.5 -28t73.5 28t26.5 82v290h119zM353 689h82q-4 -65 -43.5 -102t-103.5 -37q-63 0 -102.5 37t-43.5 102h83q3 -30 19.5 -47.5t44.5 -17.5t44.5 17.5t19.5 47.5
z" />
    <glyph glyph-name="Uring.small" horiz-adv-x="575" 
d="M506 486v-297q0 -100 -60 -149.5t-160 -49.5q-99 0 -158.5 49.5t-59.5 148.5v298h119v-290q0 -54 26.5 -82t73.5 -28t73.5 28t26.5 82v290h119zM286 532q-52 0 -84.5 26t-32.5 71t32.5 71t84.5 26t84.5 -26t32.5 -71t-32.5 -71t-84.5 -26zM286 583q18 0 29.5 12.5
t11.5 33.5t-11.5 33.5t-29.5 12.5q-19 0 -30 -12t-11 -34t11 -34t30 -12z" />
    <glyph glyph-name="Uhungarumlaut.small" horiz-adv-x="575" 
d="M506 486v-297q0 -100 -60 -149.5t-160 -49.5q-99 0 -158.5 49.5t-59.5 148.5v298h119v-290q0 -54 26.5 -82t73.5 -28t73.5 28t26.5 82v290h119zM149 540l58 147h130l-97 -147h-91zM322 540l58 147h130l-97 -147h-91z" />
    <glyph glyph-name="Uogonek.small" horiz-adv-x="575" 
d="M286 -12v2q-99 0 -158.5 49.5t-59.5 148.5v298h119v-290q0 -54 26.5 -82t73.5 -28t73.5 28t26.5 82v290h119v-297q0 -92 -52 -142q-9 -9 -50 -38t-66.5 -58.5t-25.5 -59.5q0 -35 35 -35q15 0 37 6l13 -64q-42 -12 -79 -12q-49 0 -76.5 23t-27.5 62q0 63 72 117z" />
    <glyph glyph-name="Wgrave.small" horiz-adv-x="729" 
d="M180 -3l-174 489h126l75 -239q21 -62 28 -102h2q5 18 34 105l48 135l-34 101h117l71 -235q21 -74 28 -107h2q5 24 30 106l75 236h115l-175 -489h-97l-55 159q-20 55 -29 93h-2q-8 -30 -34 -97l-58 -155h-93zM334 540l-97 147h130l58 -147h-91z" />
    <glyph glyph-name="Wacute.small" horiz-adv-x="729" 
d="M180 -3l-174 489h126l75 -239q21 -62 28 -102h2q5 18 34 105l48 135l-34 101h117l71 -235q21 -74 28 -107h2q5 24 30 106l75 236h115l-175 -489h-97l-55 159q-20 55 -29 93h-2q-8 -30 -34 -97l-58 -155h-93zM309 540l58 147h130l-97 -147h-91z" />
    <glyph glyph-name="Wcircumflex.small" horiz-adv-x="729" 
d="M180 -3l-174 489h126l75 -239q21 -62 28 -102h2q5 18 34 105l48 135l-34 101h117l71 -235q21 -74 28 -107h2q5 24 30 106l75 236h115l-175 -489h-97l-55 159q-20 55 -29 93h-2q-8 -30 -34 -97l-58 -155h-93zM221 540l100 147h96l101 -147h-94l-55 79l-54 -79h-94z" />
    <glyph glyph-name="Wdieresis.small" horiz-adv-x="729" 
d="M180 -3l-174 489h126l75 -239q21 -62 28 -102h2q5 18 34 105l48 135l-34 101h117l71 -235q21 -74 28 -107h2q5 24 30 106l75 236h115l-175 -489h-97l-55 159q-20 55 -29 93h-2q-8 -30 -34 -97l-58 -155h-93zM274 553q-25 0 -43 18t-18 43q0 26 18 44t43 18q26 0 44 -18
t18 -44q0 -25 -18 -43t-44 -18zM465 553q-25 0 -43 17.5t-18 43.5t17.5 44t43.5 18q25 0 43 -18t18 -44q0 -25 -18 -43t-43 -18z" />
    <glyph glyph-name="Ygrave.small" horiz-adv-x="462" 
d="M170 0v187l-164 299h123l62 -123q23 -45 39 -87h2q26 63 38 87l63 123h123l-167 -299v-187h-119zM202 540l-97 147h130l58 -147h-91z" />
    <glyph glyph-name="Yacute.small" horiz-adv-x="462" 
d="M170 0v187l-164 299h123l62 -123q23 -45 39 -87h2q26 63 38 87l63 123h123l-167 -299v-187h-119zM172 540l58 147h130l-97 -147h-91z" />
    <glyph glyph-name="Ycircumflex.small" horiz-adv-x="462" 
d="M170 0v187l-164 299h123l62 -123q23 -45 39 -87h2q26 63 38 87l63 123h123l-167 -299v-187h-119zM84 540l100 147h96l101 -147h-94l-55 79l-54 -79h-94z" />
    <glyph glyph-name="Ydieresis.small" horiz-adv-x="462" 
d="M170 0v187l-164 299h123l62 -123q23 -45 39 -87h2q26 63 38 87l63 123h123l-167 -299v-187h-119zM137 553q-25 0 -43 18t-18 43q0 26 18 44t43 18q26 0 44 -18t18 -44q0 -25 -18 -43t-44 -18zM328 553q-26 0 -43.5 17.5t-17.5 43.5t17.5 44t43.5 18q25 0 43 -18t18 -44
q0 -25 -18 -43t-43 -18z" />
    <glyph glyph-name="Zacute.small" horiz-adv-x="461" 
d="M26 0l231 393h-197l-29 93h408l-231 -393h224v-93h-406zM179 540l58 147h130l-97 -147h-91z" />
    <glyph glyph-name="Zcaron.small" horiz-adv-x="461" 
d="M26 0l231 393h-197l-29 93h408l-231 -393h224v-93h-406zM186 540l-101 147h95l55 -78l54 78h93l-100 -147h-96z" />
    <glyph glyph-name="Zdotaccent.small" horiz-adv-x="461" 
d="M26 0l231 393h-197l-29 93h408l-231 -393h224v-93h-406zM234 559q-31 0 -52.5 20.5t-21.5 50.5t21.5 51t52.5 21t52 -20.5t21 -51.5q0 -30 -21 -50.5t-52 -20.5z" />
    <glyph glyph-name="Eng.small" horiz-adv-x="616" 
d="M73 0v486h112l171 -218q38 -47 69 -93h2q-3 44 -3 96v215h119v-530q0 -75 -43.5 -113t-122.5 -38q-49 0 -89 16l27 89q27 -10 48 -10q61 0 61 75v41l-168 216q-42 54 -64 87h-2q2 -52 2 -87v-232h-119z" />
    <glyph glyph-name="Eth.small" horiz-adv-x="553" 
d="M73 0v206h-54v80h54v200h163q133 0 206.5 -64t73.5 -175q0 -113 -79 -180t-209 -67h-155zM192 97h45q157 0 157 146t-162 146h-40v-103h96v-80h-96v-109z" />
    <glyph glyph-name="Thorn.small" horiz-adv-x="458" 
d="M73 0v486h119v-72h41q90 0 138 -44t48 -121q0 -74 -49 -119.5t-143 -45.5h-35v-84h-119zM192 175h35q75 0 75 74q0 73 -73 73h-37v-147z" />
    <glyph glyph-name="a.superior" horiz-adv-x="368" 
d="M250 270l-12 29q-41 -36 -94 -36q-49 0 -81 29.5t-32 79.5q0 52 38.5 80t108.5 30l50 2v8q0 22 -16.5 33.5t-42.5 11.5q-47 0 -89 -22l-32 60q57 36 134 36q137 0 137 -125v-131q0 -58 8 -85h-77zM228 359v60l-41 -1q-63 -2 -63 -41q0 -18 12.5 -29t34.5 -11q30 0 57 22z
" />
    <glyph glyph-name="b.superior" horiz-adv-x="384" 
d="M45 288v475h91v-161q24 9 59 9q70 0 116 -43.5t46 -120.5q0 -85 -54.5 -134.5t-140.5 -49.5q-69 0 -117 25zM136 345q15 -6 35 -6q42 0 67.5 27t25.5 75q0 41 -21.5 67.5t-61.5 26.5q-23 0 -45 -9v-181z" />
    <glyph glyph-name="c.superior" horiz-adv-x="331" 
d="M289 362l25 -69q-52 -30 -115 -30q-81 0 -126.5 47t-45.5 121q0 78 50 129t123 51q57 0 97 -24l-1 -79q-39 27 -82 27q-42 0 -68 -28t-26 -71q0 -46 25 -71.5t68 -25.5q37 0 76 23z" />
    <glyph glyph-name="d.superior" horiz-adv-x="385" 
d="M340 763v-473q-54 -27 -127 -27q-83 0 -134.5 45t-51.5 126q0 78 50.5 127.5t128.5 49.5q22 0 44 -5v157h90zM250 344v186q-20 5 -36 5q-42 0 -68 -28t-26 -71q0 -45 25 -71t70 -26q18 0 35 5z" />
    <glyph glyph-name="e.superior" horiz-adv-x="357" 
d="M290 360l25 -68q-55 -29 -118 -29q-85 0 -127.5 51t-42.5 125t41 123t112 49q67 0 107 -49t40 -130v-23h-210q4 -32 27.5 -51t60.5 -19q40 0 85 21zM115 476h121q-2 27 -17 45.5t-42 18.5t-43.5 -19t-18.5 -45z" />
    <glyph glyph-name="f.superior" horiz-adv-x="253" 
d="M64 270v260h-49v72h49v39q0 65 35 93.5t80 28.5q37 0 74 -17l-19 -73q-25 11 -44 11q-36 0 -36 -39v-43h89l-23 -72h-66v-260h-90z" />
    <glyph glyph-name="g.superior" horiz-adv-x="362" 
d="M178 176q34 0 55.5 9.5t21.5 26.5q0 15 -24 23t-61.5 13t-51.5 11q-23 -15 -23 -36q0 -22 22.5 -34.5t60.5 -12.5zM175 430q24 0 39 14.5t15 39.5q0 24 -15 39t-39 15q-25 0 -39.5 -15t-14.5 -39t14.5 -39t39.5 -15zM67 288q-18 16 -18 39q0 36 35 60q-50 34 -50 98
q0 51 36.5 88.5t101.5 37.5q41 0 69 -17q29 31 86 31q14 0 26 -2l-18 -69q-13 5 -27 5q-11 0 -17 -3q26 -31 26 -76q0 -55 -39.5 -88.5t-98.5 -33.5q-23 0 -42 5q-8 -13 -8 -19q0 -16 33.5 -24.5t73.5 -12.5t73.5 -26t33.5 -61q0 -48 -45.5 -79.5t-127.5 -31.5
q-74 0 -116 29t-42 71q0 53 55 79z" />
    <glyph glyph-name="h.superior" horiz-adv-x="394" 
d="M45 270v493h91v-192q50 40 107 40q46 0 77.5 -29.5t31.5 -92.5v-219h-91v198q0 62 -48 62q-34 0 -77 -30v-230h-91z" />
    <glyph glyph-name="i.superior" horiz-adv-x="190" 
d="M49 270v332h91v-332h-91zM95 643q-23 0 -39 15.5t-16 38.5q0 22 16 38t39 16t39 -16t16 -38t-16.5 -38t-38.5 -16z" />
    <glyph glyph-name="j.superior" horiz-adv-x="198" 
d="M-40 123l20 74q24 -9 39 -9q37 0 37 45v369h90v-375q0 -59 -32.5 -88.5t-82.5 -29.5q-40 0 -71 14zM101 643q-23 0 -39 15.5t-16 38.5q0 22 16.5 38t38.5 16q23 0 39.5 -16t16.5 -38t-16.5 -38t-39.5 -16z" />
    <glyph glyph-name="k.superior" horiz-adv-x="361" 
d="M45 270v493h91v-272l99 111h108l-128 -150l134 -182h-108l-105 148v-148h-91z" />
    <glyph glyph-name="l.superior" horiz-adv-x="217" 
d="M180 349l18 -70q-32 -15 -67 -15q-42 0 -64 22.5t-22 60.5v416h91v-393q0 -27 19 -27q11 0 25 6z" />
    <glyph glyph-name="m.superior" horiz-adv-x="598" 
d="M45 270v332h78l7 -34q56 43 111 43q61 0 88 -50q56 50 121 50q45 0 75 -29.5t30 -92.5v-219h-90v198q0 62 -45 62q-37 0 -75 -30v-12v-218h-90v198q0 62 -45 62q-32 0 -74 -30v-230h-91z" />
    <glyph glyph-name="o.superior" horiz-adv-x="392" 
d="M196 263q-75 0 -122 49t-47 125t47 125t122 49t122 -49t47 -125t-47 -125t-122 -49zM196 339q35 0 55.5 27.5t20.5 70.5t-20.5 70.5t-55.5 27.5t-55.5 -27.5t-20.5 -70.5t20.5 -70.5t55.5 -27.5z" />
    <glyph glyph-name="p.superior" horiz-adv-x="385" 
d="M45 109v480q60 22 127 22q92 0 139.5 -46t47.5 -127q0 -78 -47.5 -126.5t-128.5 -48.5q-27 0 -47 6v-160h-91zM136 347q16 -8 40 -8q43 0 66.5 26.5t23.5 71.5q0 48 -25.5 73t-67.5 25q-20 0 -37 -5v-183z" />
    <glyph glyph-name="q.superior" horiz-adv-x="385" 
d="M250 109v169q-30 -15 -72 -15q-61 0 -106 43t-45 122q0 85 54 134t141 49q66 0 119 -21v-481h-91zM250 355v174q-18 6 -38 6q-41 0 -66.5 -28t-25.5 -74q0 -44 21.5 -69t56.5 -25q26 0 52 16z" />
    <glyph glyph-name="r.superior" horiz-adv-x="272" 
d="M45 270v332h78l7 -32q43 41 86 41q28 0 54 -17l-33 -76q-20 11 -38 11q-30 0 -63 -29v-230h-91z" />
    <glyph glyph-name="s.superior" horiz-adv-x="312" 
d="M21 297l30 67q47 -29 90 -29q53 0 53 31q0 14 -24 26t-52.5 21t-52.5 33.5t-24 61.5q0 46 34 74.5t92 28.5q55 0 102 -18v-77q-53 23 -98 23q-40 0 -40 -26q0 -15 24 -27t53 -20.5t53 -34t24 -63.5q0 -52 -39.5 -78.5t-99.5 -26.5q-72 0 -125 34z" />
    <glyph glyph-name="t.superior" horiz-adv-x="288" 
d="M245 357l23 -70q-42 -24 -95 -24q-49 0 -76 24t-27 64v179h-58v72h58v74l91 26v-100h102l-23 -72h-79v-154q0 -34 31 -34q25 0 53 15z" />
    <glyph glyph-name="u.superior" horiz-adv-x="390" 
d="M349 270h-80l-11 31q-47 -38 -99 -38q-46 0 -81 30t-35 100v209h91v-197q0 -62 51 -62q36 0 65 25v234h90v-247q0 -59 9 -85z" />
    <glyph glyph-name="v.superior" horiz-adv-x="345" 
d="M132 268l-129 334h94l75 -222h2l75 222h94l-130 -334h-81z" />
    <glyph glyph-name="w.superior" horiz-adv-x="531" 
d="M123 268l-120 334h94l64 -217h2l62 217h81l62 -217h2l64 217h94l-120 -334h-77l-65 219h-2l-64 -219h-77z" />
    <glyph glyph-name="x.superior" horiz-adv-x="352" 
d="M5 270l122 167l-119 165h96l72 -103l73 103h96l-120 -165l123 -167h-97l-75 106l-75 -106h-96z" />
    <glyph glyph-name="y.superior" horiz-adv-x="368" 
d="M-12 126l25 76q26 -13 51 -13q28 0 49 19.5t39 69.5l-146 324h96l90 -220h2l78 220h94l-129 -339q-36 -94 -75.5 -124t-93.5 -30q-43 0 -80 17z" />
    <glyph glyph-name="z.superior" horiz-adv-x="315" 
d="M12 270l152 260h-118l-21 72h274l-150 -260h146v-72h-283z" />
    <glyph glyph-name="grave.cap" horiz-adv-x="384" 
d="M161 696l-97 147h130l58 -147h-91z" />
    <glyph glyph-name="acute.cap" horiz-adv-x="384" 
d="M131 696l58 147h130l-97 -147h-91z" />
    <glyph glyph-name="circumflex.cap" horiz-adv-x="384" 
d="M43 696l100 147h96l101 -147h-94l-55 79l-54 -79h-94z" />
    <glyph glyph-name="caron.cap" horiz-adv-x="384" 
d="M144 696l-101 147h95l55 -79l54 79h93l-100 -147h-96z" />
    <glyph glyph-name="tilde.cap" horiz-adv-x="384" 
d="M35 720v39q0 39 23 61t59 22q32 0 75.5 -22t55.5 -22q14 0 18 8.5t4 29.5h78v-40q0 -39 -23 -60.5t-59 -21.5q-31 0 -75 21.5t-56 21.5q-14 0 -18 -8.5t-4 -28.5h-78z" />
    <glyph glyph-name="dieresis.cap" horiz-adv-x="384" 
d="M96 701q-25 0 -43 18t-18 43t18 43.5t43 18.5q26 0 44 -18t18 -44q0 -25 -18 -43t-44 -18zM287 701q-25 0 -43 17.5t-18 43.5t18 44t43 18t43 -18.5t18 -43.5t-18 -43t-43 -18z" />
    <glyph glyph-name="macron.cap" horiz-adv-x="384" 
d="M49 704v91h285v-91h-285z" />
    <glyph glyph-name="breve.cap" horiz-adv-x="384" 
d="M256 833h82q-4 -65 -44 -102.5t-103 -37.5t-102.5 37.5t-43.5 102.5h83q3 -30 19.5 -48t44.5 -18t44.5 18t19.5 48z" />
    <glyph glyph-name="ring.cap" horiz-adv-x="384" 
d="M192 653q-52 0 -84.5 26.5t-32.5 70.5q0 45 32.5 71.5t84.5 26.5t84.5 -26.5t32.5 -71.5q0 -44 -32.5 -70.5t-84.5 -26.5zM192 705q18 0 29.5 12t11.5 33t-11.5 33.5t-29.5 12.5q-19 0 -30 -12t-11 -34q0 -45 41 -45z" />
    <glyph glyph-name="hungarumlaut.cap" horiz-adv-x="384" 
d="M72 696l58 147h130l-97 -147h-91zM245 696l58 147h130l-97 -147h-91z" />
    <glyph glyph-name="dotaccent.cap" horiz-adv-x="384" 
d="M192 701q-31 0 -52.5 20.5t-21.5 50.5t21.5 51t52.5 21t52 -20.5t21 -51.5q0 -30 -21 -50.5t-52 -20.5z" />
    <glyph glyph-name="hyphen.cap" horiz-adv-x="366" 
d="M52 285v100h263v-100h-263z" />
    <glyph glyph-name="exclamdown.cap" horiz-adv-x="269" 
d="M134 528q-28 0 -47 20t-19 49t19 49t47 20t47.5 -20t19.5 -49t-19.5 -49t-47.5 -20zM75 -2v49q0 187 4 259.5t20 156.5h70q16 -83 20.5 -156t4.5 -261v-48h-119z" />
    <glyph glyph-name="exclam.small" horiz-adv-x="241" 
d="M85 172q-21 92 -21 261v53h113v-53q0 -169 -22 -261h-70zM120 -9q-24 0 -41 17.5t-17 43.5q0 25 17 42.5t41 17.5q25 0 42 -17.5t17 -42.5q0 -26 -17 -43.5t-42 -17.5z" />
    <glyph glyph-name="exclamdown.small" horiz-adv-x="241" 
d="M120 373q-24 0 -41 17.5t-17 42.5q0 26 17 43.5t41 17.5q25 0 42 -17.5t17 -43.5q0 -25 -17 -42.5t-42 -17.5zM64 0v52q0 168 21 261h70q22 -93 22 -261v-52h-113z" />
    <glyph glyph-name="questiondown.cap" horiz-adv-x="473" 
d="M268 527q-27 0 -46.5 20t-19.5 49t19.5 49t46.5 20q28 0 47.5 -20t19.5 -49t-19.5 -49t-47.5 -20zM369 148l54 -77q-93 -80 -201 -80q-87 0 -134.5 41t-47.5 105q0 47 31 86t67.5 61t67.5 49.5t31 53.5q0 21 -13 40l101 37q31 -37 31 -84q0 -40 -29 -74t-63 -54t-63 -47
t-29 -55t18.5 -43t50.5 -15q63 0 128 56z" />
    <glyph glyph-name="question.small" horiz-adv-x="366" 
d="M116 160q-24 26 -24 60q0 30 20 53t44 35t44 27.5t20 32.5t-13.5 27.5t-35.5 10.5q-44 0 -91 -37l-49 67q66 58 156 58q67 0 106.5 -31t39.5 -80q0 -36 -21.5 -64t-47.5 -41.5t-47.5 -30t-21.5 -31.5q0 -12 9 -23zM164 -9q-25 0 -42 17.5t-17 43.5q0 25 17 42.5t42 17.5
t42 -17.5t17 -42.5q0 -26 -17 -43.5t-42 -17.5z" />
    <glyph glyph-name="questiondown.small" horiz-adv-x="366" 
d="M198 373q-25 0 -42 17.5t-17 42.5q0 26 17 43.5t42 17.5t42 -17.5t17 -43.5q0 -25 -17 -42.5t-42 -17.5zM282 115l48 -67q-64 -58 -156 -58q-66 0 -105.5 31t-39.5 80q0 36 21.5 64t47.5 41.5t47.5 30t21.5 31.5q0 12 -9 23l88 33q24 -26 24 -60q0 -30 -20 -53t-44 -35
t-44 -27.5t-20 -32.5t13.5 -27.5t35.5 -10.5q44 0 91 37z" />
    <glyph glyph-name="quoteleft.small" horiz-adv-x="228" 
d="M87 262q-36 66 -36 138t36 147l75 -12q-11 -43 -11 -84q0 -64 36 -139z" />
    <glyph glyph-name="quoteright.small" horiz-adv-x="228" 
d="M31 305q46 78 46 155q0 32 -6 66l110 19q7 -29 7 -63q0 -113 -88 -210z" />
    <glyph glyph-name="quotedblleft.small" horiz-adv-x="417" 
d="M87 262q-36 66 -36 138t36 147l75 -12q-11 -43 -11 -84q0 -64 36 -139zM276 262q-36 66 -36 138t36 147l75 -12q-11 -43 -11 -84q0 -64 36 -139z" />
    <glyph glyph-name="quotedblright.small" horiz-adv-x="417" 
d="M31 305q46 78 46 155q0 32 -6 66l110 19q7 -29 7 -63q0 -113 -88 -210zM220 305q46 78 46 155q0 32 -6 66l110 19q7 -29 7 -63q0 -113 -88 -210z" />
    <glyph glyph-name="guilsinglleft.cap" horiz-adv-x="358" 
d="M207 99l-170 229l170 231l96 -51l-134 -180l134 -178z" />
    <glyph glyph-name="guilsinglright.cap" horiz-adv-x="358" 
d="M54 150l134 178l-134 180l96 51l170 -231l-170 -229z" />
    <glyph glyph-name="guillemotleft.cap" horiz-adv-x="605" 
d="M207 99l-170 229l170 231l96 -51l-134 -180l134 -178zM454 99l-170 229l170 231l96 -51l-134 -180l134 -178z" />
    <glyph glyph-name="guillemotright.cap" horiz-adv-x="605" 
d="M55 150l133 178l-133 180l95 51l170 -231l-170 -229zM302 150l133 178l-133 180l95 51l170 -231l-170 -229z" />
    <glyph glyph-name="endash.cap" horiz-adv-x="450" 
d="M0 294v88h450v-88h-450z" />
    <glyph glyph-name="emdash.cap" horiz-adv-x="800" 
d="M0 294v88h800v-88h-800z" />
    <glyph glyph-name="periodcentered.cap" horiz-adv-x="238" 
d="M117 247q-28 0 -47.5 20t-19.5 49t19.5 48.5t47.5 19.5q27 0 46.5 -19.5t19.5 -48.5t-19.5 -49t-46.5 -20z" />
    <glyph glyph-name="parenleft.cap" horiz-adv-x="348" 
d="M243 -182q-97 105 -133.5 226t-36.5 278t36.5 278.5t133.5 228.5l80 -60q-68 -87 -96.5 -185t-28.5 -262t28 -262t96 -182z" />
    <glyph glyph-name="parenright.cap" horiz-adv-x="348" 
d="M26 -122q68 84 96 182t28 262t-28 262.5t-97 184.5l80 60q97 -107 133.5 -228.5t36.5 -278.5t-36.5 -278t-133.5 -226z" />
    <glyph glyph-name="parenleft.small" horiz-adv-x="298" 
d="M205 -152q-81 88 -111.5 183t-30.5 211t30.5 211t111.5 183l70 -57q-55 -68 -77.5 -143.5t-22.5 -193.5t22.5 -193.5t77.5 -143.5z" />
    <glyph glyph-name="parenright.small" horiz-adv-x="298" 
d="M23 -95q55 68 77.5 143.5t22.5 193.5t-22.5 193.5t-77.5 143.5l69 57q81 -88 111.5 -182.5t30.5 -211.5t-30.5 -211.5t-111.5 -182.5z" />
    <glyph glyph-name="bracketleft.cap" horiz-adv-x="304" 
d="M68 -181v1008h213v-91h-101v-826h101v-91h-213z" />
    <glyph glyph-name="bracketright.cap" horiz-adv-x="304" 
d="M23 -181v91h101v826h-101v91h214v-1008h-214z" />
    <glyph glyph-name="bracketleft.small" horiz-adv-x="265" 
d="M63 -147v778h186v-82h-85v-614h85v-82h-186z" />
    <glyph glyph-name="bracketright.small" horiz-adv-x="265" 
d="M202 -147h-186v82h85v614h-85v82h186v-778z" />
    <glyph glyph-name="braceleft.cap" horiz-adv-x="362" 
d="M300 -173q-99 5 -139.5 50.5t-40.5 122.5v218q0 39 -17 53.5t-48 15.5v80q31 1 48 15.5t17 53.5v218q0 77 40.5 122.5t139.5 50.5l21 -105q-46 -5 -66.5 -26t-20.5 -64v-181q0 -113 -77 -123v-2q77 -10 77 -123v-181q0 -43 20.5 -64t66.5 -26z" />
    <glyph glyph-name="braceright.cap" horiz-adv-x="362" 
d="M42 -68q46 5 66.5 26t20.5 64v181q0 113 77 123v2q-77 10 -77 123v181q0 43 -20.5 64t-66.5 26l21 105q99 -5 139.5 -50.5t40.5 -122.5v-218q0 -39 17 -53.5t48 -15.5v-80q-31 -1 -48 -15.5t-17 -53.5v-218q0 -77 -40.5 -122.5t-139.5 -50.5z" />
    <glyph glyph-name="braceleft.small" horiz-adv-x="296" 
d="M254 -159q-158 8 -158 145v164q0 50 -54 52v74q54 2 54 52v163q0 137 158 145l19 -93q-72 -9 -72 -70v-132q0 -42 -17 -68t-46 -33v-2q29 -7 46 -33t17 -68v-133q0 -61 72 -70z" />
    <glyph glyph-name="braceright.small" horiz-adv-x="296" 
d="M23 -66q72 9 72 70v133q0 86 63 101v2q-63 15 -63 101v132q0 61 -72 70l19 93q157 -8 157 -145v-163q0 -50 55 -52v-74q-55 -2 -55 -52v-164q0 -137 -157 -145z" />
    <glyph glyph-name="at.cap" horiz-adv-x="777" 
d="M486 65l21 -67q-71 -27 -161 -27q-137 0 -225 91t-88 240q0 171 107 275t264 104q150 0 245 -87t95 -233q0 -108 -46.5 -164.5t-123.5 -56.5q-86 0 -103 82h-1q-15 -31 -53 -56t-87 -25q-54 0 -95 39t-41 120q0 98 61.5 160.5t155.5 62.5q85 0 154 -42l-20 -155
q-5 -35 -5 -55q0 -61 43 -61q38 0 60 38.5t22 105.5q0 112 -67 185t-196 73q-124 0 -206.5 -82.5t-82.5 -221.5q0 -127 68 -197.5t173 -70.5q79 0 132 25zM458 363l9 71q-26 16 -58 16q-50 0 -84.5 -40.5t-34.5 -106.5q0 -89 62 -89q38 0 67.5 36.5t38.5 112.5z" />
    <glyph glyph-name="at.small" horiz-adv-x="656" 
d="M413 28l21 -63q-63 -25 -139 -25q-118 0 -194 77.5t-76 205.5q0 146 89.5 234.5t222.5 88.5q129 0 209.5 -74.5t80.5 -199.5q0 -91 -41.5 -141t-105.5 -50q-36 0 -60 19t-29 50h-2q-38 -68 -110 -68q-49 0 -79 33.5t-30 98.5q0 88 50 144t124 56q66 0 131 -37l-25 -135
q-4 -17 -4 -44q0 -51 38 -51q29 0 49.5 33.5t20.5 86.5q0 93 -54 153t-163 60q-102 0 -170 -69t-68 -183q0 -106 55.5 -164t144.5 -58q67 0 114 22zM378 278l10 59q-21 12 -43 12q-41 0 -67.5 -36t-26.5 -95q0 -32 12.5 -51.5t33.5 -19.5q58 0 81 131z" />
    <glyph glyph-name="copyright.small" horiz-adv-x="655" 
d="M327 -43q-123 0 -202.5 82t-79.5 205t79.5 205t202.5 82q124 0 203.5 -82t79.5 -205t-79.5 -205t-203.5 -82zM327 14q93 0 156 65.5t63 164.5t-63 164.5t-156 65.5t-156 -65.5t-63 -164.5t63 -164.5t156 -65.5zM406 170l23 -55q-45 -27 -98 -27q-63 0 -103.5 42
t-40.5 111q0 66 41 111.5t107 45.5q46 0 80 -20v-63q-38 22 -76 22q-40 0 -62.5 -26.5t-22.5 -67.5q0 -43 22 -68.5t62 -25.5q34 0 68 21z" />
    <glyph glyph-name="published.small" horiz-adv-x="655" 
d="M327 -43q-123 0 -202.5 82t-79.5 205t79.5 205t202.5 82q124 0 203.5 -82t79.5 -205t-79.5 -205t-203.5 -82zM327 14q93 0 156 65.5t63 164.5t-63 164.5t-156 65.5t-156 -65.5t-63 -164.5t63 -164.5t156 -65.5zM235 92v301h98q60 0 91.5 -27t31.5 -74t-32 -76t-93 -29
h-29v-95h-67zM302 244h28q58 0 58 48q0 44 -53 44h-33v-92z" />
    <glyph glyph-name="Euro.OT" 
d="M467 112l31 -83q-62 -39 -147 -39q-89 0 -147.5 43.5t-81.5 120.5h-61v67h49q-2 22 -2 32q0 9 2 35h-49v67h62q24 78 85.5 121t144.5 43q70 0 124 -25v-96q-52 29 -112 29q-86 0 -120 -72h192l-26 -67h-185q-2 -13 -2 -34q0 -20 2 -33h185l-26 -67h-142q31 -72 115 -72
q61 0 109 30z" />
    <glyph glyph-name="dollar.OT" 
d="M219 -68v83q-78 8 -136 39l37 83q59 -34 129 -34q85 0 85 49q0 22 -24 38.5t-58 29t-68.5 28.5t-58.5 46.5t-24 73.5q0 52 34.5 86.5t100.5 44.5v77h81v-76q55 -3 107 -21v-98q-71 32 -133 32q-74 0 -74 -42q0 -20 24 -34.5t58.5 -26.5t68.5 -27.5t58 -47t24 -75.5
q0 -58 -41 -96t-109 -47v-85h-81z" />
    <glyph glyph-name="sterling.OT" 
d="M87 0v68q65 20 67 150h-57v80h57v48q0 74 49 123.5t145 49.5q65 0 117 -23l-23 -91q-40 19 -81 19q-40 0 -65.5 -23t-25.5 -71v-32h158l-27 -80h-131q-2 -92 -35 -135l1 -2q34 6 85 6h139v-87h-373z" />
    <glyph glyph-name="yen.OT" 
d="M212 0v75h-116v74h116v59h-116v73h77l-122 229h120l99 -203h2l99 203h119l-122 -229h78v-73h-117v-59h117v-74h-117v-75h-117z" />
    <glyph glyph-name="zero.OT" 
d="M271 -10q-103 0 -164.5 70.5t-61.5 181.5t61.5 181.5t164.5 70.5t164.5 -70.5t61.5 -181.5t-61.5 -181.5t-164.5 -70.5zM271 85q104 0 104 157t-104 157t-104 -157t104 -157z" />
    <glyph glyph-name="one.OT" 
d="M283 0v372l-165 -68l-35 89l226 93h92v-486h-118z" />
    <glyph glyph-name="two.OT" 
d="M63 0q6 63 35.5 112t66.5 78.5t73.5 53.5t61 48.5t24.5 51.5q0 25 -18.5 40t-54.5 15q-65 0 -141 -47l-38 83q88 59 203 59q79 0 125.5 -37.5t46.5 -105.5q0 -44 -28 -81t-63 -59.5t-74 -54.5t-55 -63h232v-93h-396z" />
    <glyph glyph-name="three.OT" 
d="M42 -174l26 92q54 -18 123 -18t114.5 28.5t45.5 84.5q0 93 -146 93h-91v91h31q51 0 90 9q102 27 102 110q0 40 -26 61.5t-66 21.5q-66 0 -151 -47l-40 82q96 60 209 60q92 0 144 -46.5t52 -119.5q0 -57 -31 -97.5t-76 -56.5v-2q57 -9 89 -51t32 -100q0 -41 -13.5 -76.5
t-44 -68.5t-88 -52t-135.5 -19q-92 0 -150 21z" />
    <glyph glyph-name="four.OT" 
d="M35 0v67l296 419h96v-393h89v-93h-89v-159l-118 -36v195h-274zM156 87q52 4 87 4h66v91q0 70 4 134z" />
    <glyph glyph-name="five.OT" 
d="M31 -172l27 93q57 -21 117 -21q79 0 122.5 37t43.5 94q0 59 -43 84q-38 24 -124 24h-82l32 347h369l-23 -93h-236l-16 -167h18q87 0 139 -29q88 -49 88 -158q0 -33 -8 -64t-29 -62.5t-52 -55t-81.5 -38t-113.5 -14.5q-86 0 -148 23z" />
    <glyph glyph-name="six.OT" 
d="M275 -10q-106 0 -171.5 71t-65.5 205q0 157 97 269.5t264 150.5l27 -89q-99 -26 -166 -82.5t-86 -136.5l1 -1q68 46 139 46q81 0 137 -54.5t56 -151.5q0 -103 -65.5 -165t-166.5 -62zM279 85q49 0 77.5 32.5t28.5 89.5q0 55 -28 86.5t-77 31.5q-64 0 -119 -46v-22
q0 -83 34 -127.5t84 -44.5z" />
    <glyph glyph-name="seven.OT" 
d="M111 -199q59 300 244 592h-287l-27 93h474v-42q-95 -125 -165 -283.5t-106 -314.5z" />
    <glyph glyph-name="eight.OT" 
d="M270 -10q-112 0 -173.5 50t-61.5 133q0 58 31.5 101t82.5 65v2q-96 54 -96 145q0 78 61 128.5t163 50.5q100 0 157 -50.5t57 -119.5q0 -98 -100 -150v-2q121 -48 121 -159q0 -86 -63.5 -140t-178.5 -54zM276 83q47 0 78.5 24t31.5 67q0 27 -12 47.5t-37 34.5t-43.5 20.5
t-51.5 16.5q-33 -14 -57 -42t-24 -65q0 -49 33 -76t82 -27zM295 386q69 36 69 98q0 38 -25 63t-69 25q-40 0 -65.5 -23t-25.5 -58q0 -43 31 -66t85 -39z" />
    <glyph glyph-name="nine.OT" 
d="M107 -118q85 29 154.5 82.5t92.5 126.5l-2 1q-54 -30 -116 -30q-85 0 -143 54t-58 150q0 104 66 166t166 62q108 0 173 -70.5t65 -191.5q0 -94 -35 -175.5t-118 -151.5t-209 -110zM272 157q52 0 104 34q5 18 5 47q0 74 -32.5 117.5t-83.5 43.5q-49 0 -78 -33.5t-29 -89.5
t30 -87.5t84 -31.5z" />
    <glyph glyph-name="Euro.LT" horiz-adv-x="545" 
d="M484 129l45 -94q-69 -45 -170 -45q-109 0 -177.5 58.5t-91.5 160.5h-69v75h58q-2 26 -2 39q0 24 3 48h-59v75h73q28 99 98.5 159t171.5 60q79 0 136 -30v-112q-62 38 -123 38q-52 0 -91 -30t-59 -85h243l-25 -75h-236q-3 -18 -3 -45q0 -24 2 -42h230l-26 -75h-188
q40 -115 146 -115q63 0 114 35z" />
    <glyph glyph-name="dollar.LT" horiz-adv-x="545" 
d="M211 -86v103q-83 9 -150 53l47 89q72 -47 138 -47q101 0 101 70q0 32 -27.5 57t-67 45t-79 43t-67 62.5t-27.5 91.5q0 58 41 105.5t113 58.5v98h87v-96q68 -7 116 -33v-100q-78 40 -149 40q-39 0 -62 -16.5t-23 -47.5t27.5 -55.5t67 -44t78.5 -42t66.5 -62t27.5 -92.5
q0 -69 -46.5 -115.5t-124.5 -60.5v-104h-87z" />
    <glyph glyph-name="sterling.LT" horiz-adv-x="545" 
d="M60 0v76q91 28 91 211h-71v98h71v60q0 52 14.5 92.5t37 64t52.5 38.5t56.5 20t54.5 5q67 0 134 -26l-26 -96q-40 21 -91 21q-52 0 -83 -33t-31 -100v-46h188l-31 -98h-157q-2 -149 -59 -198v-2q64 11 123 11h163v-98h-436z" />
    <glyph glyph-name="yen.LT" horiz-adv-x="545" 
d="M213 0v112h-156v75h156v74h-156v75h120l-153 323h128l120 -290h1l119 290h129l-154 -323h121v-75h-156v-74h156v-75h-156v-112h-119z" />
    <glyph glyph-name="zero.LT" horiz-adv-x="545" 
d="M272 -10q-110 0 -172.5 87.5t-62.5 250.5t62.5 250t172.5 87t173 -87.5t63 -250.5q0 -162 -63 -249.5t-173 -87.5zM273 91q60 0 84.5 59t24.5 175q0 121 -25.5 180t-84.5 59q-60 0 -84.5 -58.5t-24.5 -174.5q0 -122 25.5 -181t84.5 -59z" />
    <glyph glyph-name="one.LT" horiz-adv-x="545" 
d="M285 0v540l-179 -79l-40 94l246 109h91v-664h-118z" />
    <glyph glyph-name="two.LT" horiz-adv-x="545" 
d="M37 0q8 92 44.5 162.5t83 110.5t91.5 72t76 65t31 70q0 43 -29 63.5t-73 20.5q-76 0 -170 -45l-31 93q108 53 219 53q104 0 157.5 -47.5t53.5 -125.5q0 -52 -27 -95.5t-67 -76l-82 -63.5t-77 -72t-46 -87h306v-98h-460z" />
    <glyph glyph-name="three.LT" horiz-adv-x="545" 
d="M34 27l33 95q71 -31 148 -31q149 0 149 102q0 65 -70 83q-28 8 -80 8h-88v96h71q147 0 147 96q0 41 -26 64.5t-75 23.5q-75 0 -160 -45l-32 93q104 53 207 53q104 0 158 -51t54 -126q0 -101 -101 -142v-2q57 -12 89 -51.5t32 -97.5q0 -91 -68 -148t-199 -57
q-108 0 -189 37z" />
    <glyph glyph-name="four.LT" horiz-adv-x="545" 
d="M37 161v80l309 423h89v-405h91v-98h-91v-161h-118v161h-280zM165 257q6 0 37.5 1t44.5 1h70v94q0 34 5 129z" />
    <glyph glyph-name="five.LT" horiz-adv-x="545" 
d="M48 26l33 94q63 -29 132 -29q66 0 107 29t41 85q0 69 -61 92q-38 15 -120 15h-82v347h393l-24 -98h-252v-154h26q74 0 126 -20q60 -24 90.5 -70.5t30.5 -104.5q0 -99 -67.5 -160.5t-203.5 -61.5q-99 0 -169 36z" />
    <glyph glyph-name="six.LT" horiz-adv-x="545" 
d="M289 -10q-110 0 -180.5 79t-70.5 233q0 156 81 259.5t217 103.5q81 0 147 -31l-31 -93q-52 27 -110 27q-70 0 -119 -48.5t-61 -145.5q71 48 156 48q86 0 142.5 -54.5t56.5 -149.5q0 -104 -64 -166t-164 -62zM291 87q48 0 74 30t26 84q0 59 -29 91t-77 32q-30 0 -64 -13
t-56 -32q2 -92 38 -142t88 -50z" />
    <glyph glyph-name="seven.LT" horiz-adv-x="545" 
d="M120 0q68 331 245 561h-278l-28 98h468v-42q-209 -241 -282 -617h-125z" />
    <glyph glyph-name="eight.LT" horiz-adv-x="545" 
d="M274 -10q-112 0 -173.5 50t-61.5 133q0 58 31.5 101t82.5 65v2q-96 55 -96 145q0 78 61 128.5t163 50.5q100 0 157 -50.5t57 -119.5q0 -98 -100 -150v-2q122 -48 122 -159q0 -86 -63.5 -140t-179.5 -54zM281 83q47 0 78 24t31 67q0 22 -9.5 40t-21.5 29.5t-34.5 22
t-37 15l-40.5 12.5q-34 -14 -58 -41.5t-24 -65.5q0 -49 33.5 -76t82.5 -27zM300 386q68 36 68 98q0 38 -25 63t-69 25q-40 0 -65.5 -23t-25.5 -58q0 -43 31 -66t86 -39z" />
    <glyph glyph-name="nine.LT" horiz-adv-x="545" 
d="M217 -10q-88 0 -157 33l29 96q62 -32 125 -32q154 0 175 194h-2q-60 -47 -144 -47q-86 0 -143.5 51.5t-57.5 152.5q0 102 64 164.5t164 62.5q112 0 178 -77.5t66 -233.5q0 -174 -75.5 -269t-221.5 -95zM270 331q70 0 120 56q0 80 -33.5 130.5t-89.5 50.5q-46 0 -74 -33
t-28 -87q0 -56 27.5 -86.5t77.5 -30.5z" />
    <glyph glyph-name="Euro.OP" 
d="M467 112l31 -83q-62 -39 -147 -39q-89 0 -147.5 43.5t-81.5 120.5h-61v67h49q-2 22 -2 32q0 9 2 35h-49v67h62q24 78 85.5 121t144.5 43q70 0 124 -25v-96q-52 29 -112 29q-86 0 -120 -72h192l-26 -67h-185q-2 -13 -2 -34q0 -20 2 -33h185l-26 -67h-142q31 -72 115 -72
q61 0 109 30z" />
    <glyph glyph-name="dollar.OP" 
d="M219 -68v83q-78 8 -136 39l37 83q59 -34 129 -34q85 0 85 49q0 22 -24 38.5t-58 29t-68.5 28.5t-58.5 46.5t-24 73.5q0 52 34.5 86.5t100.5 44.5v77h81v-76q55 -3 107 -21v-98q-71 32 -133 32q-74 0 -74 -42q0 -20 24 -34.5t58.5 -26.5t68.5 -27.5t58 -47t24 -75.5
q0 -58 -41 -96t-109 -47v-85h-81z" />
    <glyph glyph-name="sterling.OP" 
d="M87 0v68q65 20 67 150h-57v80h57v48q0 74 49 123.5t145 49.5q65 0 117 -23l-23 -91q-40 19 -81 19q-40 0 -65.5 -23t-25.5 -71v-32h158l-27 -80h-131q-2 -92 -35 -135l1 -2q34 6 85 6h139v-87h-373z" />
    <glyph glyph-name="yen.OP" 
d="M212 0v75h-116v74h116v59h-116v73h77l-122 229h120l99 -203h2l99 203h119l-122 -229h78v-73h-117v-59h117v-74h-117v-75h-117z" />
    <glyph glyph-name="zero.OP" 
d="M271 -10q-102 0 -162.5 70.5t-60.5 181.5q0 112 60 182t163 70t163 -70t60 -182q0 -111 -60.5 -181.5t-162.5 -70.5zM271 85q101 0 101 157t-101 157t-101 -157t101 -157z" />
    <glyph glyph-name="one.OP" horiz-adv-x="430" 
d="M207 0v372l-130 -57l-35 88l190 83h93v-486h-118z" />
    <glyph glyph-name="two.OP" horiz-adv-x="494" 
d="M40 0q6 63 35.5 112t66.5 78.5t73.5 53.5t61 48.5t24.5 51.5q0 25 -18.5 40t-54.5 15q-65 0 -141 -47l-38 83q88 59 203 59q79 0 125.5 -37.5t46.5 -105.5q0 -44 -28 -81t-63 -59.5t-74 -54.5t-55 -63h232v-93h-396z" />
    <glyph glyph-name="three.OP" horiz-adv-x="524" 
d="M31 -174l26 92q54 -18 123 -18t114.5 28.5t45.5 84.5q0 93 -146 93h-92v91h32q52 0 89 9q103 27 103 110q0 40 -26.5 61.5t-65.5 21.5q-66 0 -151 -47l-40 82q96 60 209 60q92 0 144 -46.5t52 -119.5q0 -57 -31 -97.5t-76 -56.5v-2q57 -9 89 -51t32 -100
q0 -41 -13.5 -76.5t-44 -68.5t-88 -52t-135.5 -19q-92 0 -150 21z" />
    <glyph glyph-name="four.OP" 
d="M35 0v67l296 419h96v-393h89v-93h-89v-159l-118 -36v195h-274zM156 87q52 4 87 4h66v91q0 70 4 134z" />
    <glyph glyph-name="five.OP" horiz-adv-x="495" 
d="M12 -172l27 93q57 -21 117 -21q79 0 122.5 37t43.5 94q0 60 -43 84q-38 24 -123 24h-83l32 347h369l-22 -93h-237l-15 -167h17q88 0 139 -29q89 -49 89 -158q0 -41 -14.5 -80t-45 -75t-89 -57.5t-136.5 -21.5q-86 0 -148 23z" />
    <glyph glyph-name="six.OP" horiz-adv-x="564" 
d="M287 -10q-106 0 -171 71t-65 205q0 157 97 269.5t264 150.5l27 -89q-99 -26 -166 -82.5t-86 -136.5l1 -1q66 46 139 46q80 0 136.5 -54.5t56.5 -151.5q0 -103 -65.5 -165t-167.5 -62zM291 85q49 0 77.5 32.5t28.5 89.5q0 55 -27.5 86.5t-76.5 31.5q-66 0 -119 -46v-22
q0 -83 33.5 -127.5t83.5 -44.5z" />
    <glyph glyph-name="seven.OP" horiz-adv-x="490" 
d="M85 -199q67 338 229 592h-277l-26 93h463v-42q-168 -220 -255 -598z" />
    <glyph glyph-name="eight.OP" horiz-adv-x="572" 
d="M282 -10q-111 0 -173 50t-62 133q0 58 31.5 101t83.5 65v2q-96 54 -96 145q0 78 61 128.5t163 50.5q100 0 156.5 -50.5t56.5 -119.5q0 -98 -100 -150v-2q122 -47 122 -159q0 -86 -63.5 -140t-179.5 -54zM289 83q47 0 78.5 24t31.5 67q0 27 -12 47.5t-37.5 34.5
t-43.5 20.5t-51 16.5q-33 -14 -57 -42t-24 -65q0 -49 33 -76t82 -27zM308 386q69 36 69 98q0 38 -25.5 63t-68.5 25q-40 0 -65.5 -23t-25.5 -58q0 -43 31 -66t85 -39z" />
    <glyph glyph-name="nine.OP" horiz-adv-x="564" 
d="M116 -118q86 29 155 82.5t91 126.5l-2 1q-54 -30 -115 -30q-85 0 -143 54t-58 150q0 104 65.5 166t166.5 62q108 0 172.5 -70.5t64.5 -191.5q0 -146 -88 -262t-274 -175zM280 157q51 0 105 34q4 19 4 47q0 74 -32 117.5t-83 43.5q-49 0 -78.5 -33.5t-29.5 -89.5t30 -87.5
t84 -31.5z" />
    <glyph glyph-name="zero.dnom" horiz-adv-x="387" 
d="M193 -6q-71 0 -114 52.5t-43 149.5q0 96 43 148t115 52q71 0 114.5 -52.5t43.5 -148.5t-43.5 -148.5t-115.5 -52.5zM194 71q57 0 57 123q0 125 -58 125q-57 0 -57 -122q0 -126 58 -126z" />
    <glyph glyph-name="one.dnom" horiz-adv-x="349" 
d="M176 0v297l-116 -43l-31 75l165 65h75v-394h-93z" />
    <glyph glyph-name="two.dnom" horiz-adv-x="349" 
d="M22 0q2 51 21.5 92t46.5 66t54 45t45.5 38.5t18.5 35.5q0 38 -49 38q-36 0 -101 -29l-24 73q78 37 147 37q63 0 96 -29t33 -78q0 -30 -15 -55t-37.5 -43t-45.5 -34t-42.5 -35.5t-25.5 -40.5h169v-81h-291z" />
    <glyph glyph-name="three.dnom" horiz-adv-x="348" 
d="M15 20l25 71q43 -20 91 -20q70 0 70 48q0 28 -29 38q-16 6 -51 6h-49v69h38q30 0 49 7q29 12 29 40q0 39 -50 39q-37 0 -90 -22l-23 71q73 29 136 29q61 0 95 -28t34 -72q0 -64 -66 -91v-2q38 -7 59 -30.5t21 -60.5q0 -52 -43.5 -85t-124.5 -33q-67 0 -121 26z" />
    <glyph glyph-name="four.dnom" horiz-adv-x="387" 
d="M28 84v57l193 253h89v-240h53v-70h-53v-84h-93v84h-189zM127 153q17 1 66 1h24v27q0 47 3 96z" />
    <glyph glyph-name="five.dnom" horiz-adv-x="356" 
d="M23 20l26 73q49 -22 93 -22q69 0 69 53q0 32 -31 43q-16 6 -56 6h-72v214h262l-19 -79h-150v-65h19q47 0 77 -12q72 -25 72 -107q0 -58 -42 -94t-127 -36q-69 0 -121 26z" />
    <glyph glyph-name="six.dnom" horiz-adv-x="368" 
d="M194 -6q-69 0 -113.5 47t-44.5 140t51 154t137 61q53 0 99 -20l-24 -73q-34 16 -69 16q-34 0 -59.5 -21t-32.5 -62h2q34 18 75 18q55 0 90 -33.5t35 -90.5q0 -62 -41.5 -99t-104.5 -37zM196 69q23 0 36 15t13 40t-15 40t-39 15q-27 0 -54 -19q-1 -43 15.5 -67t43.5 -24z
" />
    <glyph glyph-name="seven.dnom" horiz-adv-x="333" 
d="M53 0q40 177 142 308h-159l-21 79h303v-52q-65 -74 -100.5 -151.5t-56.5 -183.5h-108z" />
    <glyph glyph-name="eight.dnom" horiz-adv-x="387" 
d="M189 -6q-72 0 -113 29.5t-41 80.5q0 70 68 97v2q-55 27 -55 83q0 49 39 79.5t104 30.5q69 0 107 -30.5t38 -80.5q0 -58 -53 -80v-2q69 -24 69 -91q0 -54 -44 -86t-119 -32zM192 71q23 0 40.5 11t17.5 32q0 36 -74 55q-17 -5 -29.5 -18.5t-12.5 -33.5q0 -22 16.5 -34
t41.5 -12zM203 233q36 18 36 49q0 17 -13 28t-33 11q-21 0 -33.5 -10t-12.5 -27q0 -35 56 -51z" />
    <glyph glyph-name="nine.dnom" horiz-adv-x="368" 
d="M143 -6q-57 0 -104 21l24 75q33 -19 77 -19q85 0 95 87h-2q-35 -22 -80 -22q-53 0 -88.5 31t-35.5 91q0 62 40.5 100t104.5 38q72 0 115.5 -47.5t43.5 -142.5q0 -101 -50.5 -156.5t-139.5 -55.5zM177 210q34 0 58 26q-1 85 -60 85q-24 0 -38 -15t-14 -40q0 -26 14.5 -41
t39.5 -15z" />
    <glyph glyph-name="plus.dnom" horiz-adv-x="399" 
d="M159 32v125h-114v74h114v121h80v-121h115v-74h-115v-125h-80z" />
    <glyph glyph-name="minus.dnom" horiz-adv-x="399" 
d="M45 157v74h309v-74h-309z" />
    <glyph glyph-name="equal.dnom" horiz-adv-x="399" 
d="M45 225v74h309v-74h-309zM45 89v74h309v-74h-309z" />
    <glyph glyph-name="parenleft.dnom" horiz-adv-x="229" 
d="M143 -45q-103 88 -103 239t103 239l57 -45q-68 -77 -68 -194q0 -119 68 -194z" />
    <glyph glyph-name="parenright.dnom" horiz-adv-x="229" 
d="M29 0q68 75 68 194q0 117 -68 194l57 45q103 -88 103 -239t-103 -239z" />
    <glyph glyph-name="zero.numr" horiz-adv-x="387" 
d="M193 257q-71 0 -114 52.5t-43 149.5q0 96 43 148t115 52q71 0 114.5 -52.5t43.5 -148.5t-43.5 -148.5t-115.5 -52.5zM194 334q57 0 57 123q0 125 -58 125q-57 0 -57 -122q0 -126 58 -126z" />
    <glyph glyph-name="one.numr" horiz-adv-x="349" 
d="M176 262v297l-116 -43l-31 75l165 65h75v-394h-93z" />
    <glyph glyph-name="two.numr" horiz-adv-x="349" 
d="M22 262q2 51 21.5 92t46.5 66t54 45t45.5 38.5t18.5 35.5q0 38 -49 38q-36 0 -101 -29l-24 73q78 37 147 37q63 0 96 -29t33 -78q0 -30 -15 -55t-37.5 -43t-45.5 -34t-42.5 -35.5t-25.5 -40.5h169v-81h-291z" />
    <glyph glyph-name="three.numr" horiz-adv-x="348" 
d="M15 283l25 71q43 -20 91 -20q70 0 70 48q0 28 -29 38q-16 6 -51 6h-49v69h38q30 0 49 7q29 12 29 40q0 39 -50 39q-37 0 -90 -22l-23 71q73 29 136 29q61 0 95 -28t34 -72q0 -64 -66 -91v-2q38 -7 59 -30.5t21 -60.5q0 -52 -43.5 -85t-124.5 -33q-67 0 -121 26z" />
    <glyph glyph-name="four.numr" horiz-adv-x="387" 
d="M28 346v57l193 253h89v-240h53v-70h-53v-84h-93v84h-189zM127 415q17 1 66 1h24v27q0 47 3 96z" />
    <glyph glyph-name="five.numr" horiz-adv-x="356" 
d="M23 283l26 73q49 -22 93 -22q69 0 69 53q0 32 -31 43q-16 6 -56 6h-72v214h262l-19 -79h-150v-65h19q47 0 77 -12q72 -25 72 -107q0 -58 -42 -94t-127 -36q-69 0 -121 26z" />
    <glyph glyph-name="six.numr" horiz-adv-x="368" 
d="M194 257q-69 0 -113.5 47t-44.5 140t51 154t137 61q53 0 99 -20l-24 -73q-34 16 -69 16q-34 0 -59.5 -21t-32.5 -62h2q34 18 75 18q55 0 90 -33.5t35 -90.5q0 -62 -41.5 -99t-104.5 -37zM196 332q23 0 36 15t13 40t-15 40t-39 15q-27 0 -54 -19q-1 -43 15.5 -67t43.5 -24
z" />
    <glyph glyph-name="seven.numr" horiz-adv-x="333" 
d="M53 262q40 177 142 308h-159l-21 79h303v-52q-65 -74 -100.5 -151.5t-56.5 -183.5h-108z" />
    <glyph glyph-name="eight.numr" horiz-adv-x="387" 
d="M189 257q-72 0 -113 29.5t-41 80.5q0 70 68 97v2q-55 28 -55 83q0 49 39 79.5t104 30.5q69 0 107 -30.5t38 -80.5q0 -58 -53 -80v-2q69 -24 69 -91q0 -54 -44 -86t-119 -32zM192 334q23 0 40.5 11t17.5 32q0 36 -74 55q-17 -5 -29.5 -18.5t-12.5 -33.5q0 -22 16.5 -34
t41.5 -12zM203 496q36 18 36 49q0 17 -13 28t-33 11q-21 0 -33.5 -10t-12.5 -27q0 -35 56 -51z" />
    <glyph glyph-name="nine.numr" horiz-adv-x="368" 
d="M143 257q-57 0 -104 21l24 75q33 -19 77 -19q85 0 95 87h-2q-35 -22 -80 -22q-53 0 -88.5 31t-35.5 91q0 62 40.5 100t104.5 38q72 0 115.5 -47.5t43.5 -142.5q0 -101 -50.5 -156.5t-139.5 -55.5zM177 473q34 0 58 26q-1 85 -60 85q-24 0 -38 -15t-14 -40q0 -26 14.5 -41
t39.5 -15z" />
    <glyph glyph-name="plus.numr" horiz-adv-x="399" 
d="M159 302v125h-114v74h114v121h80v-121h115v-74h-115v-125h-80z" />
    <glyph glyph-name="minus.numr" horiz-adv-x="399" 
d="M45 427v74h309v-74h-309z" />
    <glyph glyph-name="equal.numr" horiz-adv-x="399" 
d="M45 495v74h309v-74h-309zM45 359v74h309v-74h-309z" />
    <glyph glyph-name="parenleft.numr" horiz-adv-x="229" 
d="M143 225q-103 88 -103 239t103 239l57 -45q-68 -77 -68 -194q0 -119 68 -194z" />
    <glyph glyph-name="parenright.numr" horiz-adv-x="229" 
d="M29 270q68 75 68 194q0 117 -68 194l57 45q103 -88 103 -239t-103 -239z" />
    <glyph glyph-name="ampersand.small" horiz-adv-x="569" 
d="M367 45q-77 -54 -162 -54q-78 0 -123.5 40.5t-45.5 102.5q0 91 96 140q-18 20 -27 33t-16.5 31.5t-7.5 39.5q0 49 40.5 82.5t108.5 33.5q69 0 109 -32.5t40 -83.5q0 -75 -96 -126q53 -57 88 -90q40 42 59 102l86 -23q-25 -74 -77 -134q36 -29 73 -29q12 0 21 3l19 -76
q-21 -10 -60 -10q-59 0 -125 50zM220 75q42 0 77 26q-65 61 -108 110q-46 -22 -46 -67q0 -32 21 -50.5t56 -18.5zM224 313q50 28 50 62q0 18 -12.5 29t-30.5 11q-21 0 -32 -11.5t-11 -27.5q0 -27 36 -63z" />
    </font>
</defs>
</svg>
